<?xml version="1.0" encoding="UTF-8" standalone="no"?>
<!DOCTYPE svg PUBLIC "-//W3C//DTD SVG 1.1//EN"
 "http://www.w3.org/Graphics/SVG/1.1/DTD/svg11.dtd">
<!-- Generated by graphviz version 2.40.1 (20161225.0304)
 -->
<!-- Title: public.m_groups Pages: 1 -->
<svg width="2091pt" height="1229pt"
 viewBox="0.00 0.00 2091.00 1229.00" xmlns="http://www.w3.org/2000/svg" xmlns:xlink="http://www.w3.org/1999/xlink">
<g id="graph0" class="graph" transform="scale(1 1) rotate(0) translate(4 1225)">
<title>public.m_groups</title>
<polygon fill="#ffffff" stroke="transparent" points="-4,4 -4,-1225 2087,-1225 2087,4 -4,4"/>
<!-- public.m_groups -->
<g id="node1" class="node">
<title>public.m_groups</title>
<polygon fill="#efefef" stroke="transparent" points="1083,-712.5 1083,-747.5 1356,-747.5 1356,-712.5 1083,-712.5"/>
<polygon fill="none" stroke="#000000" points="1083,-712.5 1083,-747.5 1356,-747.5 1356,-712.5 1083,-712.5"/>
<text text-anchor="start" x="1089.7037" y="-725.3" font-family="Arial Bold" font-size="18.00" fill="#000000">public.m_groups</text>
<text text-anchor="start" x="1221.7283" y="-725.3" font-family="Arial" font-size="14.00" fill="#000000">    </text>
<text text-anchor="start" x="1255.9331" y="-725.3" font-family="Arial" font-size="14.00" fill="#666666">[BASE TABLE]</text>
<polygon fill="none" stroke="#000000" points="1083,-682.5 1083,-712.5 1356,-712.5 1356,-682.5 1083,-682.5"/>
<text text-anchor="start" x="1090" y="-693.9" font-family="Arial" font-size="14.00" fill="#000000">id </text>
<text text-anchor="start" x="1104.7798" y="-693.9" font-family="Arial" font-size="14.00" fill="#666666">[uuid]</text>
<polygon fill="none" stroke="#000000" points="1083,-652.5 1083,-682.5 1356,-682.5 1356,-652.5 1083,-652.5"/>
<text text-anchor="start" x="1090" y="-663.9" font-family="Arial" font-size="14.00" fill="#000000">name </text>
<text text-anchor="start" x="1128.899" y="-663.9" font-family="Arial" font-size="14.00" fill="#666666">[varchar(255)]</text>
<polygon fill="none" stroke="#000000" points="1083,-622.5 1083,-652.5 1356,-652.5 1356,-622.5 1083,-622.5"/>
<text text-anchor="start" x="1090" y="-633.9" font-family="Arial" font-size="14.00" fill="#000000">is_open </text>
<text text-anchor="start" x="1142.9102" y="-633.9" font-family="Arial" font-size="14.00" fill="#666666">[boolean]</text>
<polygon fill="none" stroke="#000000" points="1083,-592.5 1083,-622.5 1356,-622.5 1356,-592.5 1083,-592.5"/>
<text text-anchor="start" x="1090" y="-603.9" font-family="Arial" font-size="14.00" fill="#000000">is_primitive </text>
<text text-anchor="start" x="1163.8766" y="-603.9" font-family="Arial" font-size="14.00" fill="#666666">[boolean]</text>
<polygon fill="none" stroke="#000000" points="1083,-562.5 1083,-592.5 1356,-592.5 1356,-562.5 1083,-562.5"/>
<text text-anchor="start" x="1090" y="-573.9" font-family="Arial" font-size="14.00" fill="#000000">is_personal </text>
<text text-anchor="start" x="1165.46" y="-573.9" font-family="Arial" font-size="14.00" fill="#666666">[boolean]</text>
<polygon fill="none" stroke="#000000" points="1083,-532.5 1083,-562.5 1356,-562.5 1356,-532.5 1083,-532.5"/>
<text text-anchor="start" x="1090" y="-543.9" font-family="Arial" font-size="14.00" fill="#000000">created_by </text>
<text text-anchor="start" x="1163.1374" y="-543.9" font-family="Arial" font-size="14.00" fill="#666666">[uuid]</text>
<polygon fill="none" stroke="#000000" points="1083,-502.5 1083,-532.5 1356,-532.5 1356,-502.5 1083,-502.5"/>
<text text-anchor="start" x="1090" y="-513.9" font-family="Arial" font-size="14.00" fill="#000000">created_at </text>
<text text-anchor="start" x="1160.028" y="-513.9" font-family="Arial" font-size="14.00" fill="#666666">[timestamp with time zone]</text>
<polygon fill="none" stroke="#000000" points="1083,-472.5 1083,-502.5 1356,-502.5 1356,-472.5 1083,-472.5"/>
<text text-anchor="start" x="1090" y="-483.9" font-family="Arial" font-size="14.00" fill="#000000">updated_at </text>
<text text-anchor="start" x="1163.9326" y="-483.9" font-family="Arial" font-size="14.00" fill="#666666">[timestamp with time zone]</text>
<polygon fill="none" stroke="#000000" stroke-width="3" points="1081,-471.5 1081,-749.5 1357,-749.5 1357,-471.5 1081,-471.5"/>
</g>
<!-- public.m_users -->
<g id="node6" class="node">
<title>public.m_users</title>
<polygon fill="#efefef" stroke="transparent" points="1048,-312.5 1048,-347.5 1391,-347.5 1391,-312.5 1048,-312.5"/>
<polygon fill="none" stroke="#000000" points="1048,-312.5 1048,-347.5 1391,-347.5 1391,-312.5 1048,-312.5"/>
<text text-anchor="start" x="1095.2099" y="-325.3" font-family="Arial Bold" font-size="18.00" fill="#000000">public.m_users</text>
<text text-anchor="start" x="1216.2221" y="-325.3" font-family="Arial" font-size="14.00" fill="#000000">    </text>
<text text-anchor="start" x="1250.4269" y="-325.3" font-family="Arial" font-size="14.00" fill="#666666">[BASE TABLE]</text>
<polygon fill="none" stroke="#000000" points="1048,-282.5 1048,-312.5 1391,-312.5 1391,-282.5 1048,-282.5"/>
<text text-anchor="start" x="1055" y="-293.9" font-family="Arial" font-size="14.00" fill="#000000">id    </text>
<text text-anchor="start" x="1100.094" y="-293.9" font-family="Arial" font-size="14.00" fill="#666666">[uuid]</text>
<polygon fill="none" stroke="#000000" points="1048,-252.5 1048,-282.5 1391,-282.5 1391,-252.5 1048,-252.5"/>
<text text-anchor="start" x="1055" y="-263.9" font-family="Arial" font-size="14.00" fill="#000000">login_id    </text>
<text text-anchor="start" x="1137.4376" y="-263.9" font-family="Arial" font-size="14.00" fill="#666666">[varchar(255)]</text>
<polygon fill="none" stroke="#000000" points="1048,-222.5 1048,-252.5 1391,-252.5 1391,-222.5 1048,-222.5"/>
<text text-anchor="start" x="1055" y="-233.9" font-family="Arial" font-size="14.00" fill="#000000">password    </text>
<text text-anchor="start" x="1149.1024" y="-233.9" font-family="Arial" font-size="14.00" fill="#666666">[varchar(255)]</text>
<polygon fill="none" stroke="#000000" points="1048,-192.5 1048,-222.5 1391,-222.5 1391,-192.5 1048,-192.5"/>
<text text-anchor="start" x="1055" y="-203.9" font-family="Arial" font-size="14.00" fill="#000000">name    </text>
<text text-anchor="start" x="1124.2132" y="-203.9" font-family="Arial" font-size="14.00" fill="#666666">[varchar(255)]</text>
<polygon fill="none" stroke="#000000" points="1048,-162.5 1048,-192.5 1391,-192.5 1391,-162.5 1048,-162.5"/>
<text text-anchor="start" x="1054.9727" y="-173.9" font-family="Arial" font-size="14.00" fill="#000000">last_logged_in_at    </text>
<text text-anchor="start" x="1198.8871" y="-173.9" font-family="Arial" font-size="14.00" fill="#666666">[timestamp without time zone]</text>
<polygon fill="none" stroke="#000000" points="1048,-132.5 1048,-162.5 1391,-162.5 1391,-132.5 1048,-132.5"/>
<text text-anchor="start" x="1055" y="-143.9" font-family="Arial" font-size="14.00" fill="#000000">created_by    </text>
<text text-anchor="start" x="1158.4516" y="-143.9" font-family="Arial" font-size="14.00" fill="#666666">[uuid]</text>
<polygon fill="none" stroke="#000000" points="1048,-102.5 1048,-132.5 1391,-132.5 1391,-102.5 1048,-102.5"/>
<text text-anchor="start" x="1055" y="-113.9" font-family="Arial" font-size="14.00" fill="#000000">from_system    </text>
<text text-anchor="start" x="1169.3156" y="-113.9" font-family="Arial" font-size="14.00" fill="#666666">[boolean]</text>
<polygon fill="none" stroke="#000000" points="1048,-72.5 1048,-102.5 1391,-102.5 1391,-72.5 1048,-72.5"/>
<text text-anchor="start" x="1055" y="-83.9" font-family="Arial" font-size="14.00" fill="#000000">created_at    </text>
<text text-anchor="start" x="1155.3422" y="-83.9" font-family="Arial" font-size="14.00" fill="#666666">[timestamp with time zone]</text>
<polygon fill="none" stroke="#000000" points="1048,-42.5 1048,-72.5 1391,-72.5 1391,-42.5 1048,-42.5"/>
<text text-anchor="start" x="1055" y="-53.9" font-family="Arial" font-size="14.00" fill="#000000">updated_at    </text>
<text text-anchor="start" x="1159.2468" y="-53.9" font-family="Arial" font-size="14.00" fill="#666666">[timestamp with time zone]</text>
</g>
<!-- public.m_groups&#45;&gt;public.m_users -->
<g id="edge6" class="edge">
<title>public.m_groups:created_by&#45;&gt;public.m_users:id</title>
<path fill="none" stroke="#000000" d="M1072.71,-546.7828C968.7615,-532.1191 939.3114,-297.5 1048,-297.5"/>
<polygon fill="#000000" stroke="#000000" points="1073.0242,-546.8046 1082.6871,-551.9891 1078.0121,-547.1523 1083,-547.5 1083,-547.5 1083,-547.5 1078.0121,-547.1523 1083.3129,-543.0109 1073.0242,-546.8046 1073.0242,-546.8046"/>
<text text-anchor="start" x="601.2105" y="-557.5" font-family="Arial" font-size="10.00" fill="#000000">FOREIGN KEY (created_by) REFERENCES m_users(id) ON UPDATE SET NULL ON DELETE SET NULL</text>
</g>
<!-- public.t_user_group -->
<g id="node2" class="node">
<title>public.t_user_group</title>
<polygon fill="#efefef" stroke="transparent" points="187,-1082.5 187,-1117.5 486,-1117.5 486,-1082.5 187,-1082.5"/>
<polygon fill="none" stroke="#000000" points="187,-1082.5 187,-1117.5 486,-1117.5 486,-1082.5 187,-1082.5"/>
<text text-anchor="start" x="193.6933" y="-1095.3" font-family="Arial Bold" font-size="18.00" fill="#000000">public.t_user_group</text>
<text text-anchor="start" x="351.7387" y="-1095.3" font-family="Arial" font-size="14.00" fill="#000000">    </text>
<text text-anchor="start" x="385.9435" y="-1095.3" font-family="Arial" font-size="14.00" fill="#666666">[BASE TABLE]</text>
<polygon fill="none" stroke="#000000" points="187,-1052.5 187,-1082.5 486,-1082.5 486,-1052.5 187,-1052.5"/>
<text text-anchor="start" x="194" y="-1063.9" font-family="Arial" font-size="14.00" fill="#000000">id    </text>
<text text-anchor="start" x="239.094" y="-1063.9" font-family="Arial" font-size="14.00" fill="#666666">[integer]</text>
<polygon fill="none" stroke="#000000" points="187,-1022.5 187,-1052.5 486,-1052.5 486,-1022.5 187,-1022.5"/>
<text text-anchor="start" x="194" y="-1033.9" font-family="Arial" font-size="14.00" fill="#000000">user_id    </text>
<text text-anchor="start" x="274.1024" y="-1033.9" font-family="Arial" font-size="14.00" fill="#666666">[uuid]</text>
<polygon fill="none" stroke="#000000" points="187,-992.5 187,-1022.5 486,-1022.5 486,-992.5 187,-992.5"/>
<text text-anchor="start" x="194" y="-1003.9" font-family="Arial" font-size="14.00" fill="#000000">group_id    </text>
<text text-anchor="start" x="282.6676" y="-1003.9" font-family="Arial" font-size="14.00" fill="#666666">[uuid]</text>
<polygon fill="none" stroke="#000000" points="187,-962.5 187,-992.5 486,-992.5 486,-962.5 187,-962.5"/>
<text text-anchor="start" x="194" y="-973.9" font-family="Arial" font-size="14.00" fill="#000000">is_valid    </text>
<text text-anchor="start" x="274.8724" y="-973.9" font-family="Arial" font-size="14.00" fill="#666666">[boolean]</text>
<polygon fill="none" stroke="#000000" points="187,-932.5 187,-962.5 486,-962.5 486,-932.5 187,-932.5"/>
<text text-anchor="start" x="194" y="-943.9" font-family="Arial" font-size="14.00" fill="#000000">added_at    </text>
<text text-anchor="start" x="286.5736" y="-943.9" font-family="Arial" font-size="14.00" fill="#666666">[timestamp with time zone]</text>
</g>
<!-- public.t_user_group&#45;&gt;public.m_groups -->
<g id="edge1" class="edge">
<title>public.t_user_group:group_id&#45;&gt;public.m_groups:id</title>
<path fill="none" stroke="#000000" d="M496.0471,-1006.7861C560.2679,-996.7862 480.4234,-884.2644 537,-830 627.1079,-743.5747 958.1451,-697.5 1083,-697.5"/>
<polygon fill="#000000" stroke="#000000" points="495.9749,-1006.7912 485.681,-1003.0113 490.9874,-1007.1456 486,-1007.5 486,-1007.5 486,-1007.5 490.9874,-1007.1456 486.319,-1011.9887 495.9749,-1006.7912 495.9749,-1006.7912"/>
<text text-anchor="start" x="6.8805" y="-1017.5" font-family="Arial" font-size="10.00" fill="#000000">FOREIGN KEY (group_id) REFERENCES m_groups(id) ON UPDATE CASCADE ON DELETE CASCADE</text>
</g>
<!-- public.t_group_invites -->
<g id="node3" class="node">
<title>public.t_group_invites</title>
<polygon fill="#efefef" stroke="transparent" points="590,-1112.5 590,-1147.5 905,-1147.5 905,-1112.5 590,-1112.5"/>
<polygon fill="none" stroke="#000000" points="590,-1112.5 590,-1147.5 905,-1147.5 905,-1112.5 590,-1112.5"/>
<text text-anchor="start" x="596.6941" y="-1125.3" font-family="Arial Bold" font-size="18.00" fill="#000000">public.t_group_invites</text>
<text text-anchor="start" x="770.7379" y="-1125.3" font-family="Arial" font-size="14.00" fill="#000000">    </text>
<text text-anchor="start" x="804.9427" y="-1125.3" font-family="Arial" font-size="14.00" fill="#666666">[BASE TABLE]</text>
<polygon fill="none" stroke="#000000" points="590,-1082.5 590,-1112.5 905,-1112.5 905,-1082.5 590,-1082.5"/>
<text text-anchor="start" x="597" y="-1093.9" font-family="Arial" font-size="14.00" fill="#000000">user_id    </text>
<text text-anchor="start" x="677.1024" y="-1093.9" font-family="Arial" font-size="14.00" fill="#666666">[uuid]</text>
<polygon fill="none" stroke="#000000" points="590,-1052.5 590,-1082.5 905,-1082.5 905,-1052.5 590,-1052.5"/>
<text text-anchor="start" x="597" y="-1063.9" font-family="Arial" font-size="14.00" fill="#000000">group_id    </text>
<text text-anchor="start" x="685.6676" y="-1063.9" font-family="Arial" font-size="14.00" fill="#666666">[uuid]</text>
<polygon fill="none" stroke="#000000" points="590,-1022.5 590,-1052.5 905,-1052.5 905,-1022.5 590,-1022.5"/>
<text text-anchor="start" x="597" y="-1033.9" font-family="Arial" font-size="14.00" fill="#000000">is_valid    </text>
<text text-anchor="start" x="677.8724" y="-1033.9" font-family="Arial" font-size="14.00" fill="#666666">[boolean]</text>
<polygon fill="none" stroke="#000000" points="590,-992.5 590,-1022.5 905,-1022.5 905,-992.5 590,-992.5"/>
<text text-anchor="start" x="597" y="-1003.9" font-family="Arial" font-size="14.00" fill="#000000">invited_by    </text>
<text text-anchor="start" x="694.2216" y="-1003.9" font-family="Arial" font-size="14.00" fill="#666666">[uuid]</text>
<polygon fill="none" stroke="#000000" points="590,-962.5 590,-992.5 905,-992.5 905,-962.5 590,-962.5"/>
<text text-anchor="start" x="597" y="-973.9" font-family="Arial" font-size="14.00" fill="#000000">canceled_by    </text>
<text text-anchor="start" x="709.7896" y="-973.9" font-family="Arial" font-size="14.00" fill="#666666">[uuid]</text>
<polygon fill="none" stroke="#000000" points="590,-932.5 590,-962.5 905,-962.5 905,-932.5 590,-932.5"/>
<text text-anchor="start" x="597" y="-943.9" font-family="Arial" font-size="14.00" fill="#000000">invited_at    </text>
<text text-anchor="start" x="691.1122" y="-943.9" font-family="Arial" font-size="14.00" fill="#666666">[timestamp with time zone]</text>
<polygon fill="none" stroke="#000000" points="590,-902.5 590,-932.5 905,-932.5 905,-902.5 590,-902.5"/>
<text text-anchor="start" x="597" y="-913.9" font-family="Arial" font-size="14.00" fill="#000000">canceled_at    </text>
<text text-anchor="start" x="706.6802" y="-913.9" font-family="Arial" font-size="14.00" fill="#666666">[timestamp with time zone]</text>
</g>
<!-- public.t_group_invites&#45;&gt;public.m_groups -->
<g id="edge2" class="edge">
<title>public.t_group_invites:group_id&#45;&gt;public.m_groups:id</title>
<path fill="none" stroke="#000000" d="M915.0549,-1067.0368C1005.993,-1058.113 907.0741,-922.2 956,-830 994.2359,-757.9452 1001.4287,-697.5 1083,-697.5"/>
<polygon fill="#000000" stroke="#000000" points="914.9894,-1067.0398 904.7929,-1063.0048 909.9947,-1067.2699 905,-1067.5 905,-1067.5 905,-1067.5 909.9947,-1067.2699 905.2071,-1071.9952 914.9894,-1067.0398 914.9894,-1067.0398"/>
<text text-anchor="start" x="911.8805" y="-1077.5" font-family="Arial" font-size="10.00" fill="#000000">FOREIGN KEY (group_id) REFERENCES m_groups(id) ON UPDATE CASCADE ON DELETE CASCADE</text>
</g>
<!-- public.t_group_storage_permission -->
<g id="node4" class="node">
<title>public.t_group_storage_permission</title>
<polygon fill="#efefef" stroke="transparent" points="1009,-1097.5 1009,-1132.5 1430,-1132.5 1430,-1097.5 1009,-1097.5"/>
<polygon fill="none" stroke="#000000" points="1009,-1097.5 1009,-1132.5 1430,-1132.5 1430,-1097.5 1009,-1097.5"/>
<text text-anchor="start" x="1015.6841" y="-1110.3" font-family="Arial Bold" font-size="18.00" fill="#000000">public.t_group_storage_permission</text>
<text text-anchor="start" x="1295.7479" y="-1110.3" font-family="Arial" font-size="14.00" fill="#000000">    </text>
<text text-anchor="start" x="1329.9527" y="-1110.3" font-family="Arial" font-size="14.00" fill="#666666">[BASE TABLE]</text>
<polygon fill="none" stroke="#000000" points="1009,-1067.5 1009,-1097.5 1430,-1097.5 1430,-1067.5 1009,-1067.5"/>
<text text-anchor="start" x="1016" y="-1078.9" font-family="Arial" font-size="14.00" fill="#000000">storage_id    </text>
<text text-anchor="start" x="1115.5582" y="-1078.9" font-family="Arial" font-size="14.00" fill="#666666">[uuid]</text>
<polygon fill="none" stroke="#000000" points="1009,-1037.5 1009,-1067.5 1430,-1067.5 1430,-1037.5 1009,-1037.5"/>
<text text-anchor="start" x="1016" y="-1048.9" font-family="Arial" font-size="14.00" fill="#000000">group_id    </text>
<text text-anchor="start" x="1104.6676" y="-1048.9" font-family="Arial" font-size="14.00" fill="#666666">[uuid]</text>
<polygon fill="none" stroke="#000000" points="1009,-1007.5 1009,-1037.5 1430,-1037.5 1430,-1007.5 1009,-1007.5"/>
<text text-anchor="start" x="1016" y="-1018.9" font-family="Arial" font-size="14.00" fill="#000000">attached_by    </text>
<text text-anchor="start" x="1126.4642" y="-1018.9" font-family="Arial" font-size="14.00" fill="#666666">[uuid]</text>
<polygon fill="none" stroke="#000000" points="1009,-977.5 1009,-1007.5 1430,-1007.5 1430,-977.5 1009,-977.5"/>
<text text-anchor="start" x="1016" y="-988.9" font-family="Arial" font-size="14.00" fill="#000000">last_changed_by    </text>
<text text-anchor="start" x="1156.028" y="-988.9" font-family="Arial" font-size="14.00" fill="#666666">[uuid]</text>
<polygon fill="none" stroke="#000000" points="1009,-947.5 1009,-977.5 1430,-977.5 1430,-947.5 1009,-947.5"/>
<text text-anchor="start" x="1016" y="-958.9" font-family="Arial" font-size="14.00" fill="#000000">attached_at    </text>
<text text-anchor="start" x="1123.3548" y="-958.9" font-family="Arial" font-size="14.00" fill="#666666">[timestamp with time zone]</text>
<polygon fill="none" stroke="#000000" points="1009,-917.5 1009,-947.5 1430,-947.5 1430,-917.5 1009,-917.5"/>
<text text-anchor="start" x="1016" y="-928.9" font-family="Arial" font-size="14.00" fill="#000000">last_changed_at    </text>
<text text-anchor="start" x="1152.9186" y="-928.9" font-family="Arial" font-size="14.00" fill="#666666">[timestamp with time zone]</text>
</g>
<!-- public.t_group_storage_permission&#45;&gt;public.m_groups -->
<g id="edge3" class="edge">
<title>public.t_group_storage_permission:group_id&#45;&gt;public.m_groups:id</title>
<path fill="none" stroke="#000000" d="M999.0624,-1050.4152C935.0771,-1021.3218 1006.0354,-697.5 1083,-697.5"/>
<polygon fill="#000000" stroke="#000000" points="999.213,-1050.4467 1008.076,-1056.9041 1004.1065,-1051.4734 1009,-1052.5 1009,-1052.5 1009,-1052.5 1004.1065,-1051.4734 1009.924,-1048.0959 999.213,-1050.4467 999.213,-1050.4467"/>
<text text-anchor="start" x="772.8805" y="-1036.5" font-family="Arial" font-size="10.00" fill="#000000">FOREIGN KEY (group_id) REFERENCES m_groups(id) ON UPDATE CASCADE ON DELETE CASCADE</text>
</g>
<!-- public.m_channels -->
<g id="node5" class="node">
<title>public.m_channels</title>
<polygon fill="#efefef" stroke="transparent" points="1534,-1142.5 1534,-1177.5 1859,-1177.5 1859,-1142.5 1534,-1142.5"/>
<polygon fill="none" stroke="#000000" points="1534,-1142.5 1534,-1177.5 1859,-1177.5 1859,-1142.5 1534,-1142.5"/>
<text text-anchor="start" x="1558.1996" y="-1155.3" font-family="Arial Bold" font-size="18.00" fill="#000000">public.m_channels</text>
<text text-anchor="start" x="1707.2324" y="-1155.3" font-family="Arial" font-size="14.00" fill="#000000">    </text>
<text text-anchor="start" x="1741.4372" y="-1155.3" font-family="Arial" font-size="14.00" fill="#666666">[BASE TABLE]</text>
<polygon fill="none" stroke="#000000" points="1534,-1112.5 1534,-1142.5 1859,-1142.5 1859,-1112.5 1534,-1112.5"/>
<text text-anchor="start" x="1541" y="-1123.9" font-family="Arial" font-size="14.00" fill="#000000">id    </text>
<text text-anchor="start" x="1586.094" y="-1123.9" font-family="Arial" font-size="14.00" fill="#666666">[uuid]</text>
<polygon fill="none" stroke="#000000" points="1534,-1082.5 1534,-1112.5 1859,-1112.5 1859,-1082.5 1534,-1082.5"/>
<text text-anchor="start" x="1541" y="-1093.9" font-family="Arial" font-size="14.00" fill="#000000">name    </text>
<text text-anchor="start" x="1610.2132" y="-1093.9" font-family="Arial" font-size="14.00" fill="#666666">[varchar(255)]</text>
<polygon fill="none" stroke="#000000" points="1534,-1052.5 1534,-1082.5 1859,-1082.5 1859,-1052.5 1534,-1052.5"/>
<text text-anchor="start" x="1541" y="-1063.9" font-family="Arial" font-size="14.00" fill="#000000">admin_group_id    </text>
<text text-anchor="start" x="1675.5652" y="-1063.9" font-family="Arial" font-size="14.00" fill="#666666">[uuid]</text>
<polygon fill="none" stroke="#000000" points="1534,-1022.5 1534,-1052.5 1859,-1052.5 1859,-1022.5 1534,-1022.5"/>
<text text-anchor="start" x="1541" y="-1033.9" font-family="Arial" font-size="14.00" fill="#000000">connectable_group_id    </text>
<text text-anchor="start" x="1712.9256" y="-1033.9" font-family="Arial" font-size="14.00" fill="#666666">[uuid]</text>
<polygon fill="none" stroke="#000000" points="1534,-992.5 1534,-1022.5 1859,-1022.5 1859,-992.5 1534,-992.5"/>
<text text-anchor="start" x="1540.9299" y="-1003.9" font-family="Arial" font-size="14.00" fill="#000000">last_activity_at    </text>
<text text-anchor="start" x="1666.9299" y="-1003.9" font-family="Arial" font-size="14.00" fill="#666666">[timestamp without time zone]</text>
<polygon fill="none" stroke="#000000" points="1534,-962.5 1534,-992.5 1859,-992.5 1859,-962.5 1534,-962.5"/>
<text text-anchor="start" x="1541" y="-973.9" font-family="Arial" font-size="14.00" fill="#000000">created_by    </text>
<text text-anchor="start" x="1644.4516" y="-973.9" font-family="Arial" font-size="14.00" fill="#666666">[uuid]</text>
<polygon fill="none" stroke="#000000" points="1534,-932.5 1534,-962.5 1859,-962.5 1859,-932.5 1534,-932.5"/>
<text text-anchor="start" x="1541" y="-943.9" font-family="Arial" font-size="14.00" fill="#000000">updated_by    </text>
<text text-anchor="start" x="1648.3562" y="-943.9" font-family="Arial" font-size="14.00" fill="#666666">[uuid]</text>
<polygon fill="none" stroke="#000000" points="1534,-902.5 1534,-932.5 1859,-932.5 1859,-902.5 1534,-902.5"/>
<text text-anchor="start" x="1541" y="-913.9" font-family="Arial" font-size="14.00" fill="#000000">created_at    </text>
<text text-anchor="start" x="1641.3422" y="-913.9" font-family="Arial" font-size="14.00" fill="#666666">[timestamp with time zone]</text>
<polygon fill="none" stroke="#000000" points="1534,-872.5 1534,-902.5 1859,-902.5 1859,-872.5 1534,-872.5"/>
<text text-anchor="start" x="1541" y="-883.9" font-family="Arial" font-size="14.00" fill="#000000">updated_at    </text>
<text text-anchor="start" x="1645.2468" y="-883.9" font-family="Arial" font-size="14.00" fill="#666666">[timestamp with time zone]</text>
</g>
<!-- public.m_channels&#45;&gt;public.m_groups -->
<g id="edge4" class="edge">
<title>public.m_channels:admin_group_id&#45;&gt;public.m_groups:id</title>
<path fill="none" stroke="#000000" d="M1523.9333,-1067.0371C1432.8567,-1058.1182 1530.972,-922.2787 1482,-830 1443.9054,-758.2177 1437.2644,-697.5 1356,-697.5"/>
<polygon fill="#000000" stroke="#000000" points="1524.0106,-1067.0405 1533.7932,-1071.9952 1529.0053,-1067.2703 1534,-1067.5 1534,-1067.5 1534,-1067.5 1529.0053,-1067.2703 1534.2068,-1063.0048 1524.0106,-1067.0405 1524.0106,-1067.0405"/>
<text text-anchor="start" x="1540.8295" y="-1077.5" font-family="Arial" font-size="10.00" fill="#000000">FOREIGN KEY (admin_group_id) REFERENCES m_groups(id) ON UPDATE RESTRICT ON DELETE RESTRICT</text>
</g>
<!-- public.m_channels&#45;&gt;public.m_groups -->
<g id="edge5" class="edge">
<title>public.m_channels:connectable_group_id&#45;&gt;public.m_groups:id</title>
<path fill="none" stroke="#000000" d="M1523.6817,-1036.9413C1445.6655,-1027.8595 1526.0329,-910.0486 1482,-830 1442.833,-758.7971 1437.2644,-697.5 1356,-697.5"/>
<polygon fill="#000000" stroke="#000000" points="1524.0146,-1036.9592 1533.7567,-1041.9934 1529.0073,-1037.2296 1534,-1037.5 1534,-1037.5 1534,-1037.5 1529.0073,-1037.2296 1534.2433,-1033.0066 1524.0146,-1036.9592 1524.0146,-1036.9592"/>
<text text-anchor="start" x="1541.4865" y="-1047.5" font-family="Arial" font-size="10.00" fill="#000000">FOREIGN KEY (connectable_group_id) REFERENCES m_groups(id) ON UPDATE RESTRICT ON DELETE RESTRICT</text>
</g>
</g>
</svg>
