<?xml version="1.0" encoding="UTF-8" standalone="no"?>
<!DOCTYPE svg PUBLIC "-//W3C//DTD SVG 1.1//EN"
 "http://www.w3.org/Graphics/SVG/1.1/DTD/svg11.dtd">
<!-- Generated by graphviz version 2.40.1 (20161225.0304)
 -->
<!-- Title: public.t_user_group Pages: 1 -->
<svg width="1366pt" height="989pt"
 viewBox="0.00 0.00 1366.00 989.00" xmlns="http://www.w3.org/2000/svg" xmlns:xlink="http://www.w3.org/1999/xlink">
<g id="graph0" class="graph" transform="scale(1 1) rotate(0) translate(4 985)">
<title>public.t_user_group</title>
<polygon fill="#ffffff" stroke="transparent" points="-4,4 -4,-985 1362,-985 1362,4 -4,4"/>
<!-- public.t_user_group -->
<g id="node1" class="node">
<title>public.t_user_group</title>
<polygon fill="#efefef" stroke="transparent" points="573,-622.5 573,-657.5 872,-657.5 872,-622.5 573,-622.5"/>
<polygon fill="none" stroke="#000000" points="573,-622.5 573,-657.5 872,-657.5 872,-622.5 573,-622.5"/>
<text text-anchor="start" x="579.6933" y="-635.3" font-family="Arial Bold" font-size="18.00" fill="#000000">public.t_user_group</text>
<text text-anchor="start" x="737.7387" y="-635.3" font-family="Arial" font-size="14.00" fill="#000000">    </text>
<text text-anchor="start" x="771.9435" y="-635.3" font-family="Arial" font-size="14.00" fill="#666666">[BASE TABLE]</text>
<polygon fill="none" stroke="#000000" points="573,-592.5 573,-622.5 872,-622.5 872,-592.5 573,-592.5"/>
<text text-anchor="start" x="580" y="-603.9" font-family="Arial" font-size="14.00" fill="#000000">id </text>
<text text-anchor="start" x="594.7798" y="-603.9" font-family="Arial" font-size="14.00" fill="#666666">[integer]</text>
<polygon fill="none" stroke="#000000" points="573,-562.5 573,-592.5 872,-592.5 872,-562.5 573,-562.5"/>
<text text-anchor="start" x="580" y="-573.9" font-family="Arial" font-size="14.00" fill="#000000">user_id </text>
<text text-anchor="start" x="629.7882" y="-573.9" font-family="Arial" font-size="14.00" fill="#666666">[uuid]</text>
<polygon fill="none" stroke="#000000" points="573,-532.5 573,-562.5 872,-562.5 872,-532.5 573,-532.5"/>
<text text-anchor="start" x="580" y="-543.9" font-family="Arial" font-size="14.00" fill="#000000">group_id </text>
<text text-anchor="start" x="638.3534" y="-543.9" font-family="Arial" font-size="14.00" fill="#666666">[uuid]</text>
<polygon fill="none" stroke="#000000" points="573,-502.5 573,-532.5 872,-532.5 872,-502.5 573,-502.5"/>
<text text-anchor="start" x="580" y="-513.9" font-family="Arial" font-size="14.00" fill="#000000">is_valid </text>
<text text-anchor="start" x="630.5582" y="-513.9" font-family="Arial" font-size="14.00" fill="#666666">[boolean]</text>
<polygon fill="none" stroke="#000000" points="573,-472.5 573,-502.5 872,-502.5 872,-472.5 573,-472.5"/>
<text text-anchor="start" x="580" y="-483.9" font-family="Arial" font-size="14.00" fill="#000000">added_at </text>
<text text-anchor="start" x="642.2594" y="-483.9" font-family="Arial" font-size="14.00" fill="#666666">[timestamp with time zone]</text>
<polygon fill="none" stroke="#000000" stroke-width="3" points="571,-471.5 571,-659.5 873,-659.5 873,-471.5 571,-471.5"/>
</g>
<!-- public.m_users -->
<g id="node3" class="node">
<title>public.m_users</title>
<polygon fill="#efefef" stroke="transparent" points="343,-312.5 343,-347.5 686,-347.5 686,-312.5 343,-312.5"/>
<polygon fill="none" stroke="#000000" points="343,-312.5 343,-347.5 686,-347.5 686,-312.5 343,-312.5"/>
<text text-anchor="start" x="390.2099" y="-325.3" font-family="Arial Bold" font-size="18.00" fill="#000000">public.m_users</text>
<text text-anchor="start" x="511.2221" y="-325.3" font-family="Arial" font-size="14.00" fill="#000000">    </text>
<text text-anchor="start" x="545.4269" y="-325.3" font-family="Arial" font-size="14.00" fill="#666666">[BASE TABLE]</text>
<polygon fill="none" stroke="#000000" points="343,-282.5 343,-312.5 686,-312.5 686,-282.5 343,-282.5"/>
<text text-anchor="start" x="350" y="-293.9" font-family="Arial" font-size="14.00" fill="#000000">id    </text>
<text text-anchor="start" x="395.094" y="-293.9" font-family="Arial" font-size="14.00" fill="#666666">[uuid]</text>
<polygon fill="none" stroke="#000000" points="343,-252.5 343,-282.5 686,-282.5 686,-252.5 343,-252.5"/>
<text text-anchor="start" x="350" y="-263.9" font-family="Arial" font-size="14.00" fill="#000000">login_id    </text>
<text text-anchor="start" x="432.4376" y="-263.9" font-family="Arial" font-size="14.00" fill="#666666">[varchar(255)]</text>
<polygon fill="none" stroke="#000000" points="343,-222.5 343,-252.5 686,-252.5 686,-222.5 343,-222.5"/>
<text text-anchor="start" x="350" y="-233.9" font-family="Arial" font-size="14.00" fill="#000000">password    </text>
<text text-anchor="start" x="444.1024" y="-233.9" font-family="Arial" font-size="14.00" fill="#666666">[varchar(255)]</text>
<polygon fill="none" stroke="#000000" points="343,-192.5 343,-222.5 686,-222.5 686,-192.5 343,-192.5"/>
<text text-anchor="start" x="350" y="-203.9" font-family="Arial" font-size="14.00" fill="#000000">name    </text>
<text text-anchor="start" x="419.2132" y="-203.9" font-family="Arial" font-size="14.00" fill="#666666">[varchar(255)]</text>
<polygon fill="none" stroke="#000000" points="343,-162.5 343,-192.5 686,-192.5 686,-162.5 343,-162.5"/>
<text text-anchor="start" x="349.9727" y="-173.9" font-family="Arial" font-size="14.00" fill="#000000">last_logged_in_at    </text>
<text text-anchor="start" x="493.8871" y="-173.9" font-family="Arial" font-size="14.00" fill="#666666">[timestamp without time zone]</text>
<polygon fill="none" stroke="#000000" points="343,-132.5 343,-162.5 686,-162.5 686,-132.5 343,-132.5"/>
<text text-anchor="start" x="350" y="-143.9" font-family="Arial" font-size="14.00" fill="#000000">created_by    </text>
<text text-anchor="start" x="453.4516" y="-143.9" font-family="Arial" font-size="14.00" fill="#666666">[uuid]</text>
<polygon fill="none" stroke="#000000" points="343,-102.5 343,-132.5 686,-132.5 686,-102.5 343,-102.5"/>
<text text-anchor="start" x="350" y="-113.9" font-family="Arial" font-size="14.00" fill="#000000">from_system    </text>
<text text-anchor="start" x="464.3156" y="-113.9" font-family="Arial" font-size="14.00" fill="#666666">[boolean]</text>
<polygon fill="none" stroke="#000000" points="343,-72.5 343,-102.5 686,-102.5 686,-72.5 343,-72.5"/>
<text text-anchor="start" x="350" y="-83.9" font-family="Arial" font-size="14.00" fill="#000000">created_at    </text>
<text text-anchor="start" x="450.3422" y="-83.9" font-family="Arial" font-size="14.00" fill="#666666">[timestamp with time zone]</text>
<polygon fill="none" stroke="#000000" points="343,-42.5 343,-72.5 686,-72.5 686,-42.5 343,-42.5"/>
<text text-anchor="start" x="350" y="-53.9" font-family="Arial" font-size="14.00" fill="#000000">updated_at    </text>
<text text-anchor="start" x="454.2468" y="-53.9" font-family="Arial" font-size="14.00" fill="#666666">[timestamp with time zone]</text>
</g>
<!-- public.t_user_group&#45;&gt;public.m_users -->
<g id="edge2" class="edge">
<title>public.t_user_group:user_id&#45;&gt;public.m_users:id</title>
<path fill="none" stroke="#000000" d="M562.8587,-576.6569C509.1459,-567.0725 535.6871,-478.048 573,-427 604.104,-384.4464 654.896,-433.5536 686,-391 710.5221,-357.4511 727.5556,-297.5 686,-297.5"/>
<polygon fill="#000000" stroke="#000000" points="563.0344,-576.6714 572.6271,-581.9845 568.0172,-577.0857 573,-577.5 573,-577.5 573,-577.5 568.0172,-577.0857 573.3729,-573.0155 563.0344,-576.6714 563.0344,-576.6714"/>
<text text-anchor="start" x="105.9985" y="-587.5" font-family="Arial" font-size="10.00" fill="#000000">FOREIGN KEY (user_id) REFERENCES m_users(id) ON UPDATE CASCADE ON DELETE CASCADE</text>
</g>
<!-- public.m_groups -->
<g id="node4" class="node">
<title>public.m_groups</title>
<polygon fill="#efefef" stroke="transparent" points="790,-297.5 790,-332.5 1073,-332.5 1073,-297.5 790,-297.5"/>
<polygon fill="none" stroke="#000000" points="790,-297.5 790,-332.5 1073,-332.5 1073,-297.5 790,-297.5"/>
<text text-anchor="start" x="801.7037" y="-310.3" font-family="Arial Bold" font-size="18.00" fill="#000000">public.m_groups</text>
<text text-anchor="start" x="933.7283" y="-310.3" font-family="Arial" font-size="14.00" fill="#000000">    </text>
<text text-anchor="start" x="967.9331" y="-310.3" font-family="Arial" font-size="14.00" fill="#666666">[BASE TABLE]</text>
<polygon fill="none" stroke="#000000" points="790,-267.5 790,-297.5 1073,-297.5 1073,-267.5 790,-267.5"/>
<text text-anchor="start" x="797" y="-278.9" font-family="Arial" font-size="14.00" fill="#000000">id    </text>
<text text-anchor="start" x="842.094" y="-278.9" font-family="Arial" font-size="14.00" fill="#666666">[uuid]</text>
<polygon fill="none" stroke="#000000" points="790,-237.5 790,-267.5 1073,-267.5 1073,-237.5 790,-237.5"/>
<text text-anchor="start" x="797" y="-248.9" font-family="Arial" font-size="14.00" fill="#000000">name    </text>
<text text-anchor="start" x="866.2132" y="-248.9" font-family="Arial" font-size="14.00" fill="#666666">[varchar(255)]</text>
<polygon fill="none" stroke="#000000" points="790,-207.5 790,-237.5 1073,-237.5 1073,-207.5 790,-207.5"/>
<text text-anchor="start" x="797" y="-218.9" font-family="Arial" font-size="14.00" fill="#000000">is_open    </text>
<text text-anchor="start" x="880.2244" y="-218.9" font-family="Arial" font-size="14.00" fill="#666666">[boolean]</text>
<polygon fill="none" stroke="#000000" points="790,-177.5 790,-207.5 1073,-207.5 1073,-177.5 790,-177.5"/>
<text text-anchor="start" x="797" y="-188.9" font-family="Arial" font-size="14.00" fill="#000000">is_primitive    </text>
<text text-anchor="start" x="901.1908" y="-188.9" font-family="Arial" font-size="14.00" fill="#666666">[boolean]</text>
<polygon fill="none" stroke="#000000" points="790,-147.5 790,-177.5 1073,-177.5 1073,-147.5 790,-147.5"/>
<text text-anchor="start" x="797" y="-158.9" font-family="Arial" font-size="14.00" fill="#000000">is_personal    </text>
<text text-anchor="start" x="902.7742" y="-158.9" font-family="Arial" font-size="14.00" fill="#666666">[boolean]</text>
<polygon fill="none" stroke="#000000" points="790,-117.5 790,-147.5 1073,-147.5 1073,-117.5 790,-117.5"/>
<text text-anchor="start" x="797" y="-128.9" font-family="Arial" font-size="14.00" fill="#000000">created_by    </text>
<text text-anchor="start" x="900.4516" y="-128.9" font-family="Arial" font-size="14.00" fill="#666666">[uuid]</text>
<polygon fill="none" stroke="#000000" points="790,-87.5 790,-117.5 1073,-117.5 1073,-87.5 790,-87.5"/>
<text text-anchor="start" x="797" y="-98.9" font-family="Arial" font-size="14.00" fill="#000000">created_at    </text>
<text text-anchor="start" x="897.3422" y="-98.9" font-family="Arial" font-size="14.00" fill="#666666">[timestamp with time zone]</text>
<polygon fill="none" stroke="#000000" points="790,-57.5 790,-87.5 1073,-87.5 1073,-57.5 790,-57.5"/>
<text text-anchor="start" x="796.5344" y="-68.9" font-family="Arial" font-size="14.00" fill="#000000">updated_at    </text>
<text text-anchor="start" x="900.7812" y="-68.9" font-family="Arial" font-size="14.00" fill="#666666">[timestamp with time zone]</text>
</g>
<!-- public.t_user_group&#45;&gt;public.m_groups -->
<g id="edge3" class="edge">
<title>public.t_user_group:group_id&#45;&gt;public.m_groups:id</title>
<path fill="none" stroke="#000000" d="M882.1228,-546.4421C921.69,-537.2707 896.1844,-470.5219 872,-427 851.1534,-389.4847 810.8466,-413.5153 790,-376 769.8153,-339.6759 748.4444,-282.5 790,-282.5"/>
<polygon fill="#000000" stroke="#000000" points="881.9458,-546.4605 871.5322,-543.0244 876.9729,-546.9802 872,-547.5 872,-547.5 872,-547.5 876.9729,-546.9802 872.4678,-551.9756 881.9458,-546.4605 881.9458,-546.4605"/>
<text text-anchor="start" x="878.8805" y="-557.5" font-family="Arial" font-size="10.00" fill="#000000">FOREIGN KEY (group_id) REFERENCES m_groups(id) ON UPDATE CASCADE ON DELETE CASCADE</text>
</g>
<!-- public.t_user_group_permission -->
<g id="node2" class="node">
<title>public.t_user_group_permission</title>
<polygon fill="#efefef" stroke="transparent" points="525,-902.5 525,-937.5 921,-937.5 921,-902.5 525,-902.5"/>
<polygon fill="none" stroke="#000000" points="525,-902.5 525,-937.5 921,-937.5 921,-902.5 525,-902.5"/>
<text text-anchor="start" x="531.6914" y="-915.3" font-family="Arial Bold" font-size="18.00" fill="#000000">public.t_user_group_permission</text>
<text text-anchor="start" x="786.7406" y="-915.3" font-family="Arial" font-size="14.00" fill="#000000">    </text>
<text text-anchor="start" x="820.9454" y="-915.3" font-family="Arial" font-size="14.00" fill="#666666">[BASE TABLE]</text>
<polygon fill="none" stroke="#000000" points="525,-872.5 525,-902.5 921,-902.5 921,-872.5 525,-872.5"/>
<text text-anchor="start" x="532" y="-883.9" font-family="Arial" font-size="14.00" fill="#000000">user_group_id    </text>
<text text-anchor="start" x="655.676" y="-883.9" font-family="Arial" font-size="14.00" fill="#666666">[integer]</text>
<polygon fill="none" stroke="#000000" points="525,-842.5 525,-872.5 921,-872.5 921,-842.5 525,-842.5"/>
<text text-anchor="start" x="532" y="-853.9" font-family="Arial" font-size="14.00" fill="#000000">permission_id    </text>
<text text-anchor="start" x="652.5414" y="-853.9" font-family="Arial" font-size="14.00" fill="#666666">[uuid]</text>
<polygon fill="none" stroke="#000000" points="525,-812.5 525,-842.5 921,-842.5 921,-812.5 525,-812.5"/>
<text text-anchor="start" x="532" y="-823.9" font-family="Arial" font-size="14.00" fill="#000000">attached_by    </text>
<text text-anchor="start" x="642.4642" y="-823.9" font-family="Arial" font-size="14.00" fill="#666666">[uuid]</text>
<polygon fill="none" stroke="#000000" points="525,-782.5 525,-812.5 921,-812.5 921,-782.5 525,-782.5"/>
<text text-anchor="start" x="532" y="-793.9" font-family="Arial" font-size="14.00" fill="#000000">attached_at    </text>
<text text-anchor="start" x="639.3548" y="-793.9" font-family="Arial" font-size="14.00" fill="#666666">[timestamp with time zone]</text>
</g>
<!-- public.t_user_group_permission&#45;&gt;public.t_user_group -->
<g id="edge1" class="edge">
<title>public.t_user_group_permission:user_group_id&#45;&gt;public.t_user_group:id</title>
<path fill="none" stroke="#000000" d="M515.0167,-886.6378C461.8798,-876.8423 483.5027,-786.0252 525,-740 576.913,-682.4226 820.087,-761.5774 872,-704 900.7197,-672.1466 914.8889,-607.5 872,-607.5"/>
<polygon fill="#000000" stroke="#000000" points="515.0371,-886.6395 524.6128,-891.9833 520.0185,-887.0697 525,-887.5 525,-887.5 525,-887.5 520.0185,-887.0697 525.3872,-883.0167 515.0371,-886.6395 515.0371,-886.6395"/>
<text text-anchor="start" x="7.1495" y="-897.5" font-family="Arial" font-size="10.00" fill="#000000">FOREIGN KEY (user_group_id) REFERENCES t_user_group(id) ON UPDATE CASCADE ON DELETE CASCADE</text>
</g>
</g>
</svg>
