<?xml version="1.0" encoding="UTF-8" standalone="no"?>
<!DOCTYPE svg PUBLIC "-//W3C//DTD SVG 1.1//EN"
 "http://www.w3.org/Graphics/SVG/1.1/DTD/svg11.dtd">
<!-- Generated by graphviz version 2.40.1 (20161225.0304)
 -->
<!-- Title: public.m_channels Pages: 1 -->
<svg width="1343pt" height="1139pt"
 viewBox="0.00 0.00 1343.00 1139.00" xmlns="http://www.w3.org/2000/svg" xmlns:xlink="http://www.w3.org/1999/xlink">
<g id="graph0" class="graph" transform="scale(1 1) rotate(0) translate(4 1135)">
<title>public.m_channels</title>
<polygon fill="#ffffff" stroke="transparent" points="-4,4 -4,-1135 1339,-1135 1339,4 -4,4"/>
<!-- public.m_channels -->
<g id="node1" class="node">
<title>public.m_channels</title>
<polygon fill="#efefef" stroke="transparent" points="549,-742.5 549,-777.5 843,-777.5 843,-742.5 549,-742.5"/>
<polygon fill="none" stroke="#000000" points="549,-742.5 549,-777.5 843,-777.5 843,-742.5 549,-742.5"/>
<text text-anchor="start" x="557.6996" y="-755.3" font-family="Arial Bold" font-size="18.00" fill="#000000">public.m_channels</text>
<text text-anchor="start" x="706.7324" y="-755.3" font-family="Arial" font-size="14.00" fill="#000000">    </text>
<text text-anchor="start" x="740.9372" y="-755.3" font-family="Arial" font-size="14.00" fill="#666666">[BASE TABLE]</text>
<polygon fill="none" stroke="#000000" points="549,-712.5 549,-742.5 843,-742.5 843,-712.5 549,-712.5"/>
<text text-anchor="start" x="556" y="-723.9" font-family="Arial" font-size="14.00" fill="#000000">id </text>
<text text-anchor="start" x="570.7798" y="-723.9" font-family="Arial" font-size="14.00" fill="#666666">[uuid]</text>
<polygon fill="none" stroke="#000000" points="549,-682.5 549,-712.5 843,-712.5 843,-682.5 549,-682.5"/>
<text text-anchor="start" x="556" y="-693.9" font-family="Arial" font-size="14.00" fill="#000000">name </text>
<text text-anchor="start" x="594.899" y="-693.9" font-family="Arial" font-size="14.00" fill="#666666">[varchar(255)]</text>
<polygon fill="none" stroke="#000000" points="549,-652.5 549,-682.5 843,-682.5 843,-652.5 549,-652.5"/>
<text text-anchor="start" x="556" y="-663.9" font-family="Arial" font-size="14.00" fill="#000000">admin_group_id </text>
<text text-anchor="start" x="660.251" y="-663.9" font-family="Arial" font-size="14.00" fill="#666666">[uuid]</text>
<polygon fill="none" stroke="#000000" points="549,-622.5 549,-652.5 843,-652.5 843,-622.5 549,-622.5"/>
<text text-anchor="start" x="556" y="-633.9" font-family="Arial" font-size="14.00" fill="#000000">connectable_group_id </text>
<text text-anchor="start" x="697.6114" y="-633.9" font-family="Arial" font-size="14.00" fill="#666666">[uuid]</text>
<polygon fill="none" stroke="#000000" points="549,-592.5 549,-622.5 843,-622.5 843,-592.5 549,-592.5"/>
<text text-anchor="start" x="555.587" y="-603.9" font-family="Arial" font-size="14.00" fill="#000000">last_activity_at </text>
<text text-anchor="start" x="651.2728" y="-603.9" font-family="Arial" font-size="14.00" fill="#666666">[timestamp without time zone]</text>
<polygon fill="none" stroke="#000000" points="549,-562.5 549,-592.5 843,-592.5 843,-562.5 549,-562.5"/>
<text text-anchor="start" x="556" y="-573.9" font-family="Arial" font-size="14.00" fill="#000000">created_by </text>
<text text-anchor="start" x="629.1374" y="-573.9" font-family="Arial" font-size="14.00" fill="#666666">[uuid]</text>
<polygon fill="none" stroke="#000000" points="549,-532.5 549,-562.5 843,-562.5 843,-532.5 549,-532.5"/>
<text text-anchor="start" x="556" y="-543.9" font-family="Arial" font-size="14.00" fill="#000000">updated_by </text>
<text text-anchor="start" x="633.042" y="-543.9" font-family="Arial" font-size="14.00" fill="#666666">[uuid]</text>
<polygon fill="none" stroke="#000000" points="549,-502.5 549,-532.5 843,-532.5 843,-502.5 549,-502.5"/>
<text text-anchor="start" x="556" y="-513.9" font-family="Arial" font-size="14.00" fill="#000000">created_at </text>
<text text-anchor="start" x="626.028" y="-513.9" font-family="Arial" font-size="14.00" fill="#666666">[timestamp with time zone]</text>
<polygon fill="none" stroke="#000000" points="549,-472.5 549,-502.5 843,-502.5 843,-472.5 549,-472.5"/>
<text text-anchor="start" x="556" y="-483.9" font-family="Arial" font-size="14.00" fill="#000000">updated_at </text>
<text text-anchor="start" x="629.9326" y="-483.9" font-family="Arial" font-size="14.00" fill="#666666">[timestamp with time zone]</text>
<polygon fill="none" stroke="#000000" stroke-width="3" points="547.5,-471.5 547.5,-779.5 844.5,-779.5 844.5,-471.5 547.5,-471.5"/>
</g>
<!-- public.m_groups -->
<g id="node4" class="node">
<title>public.m_groups</title>
<polygon fill="#efefef" stroke="transparent" points="346,-297.5 346,-332.5 629,-332.5 629,-297.5 346,-297.5"/>
<polygon fill="none" stroke="#000000" points="346,-297.5 346,-332.5 629,-332.5 629,-297.5 346,-297.5"/>
<text text-anchor="start" x="357.7037" y="-310.3" font-family="Arial Bold" font-size="18.00" fill="#000000">public.m_groups</text>
<text text-anchor="start" x="489.7283" y="-310.3" font-family="Arial" font-size="14.00" fill="#000000">    </text>
<text text-anchor="start" x="523.9331" y="-310.3" font-family="Arial" font-size="14.00" fill="#666666">[BASE TABLE]</text>
<polygon fill="none" stroke="#000000" points="346,-267.5 346,-297.5 629,-297.5 629,-267.5 346,-267.5"/>
<text text-anchor="start" x="353" y="-278.9" font-family="Arial" font-size="14.00" fill="#000000">id    </text>
<text text-anchor="start" x="398.094" y="-278.9" font-family="Arial" font-size="14.00" fill="#666666">[uuid]</text>
<polygon fill="none" stroke="#000000" points="346,-237.5 346,-267.5 629,-267.5 629,-237.5 346,-237.5"/>
<text text-anchor="start" x="353" y="-248.9" font-family="Arial" font-size="14.00" fill="#000000">name    </text>
<text text-anchor="start" x="422.2132" y="-248.9" font-family="Arial" font-size="14.00" fill="#666666">[varchar(255)]</text>
<polygon fill="none" stroke="#000000" points="346,-207.5 346,-237.5 629,-237.5 629,-207.5 346,-207.5"/>
<text text-anchor="start" x="353" y="-218.9" font-family="Arial" font-size="14.00" fill="#000000">is_open    </text>
<text text-anchor="start" x="436.2244" y="-218.9" font-family="Arial" font-size="14.00" fill="#666666">[boolean]</text>
<polygon fill="none" stroke="#000000" points="346,-177.5 346,-207.5 629,-207.5 629,-177.5 346,-177.5"/>
<text text-anchor="start" x="353" y="-188.9" font-family="Arial" font-size="14.00" fill="#000000">is_primitive    </text>
<text text-anchor="start" x="457.1908" y="-188.9" font-family="Arial" font-size="14.00" fill="#666666">[boolean]</text>
<polygon fill="none" stroke="#000000" points="346,-147.5 346,-177.5 629,-177.5 629,-147.5 346,-147.5"/>
<text text-anchor="start" x="353" y="-158.9" font-family="Arial" font-size="14.00" fill="#000000">is_personal    </text>
<text text-anchor="start" x="458.7742" y="-158.9" font-family="Arial" font-size="14.00" fill="#666666">[boolean]</text>
<polygon fill="none" stroke="#000000" points="346,-117.5 346,-147.5 629,-147.5 629,-117.5 346,-117.5"/>
<text text-anchor="start" x="353" y="-128.9" font-family="Arial" font-size="14.00" fill="#000000">created_by    </text>
<text text-anchor="start" x="456.4516" y="-128.9" font-family="Arial" font-size="14.00" fill="#666666">[uuid]</text>
<polygon fill="none" stroke="#000000" points="346,-87.5 346,-117.5 629,-117.5 629,-87.5 346,-87.5"/>
<text text-anchor="start" x="353" y="-98.9" font-family="Arial" font-size="14.00" fill="#000000">created_at    </text>
<text text-anchor="start" x="453.3422" y="-98.9" font-family="Arial" font-size="14.00" fill="#666666">[timestamp with time zone]</text>
<polygon fill="none" stroke="#000000" points="346,-57.5 346,-87.5 629,-87.5 629,-57.5 346,-57.5"/>
<text text-anchor="start" x="352.5344" y="-68.9" font-family="Arial" font-size="14.00" fill="#000000">updated_at    </text>
<text text-anchor="start" x="456.7812" y="-68.9" font-family="Arial" font-size="14.00" fill="#666666">[timestamp with time zone]</text>
</g>
<!-- public.m_channels&#45;&gt;public.m_groups -->
<g id="edge3" class="edge">
<title>public.m_channels:admin_group_id&#45;&gt;public.m_groups:id</title>
<path fill="none" stroke="#000000" d="M538.8838,-667.0219C445.7915,-657.8114 499.3085,-517.6084 549,-427 569.2757,-390.0288 608.7243,-412.9712 629,-376 648.9822,-339.5641 670.5556,-282.5 629,-282.5"/>
<polygon fill="#000000" stroke="#000000" points="539.0112,-667.0278 548.7875,-671.995 544.0056,-667.2639 549,-667.5 549,-667.5 549,-667.5 544.0056,-667.2639 549.2125,-663.005 539.0112,-667.0278 539.0112,-667.0278"/>
<text text-anchor="start" x="33.8295" y="-677.5" font-family="Arial" font-size="10.00" fill="#000000">FOREIGN KEY (admin_group_id) REFERENCES m_groups(id) ON UPDATE RESTRICT ON DELETE RESTRICT</text>
</g>
<!-- public.m_channels&#45;&gt;public.m_groups -->
<g id="edge4" class="edge">
<title>public.m_channels:connectable_group_id&#45;&gt;public.m_groups:id</title>
<path fill="none" stroke="#000000" d="M538.6784,-636.9223C459.2334,-627.5341 505.7707,-505.8253 549,-427 569.2757,-390.0288 608.7243,-412.9712 629,-376 648.9822,-339.5641 670.5556,-282.5 629,-282.5"/>
<polygon fill="#000000" stroke="#000000" points="539.0156,-636.9411 548.7485,-641.993 544.0078,-637.2206 549,-637.5 549,-637.5 549,-637.5 544.0078,-637.2206 549.2515,-633.007 539.0156,-636.9411 539.0156,-636.9411"/>
<text text-anchor="start" x="7.4865" y="-647.5" font-family="Arial" font-size="10.00" fill="#000000">FOREIGN KEY (connectable_group_id) REFERENCES m_groups(id) ON UPDATE RESTRICT ON DELETE RESTRICT</text>
</g>
<!-- public.m_users -->
<g id="node5" class="node">
<title>public.m_users</title>
<polygon fill="#efefef" stroke="transparent" points="733,-312.5 733,-347.5 1076,-347.5 1076,-312.5 733,-312.5"/>
<polygon fill="none" stroke="#000000" points="733,-312.5 733,-347.5 1076,-347.5 1076,-312.5 733,-312.5"/>
<text text-anchor="start" x="780.2099" y="-325.3" font-family="Arial Bold" font-size="18.00" fill="#000000">public.m_users</text>
<text text-anchor="start" x="901.2221" y="-325.3" font-family="Arial" font-size="14.00" fill="#000000">    </text>
<text text-anchor="start" x="935.4269" y="-325.3" font-family="Arial" font-size="14.00" fill="#666666">[BASE TABLE]</text>
<polygon fill="none" stroke="#000000" points="733,-282.5 733,-312.5 1076,-312.5 1076,-282.5 733,-282.5"/>
<text text-anchor="start" x="740" y="-293.9" font-family="Arial" font-size="14.00" fill="#000000">id    </text>
<text text-anchor="start" x="785.094" y="-293.9" font-family="Arial" font-size="14.00" fill="#666666">[uuid]</text>
<polygon fill="none" stroke="#000000" points="733,-252.5 733,-282.5 1076,-282.5 1076,-252.5 733,-252.5"/>
<text text-anchor="start" x="740" y="-263.9" font-family="Arial" font-size="14.00" fill="#000000">login_id    </text>
<text text-anchor="start" x="822.4376" y="-263.9" font-family="Arial" font-size="14.00" fill="#666666">[varchar(255)]</text>
<polygon fill="none" stroke="#000000" points="733,-222.5 733,-252.5 1076,-252.5 1076,-222.5 733,-222.5"/>
<text text-anchor="start" x="740" y="-233.9" font-family="Arial" font-size="14.00" fill="#000000">password    </text>
<text text-anchor="start" x="834.1024" y="-233.9" font-family="Arial" font-size="14.00" fill="#666666">[varchar(255)]</text>
<polygon fill="none" stroke="#000000" points="733,-192.5 733,-222.5 1076,-222.5 1076,-192.5 733,-192.5"/>
<text text-anchor="start" x="740" y="-203.9" font-family="Arial" font-size="14.00" fill="#000000">name    </text>
<text text-anchor="start" x="809.2132" y="-203.9" font-family="Arial" font-size="14.00" fill="#666666">[varchar(255)]</text>
<polygon fill="none" stroke="#000000" points="733,-162.5 733,-192.5 1076,-192.5 1076,-162.5 733,-162.5"/>
<text text-anchor="start" x="739.9727" y="-173.9" font-family="Arial" font-size="14.00" fill="#000000">last_logged_in_at    </text>
<text text-anchor="start" x="883.8871" y="-173.9" font-family="Arial" font-size="14.00" fill="#666666">[timestamp without time zone]</text>
<polygon fill="none" stroke="#000000" points="733,-132.5 733,-162.5 1076,-162.5 1076,-132.5 733,-132.5"/>
<text text-anchor="start" x="740" y="-143.9" font-family="Arial" font-size="14.00" fill="#000000">created_by    </text>
<text text-anchor="start" x="843.4516" y="-143.9" font-family="Arial" font-size="14.00" fill="#666666">[uuid]</text>
<polygon fill="none" stroke="#000000" points="733,-102.5 733,-132.5 1076,-132.5 1076,-102.5 733,-102.5"/>
<text text-anchor="start" x="740" y="-113.9" font-family="Arial" font-size="14.00" fill="#000000">from_system    </text>
<text text-anchor="start" x="854.3156" y="-113.9" font-family="Arial" font-size="14.00" fill="#666666">[boolean]</text>
<polygon fill="none" stroke="#000000" points="733,-72.5 733,-102.5 1076,-102.5 1076,-72.5 733,-72.5"/>
<text text-anchor="start" x="740" y="-83.9" font-family="Arial" font-size="14.00" fill="#000000">created_at    </text>
<text text-anchor="start" x="840.3422" y="-83.9" font-family="Arial" font-size="14.00" fill="#666666">[timestamp with time zone]</text>
<polygon fill="none" stroke="#000000" points="733,-42.5 733,-72.5 1076,-72.5 1076,-42.5 733,-42.5"/>
<text text-anchor="start" x="740" y="-53.9" font-family="Arial" font-size="14.00" fill="#000000">updated_at    </text>
<text text-anchor="start" x="844.2468" y="-53.9" font-family="Arial" font-size="14.00" fill="#666666">[timestamp with time zone]</text>
</g>
<!-- public.m_channels&#45;&gt;public.m_users -->
<g id="edge5" class="edge">
<title>public.m_channels:created_by&#45;&gt;public.m_users:id</title>
<path fill="none" stroke="#000000" d="M853.1395,-576.6582C906.8321,-567.0886 880.1118,-478.1944 843,-427 812.8083,-385.3516 763.1917,-432.6484 733,-391 708.61,-357.3549 691.4444,-297.5 733,-297.5"/>
<polygon fill="#000000" stroke="#000000" points="852.9657,-576.6726 842.6277,-573.0154 847.9829,-577.0863 843,-577.5 843,-577.5 843,-577.5 847.9829,-577.0863 843.3723,-581.9846 852.9657,-576.6726 852.9657,-576.6726"/>
<text text-anchor="start" x="850.2105" y="-587.5" font-family="Arial" font-size="10.00" fill="#000000">FOREIGN KEY (created_by) REFERENCES m_users(id) ON UPDATE SET NULL ON DELETE SET NULL</text>
</g>
<!-- public.m_channels&#45;&gt;public.m_users -->
<g id="edge6" class="edge">
<title>public.m_channels:updated_by&#45;&gt;public.m_users:id</title>
<path fill="none" stroke="#000000" d="M853.1975,-546.3945C893.3986,-536.8193 872.2229,-467.312 843,-427 812.8083,-385.3516 763.1917,-432.6484 733,-391 708.61,-357.3549 691.4444,-297.5 733,-297.5"/>
<polygon fill="#000000" stroke="#000000" points="852.9417,-546.4221 842.5149,-543.0262 847.9709,-546.9611 843,-547.5 843,-547.5 843,-547.5 847.9709,-546.9611 843.4851,-551.9738 852.9417,-546.4221 852.9417,-546.4221"/>
<text text-anchor="start" x="849.816" y="-557.5" font-family="Arial" font-size="10.00" fill="#000000">FOREIGN KEY (updated_by) REFERENCES m_users(id) ON UPDATE SET NULL ON DELETE SET NULL</text>
</g>
<!-- public.t_user_channel -->
<g id="node2" class="node">
<title>public.t_user_channel</title>
<polygon fill="#efefef" stroke="transparent" points="338,-1037.5 338,-1072.5 654,-1072.5 654,-1037.5 338,-1037.5"/>
<polygon fill="none" stroke="#000000" points="338,-1037.5 338,-1072.5 654,-1072.5 654,-1037.5 338,-1037.5"/>
<text text-anchor="start" x="344.6892" y="-1050.3" font-family="Arial Bold" font-size="18.00" fill="#000000">public.t_user_channel</text>
<text text-anchor="start" x="519.7428" y="-1050.3" font-family="Arial" font-size="14.00" fill="#000000">    </text>
<text text-anchor="start" x="553.9476" y="-1050.3" font-family="Arial" font-size="14.00" fill="#666666">[BASE TABLE]</text>
<polygon fill="none" stroke="#000000" points="338,-1007.5 338,-1037.5 654,-1037.5 654,-1007.5 338,-1007.5"/>
<text text-anchor="start" x="345" y="-1018.9" font-family="Arial" font-size="14.00" fill="#000000">user_id    </text>
<text text-anchor="start" x="425.1024" y="-1018.9" font-family="Arial" font-size="14.00" fill="#666666">[uuid]</text>
<polygon fill="none" stroke="#000000" points="338,-977.5 338,-1007.5 654,-1007.5 654,-977.5 338,-977.5"/>
<text text-anchor="start" x="345" y="-988.9" font-family="Arial" font-size="14.00" fill="#000000">channel_id    </text>
<text text-anchor="start" x="446.8962" y="-988.9" font-family="Arial" font-size="14.00" fill="#666666">[uuid]</text>
<polygon fill="none" stroke="#000000" points="338,-947.5 338,-977.5 654,-977.5 654,-947.5 338,-947.5"/>
<text text-anchor="start" x="345" y="-958.9" font-family="Arial" font-size="14.00" fill="#000000">connected_at    </text>
<text text-anchor="start" x="463.2468" y="-958.9" font-family="Arial" font-size="14.00" fill="#666666">[timestamp with time zone]</text>
<polygon fill="none" stroke="#000000" points="338,-917.5 338,-947.5 654,-947.5 654,-917.5 338,-917.5"/>
<text text-anchor="start" x="345" y="-928.9" font-family="Arial" font-size="14.00" fill="#000000">disconnected_at    </text>
<text text-anchor="start" x="481.136" y="-928.9" font-family="Arial" font-size="14.00" fill="#666666">[timestamp with time zone]</text>
</g>
<!-- public.t_user_channel&#45;&gt;public.m_channels -->
<g id="edge1" class="edge">
<title>public.t_user_channel:channel_id&#45;&gt;public.m_channels:id</title>
<path fill="none" stroke="#000000" d="M664.3896,-991.3315C702.566,-981.7887 679.6531,-915.9791 654,-875 626.4718,-831.0255 576.5282,-867.9745 549,-824 526.2427,-787.6467 506.1111,-727.5 549,-727.5"/>
<polygon fill="#000000" stroke="#000000" points="663.9374,-991.3823 653.497,-988.0282 658.9687,-991.9412 654,-992.5 654,-992.5 654,-992.5 658.9687,-991.9412 654.503,-996.9718 663.9374,-991.3823 663.9374,-991.3823"/>
<text text-anchor="start" x="156.4315" y="-1002.5" font-family="Arial" font-size="10.00" fill="#000000">FOREIGN KEY (channel_id) REFERENCES m_channels(id) ON UPDATE CASCADE ON DELETE CASCADE</text>
</g>
<!-- public.t_chats -->
<g id="node3" class="node">
<title>public.t_chats</title>
<polygon fill="#efefef" stroke="transparent" points="759,-1052.5 759,-1087.5 1034,-1087.5 1034,-1052.5 759,-1052.5"/>
<polygon fill="none" stroke="#000000" points="759,-1052.5 759,-1087.5 1034,-1087.5 1034,-1052.5 759,-1052.5"/>
<text text-anchor="start" x="777.6999" y="-1065.3" font-family="Arial Bold" font-size="18.00" fill="#000000">public.t_chats</text>
<text text-anchor="start" x="887.7321" y="-1065.3" font-family="Arial" font-size="14.00" fill="#000000">    </text>
<text text-anchor="start" x="921.9369" y="-1065.3" font-family="Arial" font-size="14.00" fill="#666666">[BASE TABLE]</text>
<polygon fill="none" stroke="#000000" points="759,-1022.5 759,-1052.5 1034,-1052.5 1034,-1022.5 759,-1022.5"/>
<text text-anchor="start" x="766" y="-1033.9" font-family="Arial" font-size="14.00" fill="#000000">id    </text>
<text text-anchor="start" x="811.094" y="-1033.9" font-family="Arial" font-size="14.00" fill="#666666">[uuid]</text>
<polygon fill="none" stroke="#000000" points="759,-992.5 759,-1022.5 1034,-1022.5 1034,-992.5 759,-992.5"/>
<text text-anchor="start" x="766" y="-1003.9" font-family="Arial" font-size="14.00" fill="#000000">content    </text>
<text text-anchor="start" x="846.1164" y="-1003.9" font-family="Arial" font-size="14.00" fill="#666666">[text]</text>
<polygon fill="none" stroke="#000000" points="759,-962.5 759,-992.5 1034,-992.5 1034,-962.5 759,-962.5"/>
<text text-anchor="start" x="766" y="-973.9" font-family="Arial" font-size="14.00" fill="#000000">channel_id    </text>
<text text-anchor="start" x="867.8962" y="-973.9" font-family="Arial" font-size="14.00" fill="#666666">[uuid]</text>
<polygon fill="none" stroke="#000000" points="759,-932.5 759,-962.5 1034,-962.5 1034,-932.5 759,-932.5"/>
<text text-anchor="start" x="766" y="-943.9" font-family="Arial" font-size="14.00" fill="#000000">user_id    </text>
<text text-anchor="start" x="846.1024" y="-943.9" font-family="Arial" font-size="14.00" fill="#666666">[uuid]</text>
<polygon fill="none" stroke="#000000" points="759,-902.5 759,-932.5 1034,-932.5 1034,-902.5 759,-902.5"/>
<text text-anchor="start" x="765.817" y="-913.9" font-family="Arial" font-size="14.00" fill="#000000">posted_at    </text>
<text text-anchor="start" x="861.4986" y="-913.9" font-family="Arial" font-size="14.00" fill="#666666">[timestamp with time zone]</text>
</g>
<!-- public.t_chats&#45;&gt;public.m_channels -->
<g id="edge2" class="edge">
<title>public.t_chats:channel_id&#45;&gt;public.m_channels:id</title>
<path fill="none" stroke="#000000" d="M748.5945,-976.3213C710.2913,-966.697 732.3858,-900.3615 759,-860 781.3595,-826.0909 820.6405,-857.9091 843,-824 866.6099,-788.1946 885.8889,-727.5 843,-727.5"/>
<polygon fill="#000000" stroke="#000000" points="749.0635,-976.3744 758.4935,-981.9714 754.0318,-976.9372 759,-977.5 759,-977.5 759,-977.5 754.0318,-976.9372 759.5065,-973.0286 749.0635,-976.3744 749.0635,-976.3744"/>
<text text-anchor="start" x="766.4315" y="-987.5" font-family="Arial" font-size="10.00" fill="#000000">FOREIGN KEY (channel_id) REFERENCES m_channels(id) ON UPDATE CASCADE ON DELETE CASCADE</text>
</g>
</g>
</svg>
