<?xml version="1.0" encoding="UTF-8" standalone="no"?>
<!DOCTYPE svg PUBLIC "-//W3C//DTD SVG 1.1//EN"
 "http://www.w3.org/Graphics/SVG/1.1/DTD/svg11.dtd">
<!-- Generated by graphviz version 2.40.1 (20161225.0304)
 -->
<!-- Title: public.t_user_role Pages: 1 -->
<svg width="1253pt" height="712pt"
 viewBox="0.00 0.00 1253.00 712.00" xmlns="http://www.w3.org/2000/svg" xmlns:xlink="http://www.w3.org/1999/xlink">
<g id="graph0" class="graph" transform="scale(1 1) rotate(0) translate(4 708)">
<title>public.t_user_role</title>
<polygon fill="#ffffff" stroke="transparent" points="-4,4 -4,-708 1249,-708 1249,4 -4,4"/>
<!-- public.t_user_role -->
<g id="node1" class="node">
<title>public.t_user_role</title>
<polygon fill="#efefef" stroke="transparent" points="494,-622.5 494,-657.5 777,-657.5 777,-622.5 494,-622.5"/>
<polygon fill="none" stroke="#000000" points="494,-622.5 494,-657.5 777,-657.5 777,-622.5 494,-622.5"/>
<text text-anchor="start" x="500.7024" y="-635.3" font-family="Arial Bold" font-size="18.00" fill="#000000">public.t_user_role</text>
<text text-anchor="start" x="642.7296" y="-635.3" font-family="Arial" font-size="14.00" fill="#000000">    </text>
<text text-anchor="start" x="676.9344" y="-635.3" font-family="Arial" font-size="14.00" fill="#666666">[BASE TABLE]</text>
<polygon fill="none" stroke="#000000" points="494,-592.5 494,-622.5 777,-622.5 777,-592.5 494,-592.5"/>
<text text-anchor="start" x="501" y="-603.9" font-family="Arial" font-size="14.00" fill="#000000">user_id </text>
<text text-anchor="start" x="550.7882" y="-603.9" font-family="Arial" font-size="14.00" fill="#666666">[uuid]</text>
<polygon fill="none" stroke="#000000" points="494,-562.5 494,-592.5 777,-592.5 777,-562.5 494,-562.5"/>
<text text-anchor="start" x="501" y="-573.9" font-family="Arial" font-size="14.00" fill="#000000">role_id </text>
<text text-anchor="start" x="546.8948" y="-573.9" font-family="Arial" font-size="14.00" fill="#666666">[uuid]</text>
<polygon fill="none" stroke="#000000" points="494,-532.5 494,-562.5 777,-562.5 777,-532.5 494,-532.5"/>
<text text-anchor="start" x="501" y="-543.9" font-family="Arial" font-size="14.00" fill="#000000">attached_by </text>
<text text-anchor="start" x="581.15" y="-543.9" font-family="Arial" font-size="14.00" fill="#666666">[uuid]</text>
<polygon fill="none" stroke="#000000" points="494,-502.5 494,-532.5 777,-532.5 777,-502.5 494,-502.5"/>
<text text-anchor="start" x="501" y="-513.9" font-family="Arial" font-size="14.00" fill="#000000">from_system </text>
<text text-anchor="start" x="585.0014" y="-513.9" font-family="Arial" font-size="14.00" fill="#666666">[boolean]</text>
<polygon fill="none" stroke="#000000" points="494,-472.5 494,-502.5 777,-502.5 777,-472.5 494,-472.5"/>
<text text-anchor="start" x="501" y="-483.9" font-family="Arial" font-size="14.00" fill="#000000">attached_at </text>
<text text-anchor="start" x="578.0406" y="-483.9" font-family="Arial" font-size="14.00" fill="#666666">[timestamp with time zone]</text>
<polygon fill="none" stroke="#000000" stroke-width="3" points="492,-471.5 492,-659.5 778,-659.5 778,-471.5 492,-471.5"/>
</g>
<!-- public.m_users -->
<g id="node2" class="node">
<title>public.m_users</title>
<polygon fill="#efefef" stroke="transparent" points="464,-312.5 464,-347.5 807,-347.5 807,-312.5 464,-312.5"/>
<polygon fill="none" stroke="#000000" points="464,-312.5 464,-347.5 807,-347.5 807,-312.5 464,-312.5"/>
<text text-anchor="start" x="511.2099" y="-325.3" font-family="Arial Bold" font-size="18.00" fill="#000000">public.m_users</text>
<text text-anchor="start" x="632.2221" y="-325.3" font-family="Arial" font-size="14.00" fill="#000000">    </text>
<text text-anchor="start" x="666.4269" y="-325.3" font-family="Arial" font-size="14.00" fill="#666666">[BASE TABLE]</text>
<polygon fill="none" stroke="#000000" points="464,-282.5 464,-312.5 807,-312.5 807,-282.5 464,-282.5"/>
<text text-anchor="start" x="471" y="-293.9" font-family="Arial" font-size="14.00" fill="#000000">id    </text>
<text text-anchor="start" x="516.094" y="-293.9" font-family="Arial" font-size="14.00" fill="#666666">[uuid]</text>
<polygon fill="none" stroke="#000000" points="464,-252.5 464,-282.5 807,-282.5 807,-252.5 464,-252.5"/>
<text text-anchor="start" x="471" y="-263.9" font-family="Arial" font-size="14.00" fill="#000000">login_id    </text>
<text text-anchor="start" x="553.4376" y="-263.9" font-family="Arial" font-size="14.00" fill="#666666">[varchar(255)]</text>
<polygon fill="none" stroke="#000000" points="464,-222.5 464,-252.5 807,-252.5 807,-222.5 464,-222.5"/>
<text text-anchor="start" x="471" y="-233.9" font-family="Arial" font-size="14.00" fill="#000000">password    </text>
<text text-anchor="start" x="565.1024" y="-233.9" font-family="Arial" font-size="14.00" fill="#666666">[varchar(255)]</text>
<polygon fill="none" stroke="#000000" points="464,-192.5 464,-222.5 807,-222.5 807,-192.5 464,-192.5"/>
<text text-anchor="start" x="471" y="-203.9" font-family="Arial" font-size="14.00" fill="#000000">name    </text>
<text text-anchor="start" x="540.2132" y="-203.9" font-family="Arial" font-size="14.00" fill="#666666">[varchar(255)]</text>
<polygon fill="none" stroke="#000000" points="464,-162.5 464,-192.5 807,-192.5 807,-162.5 464,-162.5"/>
<text text-anchor="start" x="470.9727" y="-173.9" font-family="Arial" font-size="14.00" fill="#000000">last_logged_in_at    </text>
<text text-anchor="start" x="614.8871" y="-173.9" font-family="Arial" font-size="14.00" fill="#666666">[timestamp without time zone]</text>
<polygon fill="none" stroke="#000000" points="464,-132.5 464,-162.5 807,-162.5 807,-132.5 464,-132.5"/>
<text text-anchor="start" x="471" y="-143.9" font-family="Arial" font-size="14.00" fill="#000000">created_by    </text>
<text text-anchor="start" x="574.4516" y="-143.9" font-family="Arial" font-size="14.00" fill="#666666">[uuid]</text>
<polygon fill="none" stroke="#000000" points="464,-102.5 464,-132.5 807,-132.5 807,-102.5 464,-102.5"/>
<text text-anchor="start" x="471" y="-113.9" font-family="Arial" font-size="14.00" fill="#000000">from_system    </text>
<text text-anchor="start" x="585.3156" y="-113.9" font-family="Arial" font-size="14.00" fill="#666666">[boolean]</text>
<polygon fill="none" stroke="#000000" points="464,-72.5 464,-102.5 807,-102.5 807,-72.5 464,-72.5"/>
<text text-anchor="start" x="471" y="-83.9" font-family="Arial" font-size="14.00" fill="#000000">created_at    </text>
<text text-anchor="start" x="571.3422" y="-83.9" font-family="Arial" font-size="14.00" fill="#666666">[timestamp with time zone]</text>
<polygon fill="none" stroke="#000000" points="464,-42.5 464,-72.5 807,-72.5 807,-42.5 464,-42.5"/>
<text text-anchor="start" x="471" y="-53.9" font-family="Arial" font-size="14.00" fill="#000000">updated_at    </text>
<text text-anchor="start" x="575.2468" y="-53.9" font-family="Arial" font-size="14.00" fill="#666666">[timestamp with time zone]</text>
</g>
<!-- public.t_user_role&#45;&gt;public.m_users -->
<g id="edge1" class="edge">
<title>public.t_user_role:user_id&#45;&gt;public.m_users:id</title>
<path fill="none" stroke="#000000" d="M484.1492,-605.3549C422.0961,-577.9657 398.1687,-297.5 464,-297.5"/>
<polygon fill="#000000" stroke="#000000" points="484.229,-605.3722 493.0425,-611.897 489.1145,-606.4361 494,-607.5 494,-607.5 494,-607.5 489.1145,-606.4361 494.9575,-603.103 484.229,-605.3722 484.229,-605.3722"/>
<text text-anchor="start" x="26.9985" y="-617.5" font-family="Arial" font-size="10.00" fill="#000000">FOREIGN KEY (user_id) REFERENCES m_users(id) ON UPDATE CASCADE ON DELETE CASCADE</text>
</g>
<!-- public.t_user_role&#45;&gt;public.m_users -->
<g id="edge3" class="edge">
<title>public.t_user_role:attached_by&#45;&gt;public.m_users:id</title>
<path fill="none" stroke="#000000" d="M484.1352,-544.8615C434.7282,-518.143 411.4337,-297.5 464,-297.5"/>
<polygon fill="#000000" stroke="#000000" points="484.3396,-544.9161 492.8373,-551.8472 489.1698,-546.2081 494,-547.5 494,-547.5 494,-547.5 489.1698,-546.2081 495.1627,-543.1528 484.3396,-544.9161 484.3396,-544.9161"/>
<text text-anchor="start" x="6.706" y="-557.5" font-family="Arial" font-size="10.00" fill="#000000">FOREIGN KEY (attached_by) REFERENCES m_users(id) ON UPDATE SET NULL ON DELETE SET NULL</text>
</g>
<!-- public.m_roles -->
<g id="node3" class="node">
<title>public.m_roles</title>
<polygon fill="#efefef" stroke="transparent" points="911,-237.5 911,-272.5 1168,-272.5 1168,-237.5 911,-237.5"/>
<polygon fill="none" stroke="#000000" points="911,-237.5 911,-272.5 1168,-272.5 1168,-237.5 911,-237.5"/>
<text text-anchor="start" x="917.7128" y="-250.3" font-family="Arial Bold" font-size="18.00" fill="#000000">public.m_roles</text>
<text text-anchor="start" x="1033.7192" y="-250.3" font-family="Arial" font-size="14.00" fill="#000000">    </text>
<text text-anchor="start" x="1067.924" y="-250.3" font-family="Arial" font-size="14.00" fill="#666666">[BASE TABLE]</text>
<polygon fill="none" stroke="#000000" points="911,-207.5 911,-237.5 1168,-237.5 1168,-207.5 911,-207.5"/>
<text text-anchor="start" x="918" y="-218.9" font-family="Arial" font-size="14.00" fill="#000000">id    </text>
<text text-anchor="start" x="963.094" y="-218.9" font-family="Arial" font-size="14.00" fill="#666666">[uuid]</text>
<polygon fill="none" stroke="#000000" points="911,-177.5 911,-207.5 1168,-207.5 1168,-177.5 911,-177.5"/>
<text text-anchor="start" x="918" y="-188.9" font-family="Arial" font-size="14.00" fill="#000000">name    </text>
<text text-anchor="start" x="987.2132" y="-188.9" font-family="Arial" font-size="14.00" fill="#666666">[varchar(255)]</text>
<polygon fill="none" stroke="#000000" points="911,-147.5 911,-177.5 1168,-177.5 1168,-147.5 911,-147.5"/>
<text text-anchor="start" x="918" y="-158.9" font-family="Arial" font-size="14.00" fill="#000000">detail    </text>
<text text-anchor="start" x="985.6564" y="-158.9" font-family="Arial" font-size="14.00" fill="#666666">[text]</text>
<polygon fill="none" stroke="#000000" points="911,-117.5 911,-147.5 1168,-147.5 1168,-117.5 911,-117.5"/>
<text text-anchor="start" x="918" y="-128.9" font-family="Arial" font-size="14.00" fill="#000000">category_id    </text>
<text text-anchor="start" x="1024.5582" y="-128.9" font-family="Arial" font-size="14.00" fill="#666666">[uuid]</text>
</g>
<!-- public.t_user_role&#45;&gt;public.m_roles -->
<g id="edge2" class="edge">
<title>public.t_user_role:role_id&#45;&gt;public.m_roles:id</title>
<path fill="none" stroke="#000000" d="M787.0247,-577.0417C864.5182,-569.5838 828.6106,-472.5305 859,-391 886.3731,-317.5617 832.6261,-222.5 911,-222.5"/>
<polygon fill="#000000" stroke="#000000" points="786.9896,-577.0432 776.7945,-573.0047 781.9948,-577.2716 777,-577.5 777,-577.5 777,-577.5 781.9948,-577.2716 777.2055,-581.9953 786.9896,-577.0432 786.9896,-577.0432"/>
<text text-anchor="start" x="783.7795" y="-587.5" font-family="Arial" font-size="10.00" fill="#000000">FOREIGN KEY (role_id) REFERENCES m_roles(id) ON UPDATE CASCADE ON DELETE CASCADE</text>
</g>
</g>
</svg>
