<?xml version="1.0" encoding="UTF-8" standalone="no"?>
<!DOCTYPE svg PUBLIC "-//W3C//DTD SVG 1.1//EN"
 "http://www.w3.org/Graphics/SVG/1.1/DTD/svg11.dtd">
<!-- Generated by graphviz version 2.40.1 (20161225.0304)
 -->
<!-- Title: public.m_user_permissions Pages: 1 -->
<svg width="1358pt" height="779pt"
 viewBox="0.00 0.00 1358.00 779.00" xmlns="http://www.w3.org/2000/svg" xmlns:xlink="http://www.w3.org/1999/xlink">
<g id="graph0" class="graph" transform="scale(1 1) rotate(0) translate(4 775)">
<title>public.m_user_permissions</title>
<polygon fill="#ffffff" stroke="transparent" points="-4,4 -4,-775 1354,-775 1354,4 -4,4"/>
<!-- public.m_user_permissions -->
<g id="node1" class="node">
<title>public.m_user_permissions</title>
<polygon fill="#efefef" stroke="transparent" points="574,-412.5 574,-447.5 933,-447.5 933,-412.5 574,-412.5"/>
<polygon fill="none" stroke="#000000" points="574,-412.5 574,-447.5 933,-447.5 933,-412.5 574,-412.5"/>
<text text-anchor="start" x="580.708" y="-425.3" font-family="Arial Bold" font-size="18.00" fill="#000000">public.m_user_permissions</text>
<text text-anchor="start" x="798.724" y="-425.3" font-family="Arial" font-size="14.00" fill="#000000">    </text>
<text text-anchor="start" x="832.9288" y="-425.3" font-family="Arial" font-size="14.00" fill="#666666">[BASE TABLE]</text>
<polygon fill="none" stroke="#000000" points="574,-382.5 574,-412.5 933,-412.5 933,-382.5 574,-382.5"/>
<text text-anchor="start" x="581" y="-393.9" font-family="Arial" font-size="14.00" fill="#000000">id </text>
<text text-anchor="start" x="595.7798" y="-393.9" font-family="Arial" font-size="14.00" fill="#666666">[uuid]</text>
<polygon fill="none" stroke="#000000" points="574,-352.5 574,-382.5 933,-382.5 933,-352.5 574,-352.5"/>
<text text-anchor="start" x="581" y="-363.9" font-family="Arial" font-size="14.00" fill="#000000">name </text>
<text text-anchor="start" x="619.899" y="-363.9" font-family="Arial" font-size="14.00" fill="#666666">[varchar(255)]</text>
<polygon fill="none" stroke="#000000" points="574,-322.5 574,-352.5 933,-352.5 933,-322.5 574,-322.5"/>
<text text-anchor="start" x="581" y="-333.9" font-family="Arial" font-size="14.00" fill="#000000">detail </text>
<text text-anchor="start" x="618.3422" y="-333.9" font-family="Arial" font-size="14.00" fill="#666666">[text]</text>
<polygon fill="none" stroke="#000000" points="574,-292.5 574,-322.5 933,-322.5 933,-292.5 574,-292.5"/>
<text text-anchor="start" x="581" y="-303.9" font-family="Arial" font-size="14.00" fill="#000000">category_id </text>
<text text-anchor="start" x="657.244" y="-303.9" font-family="Arial" font-size="14.00" fill="#666666">[uuid]</text>
<polygon fill="none" stroke="#000000" stroke-width="3" points="572,-291.5 572,-449.5 934,-449.5 934,-291.5 572,-291.5"/>
</g>
<!-- public.m_user_permission_categories -->
<g id="node3" class="node">
<title>public.m_user_permission_categories</title>
<polygon fill="#efefef" stroke="transparent" points="532,-132.5 532,-167.5 975,-167.5 975,-132.5 532,-132.5"/>
<polygon fill="none" stroke="#000000" points="532,-132.5 532,-167.5 975,-167.5 975,-132.5 532,-132.5"/>
<text text-anchor="start" x="538.6951" y="-145.3" font-family="Arial Bold" font-size="18.00" fill="#000000">public.m_user_permission_categories</text>
<text text-anchor="start" x="840.7369" y="-145.3" font-family="Arial" font-size="14.00" fill="#000000">    </text>
<text text-anchor="start" x="874.9417" y="-145.3" font-family="Arial" font-size="14.00" fill="#666666">[BASE TABLE]</text>
<polygon fill="none" stroke="#000000" points="532,-102.5 532,-132.5 975,-132.5 975,-102.5 532,-102.5"/>
<text text-anchor="start" x="539" y="-113.9" font-family="Arial" font-size="14.00" fill="#000000">id    </text>
<text text-anchor="start" x="584.094" y="-113.9" font-family="Arial" font-size="14.00" fill="#666666">[uuid]</text>
<polygon fill="none" stroke="#000000" points="532,-72.5 532,-102.5 975,-102.5 975,-72.5 532,-72.5"/>
<text text-anchor="start" x="539" y="-83.9" font-family="Arial" font-size="14.00" fill="#000000">name    </text>
<text text-anchor="start" x="608.2132" y="-83.9" font-family="Arial" font-size="14.00" fill="#666666">[varchar(255)]</text>
<polygon fill="none" stroke="#000000" points="532,-42.5 532,-72.5 975,-72.5 975,-42.5 532,-42.5"/>
<text text-anchor="start" x="539" y="-53.9" font-family="Arial" font-size="14.00" fill="#000000">detail    </text>
<text text-anchor="start" x="606.6564" y="-53.9" font-family="Arial" font-size="14.00" fill="#666666">[text]</text>
</g>
<!-- public.m_user_permissions&#45;&gt;public.m_user_permission_categories -->
<g id="edge2" class="edge">
<title>public.m_user_permissions:category_id&#45;&gt;public.m_user_permission_categories:id</title>
<path fill="none" stroke="#000000" d="M753.4433,-282.4593C743.0559,-194.6705 590.11,-294.2353 532,-211 508.212,-176.9266 490.4444,-117.5 532,-117.5"/>
<polygon fill="#000000" stroke="#000000" points="753.4463,-282.5153 749.5069,-292.7491 753.7232,-287.5077 754,-292.5 754,-292.5 754,-292.5 753.7232,-287.5077 758.4931,-292.2509 753.4463,-282.5153 753.4463,-282.5153"/>
<text text-anchor="start" x="760.605" y="-302.5" font-family="Arial" font-size="10.00" fill="#000000">FOREIGN KEY (category_id) REFERENCES m_user_permission_categories(id) ON UPDATE RESTRICT ON DELETE RESTRICT</text>
</g>
<!-- public.t_user_group_permission -->
<g id="node2" class="node">
<title>public.t_user_group_permission</title>
<polygon fill="#efefef" stroke="transparent" points="556,-692.5 556,-727.5 952,-727.5 952,-692.5 556,-692.5"/>
<polygon fill="none" stroke="#000000" points="556,-692.5 556,-727.5 952,-727.5 952,-692.5 556,-692.5"/>
<text text-anchor="start" x="562.6914" y="-705.3" font-family="Arial Bold" font-size="18.00" fill="#000000">public.t_user_group_permission</text>
<text text-anchor="start" x="817.7406" y="-705.3" font-family="Arial" font-size="14.00" fill="#000000">    </text>
<text text-anchor="start" x="851.9454" y="-705.3" font-family="Arial" font-size="14.00" fill="#666666">[BASE TABLE]</text>
<polygon fill="none" stroke="#000000" points="556,-662.5 556,-692.5 952,-692.5 952,-662.5 556,-662.5"/>
<text text-anchor="start" x="563" y="-673.9" font-family="Arial" font-size="14.00" fill="#000000">user_group_id    </text>
<text text-anchor="start" x="686.676" y="-673.9" font-family="Arial" font-size="14.00" fill="#666666">[integer]</text>
<polygon fill="none" stroke="#000000" points="556,-632.5 556,-662.5 952,-662.5 952,-632.5 556,-632.5"/>
<text text-anchor="start" x="563" y="-643.9" font-family="Arial" font-size="14.00" fill="#000000">permission_id    </text>
<text text-anchor="start" x="683.5414" y="-643.9" font-family="Arial" font-size="14.00" fill="#666666">[uuid]</text>
<polygon fill="none" stroke="#000000" points="556,-602.5 556,-632.5 952,-632.5 952,-602.5 556,-602.5"/>
<text text-anchor="start" x="563" y="-613.9" font-family="Arial" font-size="14.00" fill="#000000">attached_by    </text>
<text text-anchor="start" x="673.4642" y="-613.9" font-family="Arial" font-size="14.00" fill="#666666">[uuid]</text>
<polygon fill="none" stroke="#000000" points="556,-572.5 556,-602.5 952,-602.5 952,-572.5 556,-572.5"/>
<text text-anchor="start" x="563" y="-583.9" font-family="Arial" font-size="14.00" fill="#000000">attached_at    </text>
<text text-anchor="start" x="670.3548" y="-583.9" font-family="Arial" font-size="14.00" fill="#666666">[timestamp with time zone]</text>
</g>
<!-- public.t_user_group_permission&#45;&gt;public.m_user_permissions -->
<g id="edge1" class="edge">
<title>public.t_user_group_permission:permission_id&#45;&gt;public.m_user_permissions:id</title>
<path fill="none" stroke="#000000" d="M545.9946,-646.3718C506.2708,-636.6094 523.3421,-565.9249 556,-530 612.6103,-467.7265 876.3897,-556.2735 933,-494 961.8496,-462.2643 975.8889,-397.5 933,-397.5"/>
<polygon fill="#000000" stroke="#000000" points="546.063,-646.3794 555.4957,-651.9717 551.0315,-646.9397 556,-647.5 556,-647.5 556,-647.5 551.0315,-646.9397 556.5043,-643.0283 546.063,-646.3794 546.063,-646.3794"/>
<text text-anchor="start" x="6.6105" y="-657.5" font-family="Arial" font-size="10.00" fill="#000000">FOREIGN KEY (permission_id) REFERENCES m_user_permissions(id) ON UPDATE CASCADE ON DELETE CASCADE</text>
</g>
</g>
</svg>
