<?xml version="1.0" encoding="UTF-8" standalone="no"?>
<!DOCTYPE svg PUBLIC "-//W3C//DTD SVG 1.1//EN"
 "http://www.w3.org/Graphics/SVG/1.1/DTD/svg11.dtd">
<!-- Generated by graphviz version 2.40.1 (20161225.0304)
 -->
<!-- Title: public.t_group_storage_permission Pages: 1 -->
<svg width="1518pt" height="742pt"
 viewBox="0.00 0.00 1517.50 742.00" xmlns="http://www.w3.org/2000/svg" xmlns:xlink="http://www.w3.org/1999/xlink">
<g id="graph0" class="graph" transform="scale(1 1) rotate(0) translate(4 738)">
<title>public.t_group_storage_permission</title>
<polygon fill="#ffffff" stroke="transparent" points="-4,4 -4,-738 1513.5,-738 1513.5,4 -4,4"/>
<!-- public.t_group_storage_permission -->
<g id="node1" class="node">
<title>public.t_group_storage_permission</title>
<polygon fill="#efefef" stroke="transparent" points="573.5,-652.5 573.5,-687.5 994.5,-687.5 994.5,-652.5 573.5,-652.5"/>
<polygon fill="none" stroke="#000000" points="573.5,-652.5 573.5,-687.5 994.5,-687.5 994.5,-652.5 573.5,-652.5"/>
<text text-anchor="start" x="580.1841" y="-665.3" font-family="Arial Bold" font-size="18.00" fill="#000000">public.t_group_storage_permission</text>
<text text-anchor="start" x="860.2479" y="-665.3" font-family="Arial" font-size="14.00" fill="#000000">    </text>
<text text-anchor="start" x="894.4527" y="-665.3" font-family="Arial" font-size="14.00" fill="#666666">[BASE TABLE]</text>
<polygon fill="none" stroke="#000000" points="573.5,-622.5 573.5,-652.5 994.5,-652.5 994.5,-622.5 573.5,-622.5"/>
<text text-anchor="start" x="580.5" y="-633.9" font-family="Arial" font-size="14.00" fill="#000000">storage_id </text>
<text text-anchor="start" x="649.744" y="-633.9" font-family="Arial" font-size="14.00" fill="#666666">[uuid]</text>
<polygon fill="none" stroke="#000000" points="573.5,-592.5 573.5,-622.5 994.5,-622.5 994.5,-592.5 573.5,-592.5"/>
<text text-anchor="start" x="580.5" y="-603.9" font-family="Arial" font-size="14.00" fill="#000000">group_id </text>
<text text-anchor="start" x="638.8534" y="-603.9" font-family="Arial" font-size="14.00" fill="#666666">[uuid]</text>
<polygon fill="none" stroke="#000000" points="573.5,-562.5 573.5,-592.5 994.5,-592.5 994.5,-562.5 573.5,-562.5"/>
<text text-anchor="start" x="580.5" y="-573.9" font-family="Arial" font-size="14.00" fill="#000000">attached_by </text>
<text text-anchor="start" x="660.65" y="-573.9" font-family="Arial" font-size="14.00" fill="#666666">[uuid]</text>
<polygon fill="none" stroke="#000000" points="573.5,-532.5 573.5,-562.5 994.5,-562.5 994.5,-532.5 573.5,-532.5"/>
<text text-anchor="start" x="580.5" y="-543.9" font-family="Arial" font-size="14.00" fill="#000000">last_changed_by </text>
<text text-anchor="start" x="690.2138" y="-543.9" font-family="Arial" font-size="14.00" fill="#666666">[uuid]</text>
<polygon fill="none" stroke="#000000" points="573.5,-502.5 573.5,-532.5 994.5,-532.5 994.5,-502.5 573.5,-502.5"/>
<text text-anchor="start" x="580.5" y="-513.9" font-family="Arial" font-size="14.00" fill="#000000">attached_at </text>
<text text-anchor="start" x="657.5406" y="-513.9" font-family="Arial" font-size="14.00" fill="#666666">[timestamp with time zone]</text>
<polygon fill="none" stroke="#000000" points="573.5,-472.5 573.5,-502.5 994.5,-502.5 994.5,-472.5 573.5,-472.5"/>
<text text-anchor="start" x="580.5" y="-483.9" font-family="Arial" font-size="14.00" fill="#000000">last_changed_at </text>
<text text-anchor="start" x="687.1044" y="-483.9" font-family="Arial" font-size="14.00" fill="#666666">[timestamp with time zone]</text>
<polygon fill="none" stroke="#000000" stroke-width="3" points="571.5,-471.5 571.5,-689.5 995.5,-689.5 995.5,-471.5 571.5,-471.5"/>
</g>
<!-- public.m_storages -->
<g id="node2" class="node">
<title>public.m_storages</title>
<polygon fill="#efefef" stroke="transparent" points="43.5,-267.5 43.5,-302.5 330.5,-302.5 330.5,-267.5 43.5,-267.5"/>
<polygon fill="none" stroke="#000000" points="43.5,-267.5 43.5,-302.5 330.5,-302.5 330.5,-267.5 43.5,-267.5"/>
<text text-anchor="start" x="50.2026" y="-280.3" font-family="Arial Bold" font-size="18.00" fill="#000000">public.m_storages</text>
<text text-anchor="start" x="196.2294" y="-280.3" font-family="Arial" font-size="14.00" fill="#000000">    </text>
<text text-anchor="start" x="230.4342" y="-280.3" font-family="Arial" font-size="14.00" fill="#666666">[BASE TABLE]</text>
<polygon fill="none" stroke="#000000" points="43.5,-237.5 43.5,-267.5 330.5,-267.5 330.5,-237.5 43.5,-237.5"/>
<text text-anchor="start" x="50.5" y="-248.9" font-family="Arial" font-size="14.00" fill="#000000">id    </text>
<text text-anchor="start" x="95.594" y="-248.9" font-family="Arial" font-size="14.00" fill="#666666">[uuid]</text>
<polygon fill="none" stroke="#000000" points="43.5,-207.5 43.5,-237.5 330.5,-237.5 330.5,-207.5 43.5,-207.5"/>
<text text-anchor="start" x="50.5" y="-218.9" font-family="Arial" font-size="14.00" fill="#000000">name    </text>
<text text-anchor="start" x="119.7132" y="-218.9" font-family="Arial" font-size="14.00" fill="#666666">[varchar(255)]</text>
<polygon fill="none" stroke="#000000" points="43.5,-177.5 43.5,-207.5 330.5,-207.5 330.5,-177.5 43.5,-177.5"/>
<text text-anchor="start" x="50.5" y="-188.9" font-family="Arial" font-size="14.00" fill="#000000">prefix    </text>
<text text-anchor="start" x="118.9278" y="-188.9" font-family="Arial" font-size="14.00" fill="#666666">[varchar(255)]</text>
<polygon fill="none" stroke="#000000" points="43.5,-147.5 43.5,-177.5 330.5,-177.5 330.5,-147.5 43.5,-147.5"/>
<text text-anchor="start" x="50.5" y="-158.9" font-family="Arial" font-size="14.00" fill="#000000">created_by    </text>
<text text-anchor="start" x="153.9516" y="-158.9" font-family="Arial" font-size="14.00" fill="#666666">[uuid]</text>
<polygon fill="none" stroke="#000000" points="43.5,-117.5 43.5,-147.5 330.5,-147.5 330.5,-117.5 43.5,-117.5"/>
<text text-anchor="start" x="50.5" y="-128.9" font-family="Arial" font-size="14.00" fill="#000000">created_at    </text>
<text text-anchor="start" x="150.8422" y="-128.9" font-family="Arial" font-size="14.00" fill="#666666">[timestamp with time zone]</text>
<polygon fill="none" stroke="#000000" points="43.5,-87.5 43.5,-117.5 330.5,-117.5 330.5,-87.5 43.5,-87.5"/>
<text text-anchor="start" x="50.5" y="-98.9" font-family="Arial" font-size="14.00" fill="#000000">updated_at    </text>
<text text-anchor="start" x="154.7468" y="-98.9" font-family="Arial" font-size="14.00" fill="#666666">[timestamp with time zone]</text>
</g>
<!-- public.t_group_storage_permission&#45;&gt;public.m_storages -->
<g id="edge1" class="edge">
<title>public.t_group_storage_permission:storage_id&#45;&gt;public.m_storages:id</title>
<path fill="none" stroke="#000000" d="M563.2146,-637.2601C435.3074,-631.1486 447.2496,-509.2977 381.5,-391 349.633,-333.6645 396.0962,-252.5 330.5,-252.5"/>
<polygon fill="#000000" stroke="#000000" points="563.5027,-637.2667 573.395,-641.9988 568.5014,-637.3834 573.5,-637.5 573.5,-637.5 573.5,-637.5 568.5014,-637.3834 573.605,-633.0012 563.5027,-637.2667 563.5027,-637.2667"/>
<text text-anchor="start" x="79.6015" y="-647.5" font-family="Arial" font-size="10.00" fill="#000000">FOREIGN KEY (storage_id) REFERENCES m_storages(id) ON UPDATE CASCADE ON DELETE CASCADE</text>
</g>
<!-- public.m_groups -->
<g id="node3" class="node">
<title>public.m_groups</title>
<polygon fill="#efefef" stroke="transparent" points="434.5,-297.5 434.5,-332.5 717.5,-332.5 717.5,-297.5 434.5,-297.5"/>
<polygon fill="none" stroke="#000000" points="434.5,-297.5 434.5,-332.5 717.5,-332.5 717.5,-297.5 434.5,-297.5"/>
<text text-anchor="start" x="446.2037" y="-310.3" font-family="Arial Bold" font-size="18.00" fill="#000000">public.m_groups</text>
<text text-anchor="start" x="578.2283" y="-310.3" font-family="Arial" font-size="14.00" fill="#000000">    </text>
<text text-anchor="start" x="612.4331" y="-310.3" font-family="Arial" font-size="14.00" fill="#666666">[BASE TABLE]</text>
<polygon fill="none" stroke="#000000" points="434.5,-267.5 434.5,-297.5 717.5,-297.5 717.5,-267.5 434.5,-267.5"/>
<text text-anchor="start" x="441.5" y="-278.9" font-family="Arial" font-size="14.00" fill="#000000">id    </text>
<text text-anchor="start" x="486.594" y="-278.9" font-family="Arial" font-size="14.00" fill="#666666">[uuid]</text>
<polygon fill="none" stroke="#000000" points="434.5,-237.5 434.5,-267.5 717.5,-267.5 717.5,-237.5 434.5,-237.5"/>
<text text-anchor="start" x="441.5" y="-248.9" font-family="Arial" font-size="14.00" fill="#000000">name    </text>
<text text-anchor="start" x="510.7132" y="-248.9" font-family="Arial" font-size="14.00" fill="#666666">[varchar(255)]</text>
<polygon fill="none" stroke="#000000" points="434.5,-207.5 434.5,-237.5 717.5,-237.5 717.5,-207.5 434.5,-207.5"/>
<text text-anchor="start" x="441.5" y="-218.9" font-family="Arial" font-size="14.00" fill="#000000">is_open    </text>
<text text-anchor="start" x="524.7244" y="-218.9" font-family="Arial" font-size="14.00" fill="#666666">[boolean]</text>
<polygon fill="none" stroke="#000000" points="434.5,-177.5 434.5,-207.5 717.5,-207.5 717.5,-177.5 434.5,-177.5"/>
<text text-anchor="start" x="441.5" y="-188.9" font-family="Arial" font-size="14.00" fill="#000000">is_primitive    </text>
<text text-anchor="start" x="545.6908" y="-188.9" font-family="Arial" font-size="14.00" fill="#666666">[boolean]</text>
<polygon fill="none" stroke="#000000" points="434.5,-147.5 434.5,-177.5 717.5,-177.5 717.5,-147.5 434.5,-147.5"/>
<text text-anchor="start" x="441.5" y="-158.9" font-family="Arial" font-size="14.00" fill="#000000">is_personal    </text>
<text text-anchor="start" x="547.2742" y="-158.9" font-family="Arial" font-size="14.00" fill="#666666">[boolean]</text>
<polygon fill="none" stroke="#000000" points="434.5,-117.5 434.5,-147.5 717.5,-147.5 717.5,-117.5 434.5,-117.5"/>
<text text-anchor="start" x="441.5" y="-128.9" font-family="Arial" font-size="14.00" fill="#000000">created_by    </text>
<text text-anchor="start" x="544.9516" y="-128.9" font-family="Arial" font-size="14.00" fill="#666666">[uuid]</text>
<polygon fill="none" stroke="#000000" points="434.5,-87.5 434.5,-117.5 717.5,-117.5 717.5,-87.5 434.5,-87.5"/>
<text text-anchor="start" x="441.5" y="-98.9" font-family="Arial" font-size="14.00" fill="#000000">created_at    </text>
<text text-anchor="start" x="541.8422" y="-98.9" font-family="Arial" font-size="14.00" fill="#666666">[timestamp with time zone]</text>
<polygon fill="none" stroke="#000000" points="434.5,-57.5 434.5,-87.5 717.5,-87.5 717.5,-57.5 434.5,-57.5"/>
<text text-anchor="start" x="441.0344" y="-68.9" font-family="Arial" font-size="14.00" fill="#000000">updated_at    </text>
<text text-anchor="start" x="545.2812" y="-68.9" font-family="Arial" font-size="14.00" fill="#666666">[timestamp with time zone]</text>
</g>
<!-- public.t_group_storage_permission&#45;&gt;public.m_groups -->
<g id="edge2" class="edge">
<title>public.t_group_storage_permission:group_id&#45;&gt;public.m_groups:id</title>
<path fill="none" stroke="#000000" d="M563.3706,-606.8188C496.3506,-597.269 529.2813,-489.5708 573.5,-427 612.6843,-371.553 678.3157,-431.447 717.5,-376 741.4829,-342.0635 759.0556,-282.5 717.5,-282.5"/>
<polygon fill="#000000" stroke="#000000" points="563.5225,-606.8289 573.198,-611.9899 568.5113,-607.1645 573.5,-607.5 573.5,-607.5 573.5,-607.5 568.5113,-607.1645 573.802,-603.0101 563.5225,-606.8289 563.5225,-606.8289"/>
<text text-anchor="start" x="94.3805" y="-617.5" font-family="Arial" font-size="10.00" fill="#000000">FOREIGN KEY (group_id) REFERENCES m_groups(id) ON UPDATE CASCADE ON DELETE CASCADE</text>
</g>
<!-- public.m_users -->
<g id="node4" class="node">
<title>public.m_users</title>
<polygon fill="#efefef" stroke="transparent" points="821.5,-312.5 821.5,-347.5 1164.5,-347.5 1164.5,-312.5 821.5,-312.5"/>
<polygon fill="none" stroke="#000000" points="821.5,-312.5 821.5,-347.5 1164.5,-347.5 1164.5,-312.5 821.5,-312.5"/>
<text text-anchor="start" x="868.7099" y="-325.3" font-family="Arial Bold" font-size="18.00" fill="#000000">public.m_users</text>
<text text-anchor="start" x="989.7221" y="-325.3" font-family="Arial" font-size="14.00" fill="#000000">    </text>
<text text-anchor="start" x="1023.9269" y="-325.3" font-family="Arial" font-size="14.00" fill="#666666">[BASE TABLE]</text>
<polygon fill="none" stroke="#000000" points="821.5,-282.5 821.5,-312.5 1164.5,-312.5 1164.5,-282.5 821.5,-282.5"/>
<text text-anchor="start" x="828.5" y="-293.9" font-family="Arial" font-size="14.00" fill="#000000">id    </text>
<text text-anchor="start" x="873.594" y="-293.9" font-family="Arial" font-size="14.00" fill="#666666">[uuid]</text>
<polygon fill="none" stroke="#000000" points="821.5,-252.5 821.5,-282.5 1164.5,-282.5 1164.5,-252.5 821.5,-252.5"/>
<text text-anchor="start" x="828.5" y="-263.9" font-family="Arial" font-size="14.00" fill="#000000">login_id    </text>
<text text-anchor="start" x="910.9376" y="-263.9" font-family="Arial" font-size="14.00" fill="#666666">[varchar(255)]</text>
<polygon fill="none" stroke="#000000" points="821.5,-222.5 821.5,-252.5 1164.5,-252.5 1164.5,-222.5 821.5,-222.5"/>
<text text-anchor="start" x="828.5" y="-233.9" font-family="Arial" font-size="14.00" fill="#000000">password    </text>
<text text-anchor="start" x="922.6024" y="-233.9" font-family="Arial" font-size="14.00" fill="#666666">[varchar(255)]</text>
<polygon fill="none" stroke="#000000" points="821.5,-192.5 821.5,-222.5 1164.5,-222.5 1164.5,-192.5 821.5,-192.5"/>
<text text-anchor="start" x="828.5" y="-203.9" font-family="Arial" font-size="14.00" fill="#000000">name    </text>
<text text-anchor="start" x="897.7132" y="-203.9" font-family="Arial" font-size="14.00" fill="#666666">[varchar(255)]</text>
<polygon fill="none" stroke="#000000" points="821.5,-162.5 821.5,-192.5 1164.5,-192.5 1164.5,-162.5 821.5,-162.5"/>
<text text-anchor="start" x="828.4727" y="-173.9" font-family="Arial" font-size="14.00" fill="#000000">last_logged_in_at    </text>
<text text-anchor="start" x="972.3871" y="-173.9" font-family="Arial" font-size="14.00" fill="#666666">[timestamp without time zone]</text>
<polygon fill="none" stroke="#000000" points="821.5,-132.5 821.5,-162.5 1164.5,-162.5 1164.5,-132.5 821.5,-132.5"/>
<text text-anchor="start" x="828.5" y="-143.9" font-family="Arial" font-size="14.00" fill="#000000">created_by    </text>
<text text-anchor="start" x="931.9516" y="-143.9" font-family="Arial" font-size="14.00" fill="#666666">[uuid]</text>
<polygon fill="none" stroke="#000000" points="821.5,-102.5 821.5,-132.5 1164.5,-132.5 1164.5,-102.5 821.5,-102.5"/>
<text text-anchor="start" x="828.5" y="-113.9" font-family="Arial" font-size="14.00" fill="#000000">from_system    </text>
<text text-anchor="start" x="942.8156" y="-113.9" font-family="Arial" font-size="14.00" fill="#666666">[boolean]</text>
<polygon fill="none" stroke="#000000" points="821.5,-72.5 821.5,-102.5 1164.5,-102.5 1164.5,-72.5 821.5,-72.5"/>
<text text-anchor="start" x="828.5" y="-83.9" font-family="Arial" font-size="14.00" fill="#000000">created_at    </text>
<text text-anchor="start" x="928.8422" y="-83.9" font-family="Arial" font-size="14.00" fill="#666666">[timestamp with time zone]</text>
<polygon fill="none" stroke="#000000" points="821.5,-42.5 821.5,-72.5 1164.5,-72.5 1164.5,-42.5 821.5,-42.5"/>
<text text-anchor="start" x="828.5" y="-53.9" font-family="Arial" font-size="14.00" fill="#000000">updated_at    </text>
<text text-anchor="start" x="932.7468" y="-53.9" font-family="Arial" font-size="14.00" fill="#666666">[timestamp with time zone]</text>
</g>
<!-- public.t_group_storage_permission&#45;&gt;public.m_users -->
<g id="edge3" class="edge">
<title>public.t_group_storage_permission:attached_by&#45;&gt;public.m_users:id</title>
<path fill="none" stroke="#000000" d="M1004.6645,-576.639C1058.6367,-566.8545 1034.3974,-476.0545 994.5,-427 944.9454,-366.0719 871.0546,-451.9281 821.5,-391 795.2793,-358.7612 779.9444,-297.5 821.5,-297.5"/>
<polygon fill="#000000" stroke="#000000" points="1004.4643,-576.6559 994.1202,-573.0161 999.4822,-577.078 994.5,-577.5 994.5,-577.5 994.5,-577.5 999.4822,-577.078 994.8798,-581.9839 1004.4643,-576.6559 1004.4643,-576.6559"/>
<text text-anchor="start" x="1001.206" y="-587.5" font-family="Arial" font-size="10.00" fill="#000000">FOREIGN KEY (attached_by) REFERENCES m_users(id) ON UPDATE SET NULL ON DELETE SET NULL</text>
</g>
<!-- public.t_group_storage_permission&#45;&gt;public.m_users -->
<g id="edge4" class="edge">
<title>public.t_group_storage_permission:last_changed_by&#45;&gt;public.m_users:id</title>
<path fill="none" stroke="#000000" d="M1004.4742,-546.4303C1045.288,-536.8806 1025.9825,-465.7081 994.5,-427 944.9454,-366.0719 871.0546,-451.9281 821.5,-391 795.2793,-358.7612 779.9444,-297.5 821.5,-297.5"/>
<polygon fill="#000000" stroke="#000000" points="1004.443,-546.4336 994.0201,-543.0257 999.4715,-546.9668 994.5,-547.5 994.5,-547.5 994.5,-547.5 999.4715,-546.9668 994.9799,-551.9743 1004.443,-546.4336 1004.443,-546.4336"/>
<text text-anchor="start" x="1001.6475" y="-557.5" font-family="Arial" font-size="10.00" fill="#000000">FOREIGN KEY (last_changed_by) REFERENCES m_users(id) ON UPDATE SET NULL ON DELETE SET NULL</text>
</g>
</g>
</svg>
