<?xml version="1.0" encoding="UTF-8" standalone="no"?>
<!DOCTYPE svg PUBLIC "-//W3C//DTD SVG 1.1//EN"
 "http://www.w3.org/Graphics/SVG/1.1/DTD/svg11.dtd">
<!-- Generated by graphviz version 2.40.1 (20161225.0304)
 -->
<!-- Title: public.m_role_categories Pages: 1 -->
<svg width="766pt" height="502pt"
 viewBox="0.00 0.00 765.50 502.00" xmlns="http://www.w3.org/2000/svg" xmlns:xlink="http://www.w3.org/1999/xlink">
<g id="graph0" class="graph" transform="scale(1 1) rotate(0) translate(4 498)">
<title>public.m_role_categories</title>
<polygon fill="#ffffff" stroke="transparent" points="-4,4 -4,-498 761.5,-498 761.5,4 -4,4"/>
<!-- public.m_role_categories -->
<g id="node1" class="node">
<title>public.m_role_categories</title>
<polygon fill="#efefef" stroke="transparent" points="46.5,-135.5 46.5,-170.5 387.5,-170.5 387.5,-135.5 46.5,-135.5"/>
<polygon fill="none" stroke="#000000" points="46.5,-135.5 46.5,-170.5 387.5,-170.5 387.5,-135.5 46.5,-135.5"/>
<text text-anchor="start" x="53.1999" y="-148.3" font-family="Arial Bold" font-size="18.00" fill="#000000">public.m_role_categories</text>
<text text-anchor="start" x="253.2321" y="-148.3" font-family="Arial" font-size="14.00" fill="#000000">    </text>
<text text-anchor="start" x="287.4369" y="-148.3" font-family="Arial" font-size="14.00" fill="#666666">[BASE TABLE]</text>
<polygon fill="none" stroke="#000000" points="46.5,-105.5 46.5,-135.5 387.5,-135.5 387.5,-105.5 46.5,-105.5"/>
<text text-anchor="start" x="53.5" y="-116.9" font-family="Arial" font-size="14.00" fill="#000000">id </text>
<text text-anchor="start" x="68.2798" y="-116.9" font-family="Arial" font-size="14.00" fill="#666666">[uuid]</text>
<polygon fill="none" stroke="#000000" points="46.5,-75.5 46.5,-105.5 387.5,-105.5 387.5,-75.5 46.5,-75.5"/>
<text text-anchor="start" x="53.5" y="-86.9" font-family="Arial" font-size="14.00" fill="#000000">name </text>
<text text-anchor="start" x="92.399" y="-86.9" font-family="Arial" font-size="14.00" fill="#666666">[varchar(255)]</text>
<polygon fill="none" stroke="#000000" points="46.5,-45.5 46.5,-75.5 387.5,-75.5 387.5,-45.5 46.5,-45.5"/>
<text text-anchor="start" x="53.5" y="-56.9" font-family="Arial" font-size="14.00" fill="#000000">detail </text>
<text text-anchor="start" x="90.8422" y="-56.9" font-family="Arial" font-size="14.00" fill="#666666">[text]</text>
<polygon fill="none" stroke="#000000" stroke-width="3" points="44.5,-44.5 44.5,-172.5 388.5,-172.5 388.5,-44.5 44.5,-44.5"/>
</g>
<!-- public.m_roles -->
<g id="node2" class="node">
<title>public.m_roles</title>
<polygon fill="#efefef" stroke="transparent" points="88.5,-415.5 88.5,-450.5 345.5,-450.5 345.5,-415.5 88.5,-415.5"/>
<polygon fill="none" stroke="#000000" points="88.5,-415.5 88.5,-450.5 345.5,-450.5 345.5,-415.5 88.5,-415.5"/>
<text text-anchor="start" x="95.2128" y="-428.3" font-family="Arial Bold" font-size="18.00" fill="#000000">public.m_roles</text>
<text text-anchor="start" x="211.2192" y="-428.3" font-family="Arial" font-size="14.00" fill="#000000">    </text>
<text text-anchor="start" x="245.424" y="-428.3" font-family="Arial" font-size="14.00" fill="#666666">[BASE TABLE]</text>
<polygon fill="none" stroke="#000000" points="88.5,-385.5 88.5,-415.5 345.5,-415.5 345.5,-385.5 88.5,-385.5"/>
<text text-anchor="start" x="95.5" y="-396.9" font-family="Arial" font-size="14.00" fill="#000000">id    </text>
<text text-anchor="start" x="140.594" y="-396.9" font-family="Arial" font-size="14.00" fill="#666666">[uuid]</text>
<polygon fill="none" stroke="#000000" points="88.5,-355.5 88.5,-385.5 345.5,-385.5 345.5,-355.5 88.5,-355.5"/>
<text text-anchor="start" x="95.5" y="-366.9" font-family="Arial" font-size="14.00" fill="#000000">name    </text>
<text text-anchor="start" x="164.7132" y="-366.9" font-family="Arial" font-size="14.00" fill="#666666">[varchar(255)]</text>
<polygon fill="none" stroke="#000000" points="88.5,-325.5 88.5,-355.5 345.5,-355.5 345.5,-325.5 88.5,-325.5"/>
<text text-anchor="start" x="95.5" y="-336.9" font-family="Arial" font-size="14.00" fill="#000000">detail    </text>
<text text-anchor="start" x="163.1564" y="-336.9" font-family="Arial" font-size="14.00" fill="#666666">[text]</text>
<polygon fill="none" stroke="#000000" points="88.5,-295.5 88.5,-325.5 345.5,-325.5 345.5,-295.5 88.5,-295.5"/>
<text text-anchor="start" x="95.5" y="-306.9" font-family="Arial" font-size="14.00" fill="#000000">category_id    </text>
<text text-anchor="start" x="202.0582" y="-306.9" font-family="Arial" font-size="14.00" fill="#666666">[uuid]</text>
</g>
<!-- public.m_roles&#45;&gt;public.m_role_categories -->
<g id="edge1" class="edge">
<title>public.m_roles:category_id&#45;&gt;public.m_role_categories:id</title>
<path fill="none" stroke="#000000" d="M216.7568,-285.166C206.3553,-218.365 89.6143,-284.2325 46.5,-217 23.348,-180.8968 3.6111,-120.5 46.5,-120.5"/>
<polygon fill="#000000" stroke="#000000" points="216.7826,-285.5258 213.0116,-295.8228 217.1413,-290.5129 217.5,-295.5 217.5,-295.5 217.5,-295.5 217.1413,-290.5129 221.9884,-295.1772 216.7826,-285.5258 216.7826,-285.5258"/>
<text text-anchor="start" x="224.441" y="-305.5" font-family="Arial" font-size="10.00" fill="#000000">FOREIGN KEY (category_id) REFERENCES m_role_categories(id) ON UPDATE RESTRICT ON DELETE RESTRICT</text>
</g>
</g>
</svg>
