<?xml version="1.0" encoding="UTF-8" standalone="no"?>
<!DOCTYPE svg PUBLIC "-//W3C//DTD SVG 1.1//EN"
 "http://www.w3.org/Graphics/SVG/1.1/DTD/svg11.dtd">
<!-- Generated by graphviz version 2.40.1 (20161225.0304)
 -->
<!-- Title: public.m_storages Pages: 1 -->
<svg width="973pt" height="1079pt"
 viewBox="0.00 0.00 972.50 1079.00" xmlns="http://www.w3.org/2000/svg" xmlns:xlink="http://www.w3.org/1999/xlink">
<g id="graph0" class="graph" transform="scale(1 1) rotate(0) translate(4 1075)">
<title>public.m_storages</title>
<polygon fill="#ffffff" stroke="transparent" points="-4,4 -4,-1075 968.5,-1075 968.5,4 -4,4"/>
<!-- public.m_storages -->
<g id="node1" class="node">
<title>public.m_storages</title>
<polygon fill="#efefef" stroke="transparent" points="568,-652.5 568,-687.5 855,-687.5 855,-652.5 568,-652.5"/>
<polygon fill="none" stroke="#000000" points="568,-652.5 568,-687.5 855,-687.5 855,-652.5 568,-652.5"/>
<text text-anchor="start" x="574.7026" y="-665.3" font-family="Arial Bold" font-size="18.00" fill="#000000">public.m_storages</text>
<text text-anchor="start" x="720.7294" y="-665.3" font-family="Arial" font-size="14.00" fill="#000000">    </text>
<text text-anchor="start" x="754.9342" y="-665.3" font-family="Arial" font-size="14.00" fill="#666666">[BASE TABLE]</text>
<polygon fill="none" stroke="#000000" points="568,-622.5 568,-652.5 855,-652.5 855,-622.5 568,-622.5"/>
<text text-anchor="start" x="575" y="-633.9" font-family="Arial" font-size="14.00" fill="#000000">id </text>
<text text-anchor="start" x="589.7798" y="-633.9" font-family="Arial" font-size="14.00" fill="#666666">[uuid]</text>
<polygon fill="none" stroke="#000000" points="568,-592.5 568,-622.5 855,-622.5 855,-592.5 568,-592.5"/>
<text text-anchor="start" x="575" y="-603.9" font-family="Arial" font-size="14.00" fill="#000000">name </text>
<text text-anchor="start" x="613.899" y="-603.9" font-family="Arial" font-size="14.00" fill="#666666">[varchar(255)]</text>
<polygon fill="none" stroke="#000000" points="568,-562.5 568,-592.5 855,-592.5 855,-562.5 568,-562.5"/>
<text text-anchor="start" x="575" y="-573.9" font-family="Arial" font-size="14.00" fill="#000000">prefix </text>
<text text-anchor="start" x="613.1136" y="-573.9" font-family="Arial" font-size="14.00" fill="#666666">[varchar(255)]</text>
<polygon fill="none" stroke="#000000" points="568,-532.5 568,-562.5 855,-562.5 855,-532.5 568,-532.5"/>
<text text-anchor="start" x="575" y="-543.9" font-family="Arial" font-size="14.00" fill="#000000">created_by </text>
<text text-anchor="start" x="648.1374" y="-543.9" font-family="Arial" font-size="14.00" fill="#666666">[uuid]</text>
<polygon fill="none" stroke="#000000" points="568,-502.5 568,-532.5 855,-532.5 855,-502.5 568,-502.5"/>
<text text-anchor="start" x="575" y="-513.9" font-family="Arial" font-size="14.00" fill="#000000">created_at </text>
<text text-anchor="start" x="645.028" y="-513.9" font-family="Arial" font-size="14.00" fill="#666666">[timestamp with time zone]</text>
<polygon fill="none" stroke="#000000" points="568,-472.5 568,-502.5 855,-502.5 855,-472.5 568,-472.5"/>
<text text-anchor="start" x="575" y="-483.9" font-family="Arial" font-size="14.00" fill="#000000">updated_at </text>
<text text-anchor="start" x="648.9326" y="-483.9" font-family="Arial" font-size="14.00" fill="#666666">[timestamp with time zone]</text>
<polygon fill="none" stroke="#000000" stroke-width="3" points="566,-471.5 566,-689.5 856,-689.5 856,-471.5 566,-471.5"/>
</g>
<!-- public.m_users -->
<g id="node3" class="node">
<title>public.m_users</title>
<polygon fill="#efefef" stroke="transparent" points="540,-312.5 540,-347.5 883,-347.5 883,-312.5 540,-312.5"/>
<polygon fill="none" stroke="#000000" points="540,-312.5 540,-347.5 883,-347.5 883,-312.5 540,-312.5"/>
<text text-anchor="start" x="587.2099" y="-325.3" font-family="Arial Bold" font-size="18.00" fill="#000000">public.m_users</text>
<text text-anchor="start" x="708.2221" y="-325.3" font-family="Arial" font-size="14.00" fill="#000000">    </text>
<text text-anchor="start" x="742.4269" y="-325.3" font-family="Arial" font-size="14.00" fill="#666666">[BASE TABLE]</text>
<polygon fill="none" stroke="#000000" points="540,-282.5 540,-312.5 883,-312.5 883,-282.5 540,-282.5"/>
<text text-anchor="start" x="547" y="-293.9" font-family="Arial" font-size="14.00" fill="#000000">id    </text>
<text text-anchor="start" x="592.094" y="-293.9" font-family="Arial" font-size="14.00" fill="#666666">[uuid]</text>
<polygon fill="none" stroke="#000000" points="540,-252.5 540,-282.5 883,-282.5 883,-252.5 540,-252.5"/>
<text text-anchor="start" x="547" y="-263.9" font-family="Arial" font-size="14.00" fill="#000000">login_id    </text>
<text text-anchor="start" x="629.4376" y="-263.9" font-family="Arial" font-size="14.00" fill="#666666">[varchar(255)]</text>
<polygon fill="none" stroke="#000000" points="540,-222.5 540,-252.5 883,-252.5 883,-222.5 540,-222.5"/>
<text text-anchor="start" x="547" y="-233.9" font-family="Arial" font-size="14.00" fill="#000000">password    </text>
<text text-anchor="start" x="641.1024" y="-233.9" font-family="Arial" font-size="14.00" fill="#666666">[varchar(255)]</text>
<polygon fill="none" stroke="#000000" points="540,-192.5 540,-222.5 883,-222.5 883,-192.5 540,-192.5"/>
<text text-anchor="start" x="547" y="-203.9" font-family="Arial" font-size="14.00" fill="#000000">name    </text>
<text text-anchor="start" x="616.2132" y="-203.9" font-family="Arial" font-size="14.00" fill="#666666">[varchar(255)]</text>
<polygon fill="none" stroke="#000000" points="540,-162.5 540,-192.5 883,-192.5 883,-162.5 540,-162.5"/>
<text text-anchor="start" x="546.9727" y="-173.9" font-family="Arial" font-size="14.00" fill="#000000">last_logged_in_at    </text>
<text text-anchor="start" x="690.8871" y="-173.9" font-family="Arial" font-size="14.00" fill="#666666">[timestamp without time zone]</text>
<polygon fill="none" stroke="#000000" points="540,-132.5 540,-162.5 883,-162.5 883,-132.5 540,-132.5"/>
<text text-anchor="start" x="547" y="-143.9" font-family="Arial" font-size="14.00" fill="#000000">created_by    </text>
<text text-anchor="start" x="650.4516" y="-143.9" font-family="Arial" font-size="14.00" fill="#666666">[uuid]</text>
<polygon fill="none" stroke="#000000" points="540,-102.5 540,-132.5 883,-132.5 883,-102.5 540,-102.5"/>
<text text-anchor="start" x="547" y="-113.9" font-family="Arial" font-size="14.00" fill="#000000">from_system    </text>
<text text-anchor="start" x="661.3156" y="-113.9" font-family="Arial" font-size="14.00" fill="#666666">[boolean]</text>
<polygon fill="none" stroke="#000000" points="540,-72.5 540,-102.5 883,-102.5 883,-72.5 540,-72.5"/>
<text text-anchor="start" x="547" y="-83.9" font-family="Arial" font-size="14.00" fill="#000000">created_at    </text>
<text text-anchor="start" x="647.3422" y="-83.9" font-family="Arial" font-size="14.00" fill="#666666">[timestamp with time zone]</text>
<polygon fill="none" stroke="#000000" points="540,-42.5 540,-72.5 883,-72.5 883,-42.5 540,-42.5"/>
<text text-anchor="start" x="547" y="-53.9" font-family="Arial" font-size="14.00" fill="#000000">updated_at    </text>
<text text-anchor="start" x="651.2468" y="-53.9" font-family="Arial" font-size="14.00" fill="#666666">[timestamp with time zone]</text>
</g>
<!-- public.m_storages&#45;&gt;public.m_users -->
<g id="edge2" class="edge">
<title>public.m_storages:created_by&#45;&gt;public.m_users:id</title>
<path fill="none" stroke="#000000" d="M557.7654,-546.7828C454.5807,-532.1191 431.6881,-297.5 540,-297.5"/>
<polygon fill="#000000" stroke="#000000" points="558.0245,-546.8009 567.6854,-551.989 563.0122,-547.1504 568,-547.5 568,-547.5 568,-547.5 563.0122,-547.1504 568.3146,-543.011 558.0245,-546.8009 558.0245,-546.8009"/>
<text text-anchor="start" x="86.2105" y="-557.5" font-family="Arial" font-size="10.00" fill="#000000">FOREIGN KEY (created_by) REFERENCES m_users(id) ON UPDATE SET NULL ON DELETE SET NULL</text>
</g>
<!-- public.t_group_storage_permission -->
<g id="node2" class="node">
<title>public.t_group_storage_permission</title>
<polygon fill="#efefef" stroke="transparent" points="501,-992.5 501,-1027.5 922,-1027.5 922,-992.5 501,-992.5"/>
<polygon fill="none" stroke="#000000" points="501,-992.5 501,-1027.5 922,-1027.5 922,-992.5 501,-992.5"/>
<text text-anchor="start" x="507.6841" y="-1005.3" font-family="Arial Bold" font-size="18.00" fill="#000000">public.t_group_storage_permission</text>
<text text-anchor="start" x="787.7479" y="-1005.3" font-family="Arial" font-size="14.00" fill="#000000">    </text>
<text text-anchor="start" x="821.9527" y="-1005.3" font-family="Arial" font-size="14.00" fill="#666666">[BASE TABLE]</text>
<polygon fill="none" stroke="#000000" points="501,-962.5 501,-992.5 922,-992.5 922,-962.5 501,-962.5"/>
<text text-anchor="start" x="508" y="-973.9" font-family="Arial" font-size="14.00" fill="#000000">storage_id    </text>
<text text-anchor="start" x="607.5582" y="-973.9" font-family="Arial" font-size="14.00" fill="#666666">[uuid]</text>
<polygon fill="none" stroke="#000000" points="501,-932.5 501,-962.5 922,-962.5 922,-932.5 501,-932.5"/>
<text text-anchor="start" x="508" y="-943.9" font-family="Arial" font-size="14.00" fill="#000000">group_id    </text>
<text text-anchor="start" x="596.6676" y="-943.9" font-family="Arial" font-size="14.00" fill="#666666">[uuid]</text>
<polygon fill="none" stroke="#000000" points="501,-902.5 501,-932.5 922,-932.5 922,-902.5 501,-902.5"/>
<text text-anchor="start" x="508" y="-913.9" font-family="Arial" font-size="14.00" fill="#000000">attached_by    </text>
<text text-anchor="start" x="618.4642" y="-913.9" font-family="Arial" font-size="14.00" fill="#666666">[uuid]</text>
<polygon fill="none" stroke="#000000" points="501,-872.5 501,-902.5 922,-902.5 922,-872.5 501,-872.5"/>
<text text-anchor="start" x="508" y="-883.9" font-family="Arial" font-size="14.00" fill="#000000">last_changed_by    </text>
<text text-anchor="start" x="648.028" y="-883.9" font-family="Arial" font-size="14.00" fill="#666666">[uuid]</text>
<polygon fill="none" stroke="#000000" points="501,-842.5 501,-872.5 922,-872.5 922,-842.5 501,-842.5"/>
<text text-anchor="start" x="508" y="-853.9" font-family="Arial" font-size="14.00" fill="#000000">attached_at    </text>
<text text-anchor="start" x="615.3548" y="-853.9" font-family="Arial" font-size="14.00" fill="#666666">[timestamp with time zone]</text>
<polygon fill="none" stroke="#000000" points="501,-812.5 501,-842.5 922,-842.5 922,-812.5 501,-812.5"/>
<text text-anchor="start" x="508" y="-823.9" font-family="Arial" font-size="14.00" fill="#000000">last_changed_at    </text>
<text text-anchor="start" x="644.9186" y="-823.9" font-family="Arial" font-size="14.00" fill="#666666">[timestamp with time zone]</text>
</g>
<!-- public.t_group_storage_permission&#45;&gt;public.m_storages -->
<g id="edge1" class="edge">
<title>public.t_group_storage_permission:storage_id&#45;&gt;public.m_storages:id</title>
<path fill="none" stroke="#000000" d="M490.9549,-976.9931C350.0365,-962.3981 417.4422,-637.5 568,-637.5"/>
<polygon fill="#000000" stroke="#000000" points="491.0127,-976.9959 500.7732,-981.9943 496.0064,-977.248 501,-977.5 501,-977.5 501,-977.5 496.0064,-977.248 501.2268,-973.0057 491.0127,-976.9959 491.0127,-976.9959"/>
<text text-anchor="start" x="7.1015" y="-987.5" font-family="Arial" font-size="10.00" fill="#000000">FOREIGN KEY (storage_id) REFERENCES m_storages(id) ON UPDATE CASCADE ON DELETE CASCADE</text>
</g>
</g>
</svg>
