<?xml version="1.0" encoding="UTF-8" standalone="no"?>
<!DOCTYPE svg PUBLIC "-//W3C//DTD SVG 1.1//EN"
 "http://www.w3.org/Graphics/SVG/1.1/DTD/svg11.dtd">
<!-- Generated by graphviz version 2.40.1 (20161225.0304)
 -->
<!-- Title: public.t_user_group_permission Pages: 1 -->
<svg width="1454pt" height="682pt"
 viewBox="0.00 0.00 1454.00 682.00" xmlns="http://www.w3.org/2000/svg" xmlns:xlink="http://www.w3.org/1999/xlink">
<g id="graph0" class="graph" transform="scale(1 1) rotate(0) translate(4 678)">
<title>public.t_user_group_permission</title>
<polygon fill="#ffffff" stroke="transparent" points="-4,4 -4,-678 1450,-678 1450,4 -4,4"/>
<!-- public.t_user_group_permission -->
<g id="node1" class="node">
<title>public.t_user_group_permission</title>
<polygon fill="#efefef" stroke="transparent" points="556,-592.5 556,-627.5 952,-627.5 952,-592.5 556,-592.5"/>
<polygon fill="none" stroke="#000000" points="556,-592.5 556,-627.5 952,-627.5 952,-592.5 556,-592.5"/>
<text text-anchor="start" x="562.6914" y="-605.3" font-family="Arial Bold" font-size="18.00" fill="#000000">public.t_user_group_permission</text>
<text text-anchor="start" x="817.7406" y="-605.3" font-family="Arial" font-size="14.00" fill="#000000">    </text>
<text text-anchor="start" x="851.9454" y="-605.3" font-family="Arial" font-size="14.00" fill="#666666">[BASE TABLE]</text>
<polygon fill="none" stroke="#000000" points="556,-562.5 556,-592.5 952,-592.5 952,-562.5 556,-562.5"/>
<text text-anchor="start" x="563" y="-573.9" font-family="Arial" font-size="14.00" fill="#000000">user_group_id </text>
<text text-anchor="start" x="656.3618" y="-573.9" font-family="Arial" font-size="14.00" fill="#666666">[integer]</text>
<polygon fill="none" stroke="#000000" points="556,-532.5 556,-562.5 952,-562.5 952,-532.5 556,-532.5"/>
<text text-anchor="start" x="563" y="-543.9" font-family="Arial" font-size="14.00" fill="#000000">permission_id </text>
<text text-anchor="start" x="653.2272" y="-543.9" font-family="Arial" font-size="14.00" fill="#666666">[uuid]</text>
<polygon fill="none" stroke="#000000" points="556,-502.5 556,-532.5 952,-532.5 952,-502.5 556,-502.5"/>
<text text-anchor="start" x="563" y="-513.9" font-family="Arial" font-size="14.00" fill="#000000">attached_by </text>
<text text-anchor="start" x="643.15" y="-513.9" font-family="Arial" font-size="14.00" fill="#666666">[uuid]</text>
<polygon fill="none" stroke="#000000" points="556,-472.5 556,-502.5 952,-502.5 952,-472.5 556,-472.5"/>
<text text-anchor="start" x="563" y="-483.9" font-family="Arial" font-size="14.00" fill="#000000">attached_at </text>
<text text-anchor="start" x="640.0406" y="-483.9" font-family="Arial" font-size="14.00" fill="#666666">[timestamp with time zone]</text>
<polygon fill="none" stroke="#000000" stroke-width="3" points="554.5,-471.5 554.5,-629.5 953.5,-629.5 953.5,-471.5 554.5,-471.5"/>
</g>
<!-- public.t_user_group -->
<g id="node2" class="node">
<title>public.t_user_group</title>
<polygon fill="#efefef" stroke="transparent" points="171,-252.5 171,-287.5 470,-287.5 470,-252.5 171,-252.5"/>
<polygon fill="none" stroke="#000000" points="171,-252.5 171,-287.5 470,-287.5 470,-252.5 171,-252.5"/>
<text text-anchor="start" x="177.6933" y="-265.3" font-family="Arial Bold" font-size="18.00" fill="#000000">public.t_user_group</text>
<text text-anchor="start" x="335.7387" y="-265.3" font-family="Arial" font-size="14.00" fill="#000000">    </text>
<text text-anchor="start" x="369.9435" y="-265.3" font-family="Arial" font-size="14.00" fill="#666666">[BASE TABLE]</text>
<polygon fill="none" stroke="#000000" points="171,-222.5 171,-252.5 470,-252.5 470,-222.5 171,-222.5"/>
<text text-anchor="start" x="178" y="-233.9" font-family="Arial" font-size="14.00" fill="#000000">id    </text>
<text text-anchor="start" x="223.094" y="-233.9" font-family="Arial" font-size="14.00" fill="#666666">[integer]</text>
<polygon fill="none" stroke="#000000" points="171,-192.5 171,-222.5 470,-222.5 470,-192.5 171,-192.5"/>
<text text-anchor="start" x="178" y="-203.9" font-family="Arial" font-size="14.00" fill="#000000">user_id    </text>
<text text-anchor="start" x="258.1024" y="-203.9" font-family="Arial" font-size="14.00" fill="#666666">[uuid]</text>
<polygon fill="none" stroke="#000000" points="171,-162.5 171,-192.5 470,-192.5 470,-162.5 171,-162.5"/>
<text text-anchor="start" x="178" y="-173.9" font-family="Arial" font-size="14.00" fill="#000000">group_id    </text>
<text text-anchor="start" x="266.6676" y="-173.9" font-family="Arial" font-size="14.00" fill="#666666">[uuid]</text>
<polygon fill="none" stroke="#000000" points="171,-132.5 171,-162.5 470,-162.5 470,-132.5 171,-132.5"/>
<text text-anchor="start" x="178" y="-143.9" font-family="Arial" font-size="14.00" fill="#000000">is_valid    </text>
<text text-anchor="start" x="258.8724" y="-143.9" font-family="Arial" font-size="14.00" fill="#666666">[boolean]</text>
<polygon fill="none" stroke="#000000" points="171,-102.5 171,-132.5 470,-132.5 470,-102.5 171,-102.5"/>
<text text-anchor="start" x="178" y="-113.9" font-family="Arial" font-size="14.00" fill="#000000">added_at    </text>
<text text-anchor="start" x="270.5736" y="-113.9" font-family="Arial" font-size="14.00" fill="#666666">[timestamp with time zone]</text>
</g>
<!-- public.t_user_group_permission&#45;&gt;public.t_user_group -->
<g id="edge1" class="edge">
<title>public.t_user_group_permission:user_group_id&#45;&gt;public.t_user_group:id</title>
<path fill="none" stroke="#000000" d="M545.9842,-575.3288C484.2905,-546.3721 544.2819,-237.5 470,-237.5"/>
<polygon fill="#000000" stroke="#000000" points="546.227,-575.3814 555.0466,-581.8979 551.1135,-576.4407 556,-577.5 556,-577.5 556,-577.5 551.1135,-576.4407 556.9534,-573.1021 546.227,-575.3814 546.227,-575.3814"/>
<text text-anchor="start" x="38.1495" y="-587.5" font-family="Arial" font-size="10.00" fill="#000000">FOREIGN KEY (user_group_id) REFERENCES t_user_group(id) ON UPDATE CASCADE ON DELETE CASCADE</text>
</g>
<!-- public.m_user_permissions -->
<g id="node3" class="node">
<title>public.m_user_permissions</title>
<polygon fill="#efefef" stroke="transparent" points="574,-237.5 574,-272.5 933,-272.5 933,-237.5 574,-237.5"/>
<polygon fill="none" stroke="#000000" points="574,-237.5 574,-272.5 933,-272.5 933,-237.5 574,-237.5"/>
<text text-anchor="start" x="580.708" y="-250.3" font-family="Arial Bold" font-size="18.00" fill="#000000">public.m_user_permissions</text>
<text text-anchor="start" x="798.724" y="-250.3" font-family="Arial" font-size="14.00" fill="#000000">    </text>
<text text-anchor="start" x="832.9288" y="-250.3" font-family="Arial" font-size="14.00" fill="#666666">[BASE TABLE]</text>
<polygon fill="none" stroke="#000000" points="574,-207.5 574,-237.5 933,-237.5 933,-207.5 574,-207.5"/>
<text text-anchor="start" x="581" y="-218.9" font-family="Arial" font-size="14.00" fill="#000000">id    </text>
<text text-anchor="start" x="626.094" y="-218.9" font-family="Arial" font-size="14.00" fill="#666666">[uuid]</text>
<polygon fill="none" stroke="#000000" points="574,-177.5 574,-207.5 933,-207.5 933,-177.5 574,-177.5"/>
<text text-anchor="start" x="581" y="-188.9" font-family="Arial" font-size="14.00" fill="#000000">name    </text>
<text text-anchor="start" x="650.2132" y="-188.9" font-family="Arial" font-size="14.00" fill="#666666">[varchar(255)]</text>
<polygon fill="none" stroke="#000000" points="574,-147.5 574,-177.5 933,-177.5 933,-147.5 574,-147.5"/>
<text text-anchor="start" x="581" y="-158.9" font-family="Arial" font-size="14.00" fill="#000000">detail    </text>
<text text-anchor="start" x="648.6564" y="-158.9" font-family="Arial" font-size="14.00" fill="#666666">[text]</text>
<polygon fill="none" stroke="#000000" points="574,-117.5 574,-147.5 933,-147.5 933,-117.5 574,-117.5"/>
<text text-anchor="start" x="581" y="-128.9" font-family="Arial" font-size="14.00" fill="#000000">category_id    </text>
<text text-anchor="start" x="687.5582" y="-128.9" font-family="Arial" font-size="14.00" fill="#666666">[uuid]</text>
</g>
<!-- public.t_user_group_permission&#45;&gt;public.m_user_permissions -->
<g id="edge2" class="edge">
<title>public.t_user_group_permission:permission_id&#45;&gt;public.m_user_permissions:id</title>
<path fill="none" stroke="#000000" d="M546.0482,-546.4478C505.4303,-537.0509 526.1141,-466.9537 556,-427 660.6225,-287.133 828.3775,-455.867 933,-316 957.891,-282.7239 974.5556,-222.5 933,-222.5"/>
<polygon fill="#000000" stroke="#000000" points="546.0554,-546.4485 555.5268,-551.9751 551.0277,-546.9742 556,-547.5 556,-547.5 556,-547.5 551.0277,-546.9742 556.4732,-543.0249 546.0554,-546.4485 546.0554,-546.4485"/>
<text text-anchor="start" x="6.6105" y="-557.5" font-family="Arial" font-size="10.00" fill="#000000">FOREIGN KEY (permission_id) REFERENCES m_user_permissions(id) ON UPDATE CASCADE ON DELETE CASCADE</text>
</g>
<!-- public.m_users -->
<g id="node4" class="node">
<title>public.m_users</title>
<polygon fill="#efefef" stroke="transparent" points="1037,-312.5 1037,-347.5 1380,-347.5 1380,-312.5 1037,-312.5"/>
<polygon fill="none" stroke="#000000" points="1037,-312.5 1037,-347.5 1380,-347.5 1380,-312.5 1037,-312.5"/>
<text text-anchor="start" x="1084.2099" y="-325.3" font-family="Arial Bold" font-size="18.00" fill="#000000">public.m_users</text>
<text text-anchor="start" x="1205.2221" y="-325.3" font-family="Arial" font-size="14.00" fill="#000000">    </text>
<text text-anchor="start" x="1239.4269" y="-325.3" font-family="Arial" font-size="14.00" fill="#666666">[BASE TABLE]</text>
<polygon fill="none" stroke="#000000" points="1037,-282.5 1037,-312.5 1380,-312.5 1380,-282.5 1037,-282.5"/>
<text text-anchor="start" x="1044" y="-293.9" font-family="Arial" font-size="14.00" fill="#000000">id    </text>
<text text-anchor="start" x="1089.094" y="-293.9" font-family="Arial" font-size="14.00" fill="#666666">[uuid]</text>
<polygon fill="none" stroke="#000000" points="1037,-252.5 1037,-282.5 1380,-282.5 1380,-252.5 1037,-252.5"/>
<text text-anchor="start" x="1044" y="-263.9" font-family="Arial" font-size="14.00" fill="#000000">login_id    </text>
<text text-anchor="start" x="1126.4376" y="-263.9" font-family="Arial" font-size="14.00" fill="#666666">[varchar(255)]</text>
<polygon fill="none" stroke="#000000" points="1037,-222.5 1037,-252.5 1380,-252.5 1380,-222.5 1037,-222.5"/>
<text text-anchor="start" x="1044" y="-233.9" font-family="Arial" font-size="14.00" fill="#000000">password    </text>
<text text-anchor="start" x="1138.1024" y="-233.9" font-family="Arial" font-size="14.00" fill="#666666">[varchar(255)]</text>
<polygon fill="none" stroke="#000000" points="1037,-192.5 1037,-222.5 1380,-222.5 1380,-192.5 1037,-192.5"/>
<text text-anchor="start" x="1044" y="-203.9" font-family="Arial" font-size="14.00" fill="#000000">name    </text>
<text text-anchor="start" x="1113.2132" y="-203.9" font-family="Arial" font-size="14.00" fill="#666666">[varchar(255)]</text>
<polygon fill="none" stroke="#000000" points="1037,-162.5 1037,-192.5 1380,-192.5 1380,-162.5 1037,-162.5"/>
<text text-anchor="start" x="1043.9727" y="-173.9" font-family="Arial" font-size="14.00" fill="#000000">last_logged_in_at    </text>
<text text-anchor="start" x="1187.8871" y="-173.9" font-family="Arial" font-size="14.00" fill="#666666">[timestamp without time zone]</text>
<polygon fill="none" stroke="#000000" points="1037,-132.5 1037,-162.5 1380,-162.5 1380,-132.5 1037,-132.5"/>
<text text-anchor="start" x="1044" y="-143.9" font-family="Arial" font-size="14.00" fill="#000000">created_by    </text>
<text text-anchor="start" x="1147.4516" y="-143.9" font-family="Arial" font-size="14.00" fill="#666666">[uuid]</text>
<polygon fill="none" stroke="#000000" points="1037,-102.5 1037,-132.5 1380,-132.5 1380,-102.5 1037,-102.5"/>
<text text-anchor="start" x="1044" y="-113.9" font-family="Arial" font-size="14.00" fill="#000000">from_system    </text>
<text text-anchor="start" x="1158.3156" y="-113.9" font-family="Arial" font-size="14.00" fill="#666666">[boolean]</text>
<polygon fill="none" stroke="#000000" points="1037,-72.5 1037,-102.5 1380,-102.5 1380,-72.5 1037,-72.5"/>
<text text-anchor="start" x="1044" y="-83.9" font-family="Arial" font-size="14.00" fill="#000000">created_at    </text>
<text text-anchor="start" x="1144.3422" y="-83.9" font-family="Arial" font-size="14.00" fill="#666666">[timestamp with time zone]</text>
<polygon fill="none" stroke="#000000" points="1037,-42.5 1037,-72.5 1380,-72.5 1380,-42.5 1037,-42.5"/>
<text text-anchor="start" x="1044" y="-53.9" font-family="Arial" font-size="14.00" fill="#000000">updated_at    </text>
<text text-anchor="start" x="1148.2468" y="-53.9" font-family="Arial" font-size="14.00" fill="#666666">[timestamp with time zone]</text>
</g>
<!-- public.t_user_group_permission&#45;&gt;public.m_users -->
<g id="edge3" class="edge">
<title>public.t_user_group_permission:attached_by&#45;&gt;public.m_users:id</title>
<path fill="none" stroke="#000000" d="M962.2246,-516.7034C1048.3416,-502.3032 935.8631,-297.5 1037,-297.5"/>
<polygon fill="#000000" stroke="#000000" points="961.9698,-516.7231 951.6504,-513.0136 956.9849,-517.1116 952,-517.5 952,-517.5 952,-517.5 956.9849,-517.1116 952.3496,-521.9864 961.9698,-516.7231 961.9698,-516.7231"/>
<text text-anchor="start" x="958.706" y="-527.5" font-family="Arial" font-size="10.00" fill="#000000">FOREIGN KEY (attached_by) REFERENCES m_users(id) ON UPDATE SET NULL ON DELETE SET NULL</text>
</g>
</g>
</svg>
