<?xml version="1.0" encoding="UTF-8" standalone="no"?>
<!DOCTYPE svg PUBLIC "-//W3C//DTD SVG 1.1//EN"
 "http://www.w3.org/Graphics/SVG/1.1/DTD/svg11.dtd">
<!-- Generated by graphviz version 2.40.1 (20161225.0304)
 -->
<!-- Title: public.m_users Pages: 1 -->
<svg width="4554pt" height="832pt"
 viewBox="0.00 0.00 4554.00 832.00" xmlns="http://www.w3.org/2000/svg" xmlns:xlink="http://www.w3.org/1999/xlink">
<g id="graph0" class="graph" transform="scale(1 1) rotate(0) translate(4 828)">
<title>public.m_users</title>
<polygon fill="#ffffff" stroke="transparent" points="-4,4 -4,-828 4550,-828 4550,4 -4,4"/>
<!-- public.m_users -->
<g id="node1" class="node">
<title>public.m_users</title>
<polygon fill="#efefef" stroke="transparent" points="1849,-315.5 1849,-350.5 2161,-350.5 2161,-315.5 1849,-315.5"/>
<polygon fill="none" stroke="#000000" points="1849,-315.5 1849,-350.5 2161,-350.5 2161,-315.5 1849,-315.5"/>
<text text-anchor="start" x="1880.7099" y="-328.3" font-family="Arial Bold" font-size="18.00" fill="#000000">public.m_users</text>
<text text-anchor="start" x="2001.7221" y="-328.3" font-family="Arial" font-size="14.00" fill="#000000">    </text>
<text text-anchor="start" x="2035.9269" y="-328.3" font-family="Arial" font-size="14.00" fill="#666666">[BASE TABLE]</text>
<polygon fill="none" stroke="#000000" points="1849,-285.5 1849,-315.5 2161,-315.5 2161,-285.5 1849,-285.5"/>
<text text-anchor="start" x="1856" y="-296.9" font-family="Arial" font-size="14.00" fill="#000000">id </text>
<text text-anchor="start" x="1870.7798" y="-296.9" font-family="Arial" font-size="14.00" fill="#666666">[uuid]</text>
<polygon fill="none" stroke="#000000" points="1849,-255.5 1849,-285.5 2161,-285.5 2161,-255.5 1849,-255.5"/>
<text text-anchor="start" x="1856" y="-266.9" font-family="Arial" font-size="14.00" fill="#000000">login_id </text>
<text text-anchor="start" x="1908.1234" y="-266.9" font-family="Arial" font-size="14.00" fill="#666666">[varchar(255)]</text>
<polygon fill="none" stroke="#000000" points="1849,-225.5 1849,-255.5 2161,-255.5 2161,-225.5 1849,-225.5"/>
<text text-anchor="start" x="1856" y="-236.9" font-family="Arial" font-size="14.00" fill="#000000">password </text>
<text text-anchor="start" x="1919.7882" y="-236.9" font-family="Arial" font-size="14.00" fill="#666666">[varchar(255)]</text>
<polygon fill="none" stroke="#000000" points="1849,-195.5 1849,-225.5 2161,-225.5 2161,-195.5 1849,-195.5"/>
<text text-anchor="start" x="1856" y="-206.9" font-family="Arial" font-size="14.00" fill="#000000">name </text>
<text text-anchor="start" x="1894.899" y="-206.9" font-family="Arial" font-size="14.00" fill="#666666">[varchar(255)]</text>
<polygon fill="none" stroke="#000000" points="1849,-165.5 1849,-195.5 2161,-195.5 2161,-165.5 1849,-165.5"/>
<text text-anchor="start" x="1855.6298" y="-176.9" font-family="Arial" font-size="14.00" fill="#000000">last_logged_in_at </text>
<text text-anchor="start" x="1969.23" y="-176.9" font-family="Arial" font-size="14.00" fill="#666666">[timestamp without time zone]</text>
<polygon fill="none" stroke="#000000" points="1849,-135.5 1849,-165.5 2161,-165.5 2161,-135.5 1849,-135.5"/>
<text text-anchor="start" x="1856" y="-146.9" font-family="Arial" font-size="14.00" fill="#000000">created_by </text>
<text text-anchor="start" x="1929.1374" y="-146.9" font-family="Arial" font-size="14.00" fill="#666666">[uuid]</text>
<polygon fill="none" stroke="#000000" points="1849,-105.5 1849,-135.5 2161,-135.5 2161,-105.5 1849,-105.5"/>
<text text-anchor="start" x="1856" y="-116.9" font-family="Arial" font-size="14.00" fill="#000000">from_system </text>
<text text-anchor="start" x="1940.0014" y="-116.9" font-family="Arial" font-size="14.00" fill="#666666">[boolean]</text>
<polygon fill="none" stroke="#000000" points="1849,-75.5 1849,-105.5 2161,-105.5 2161,-75.5 1849,-75.5"/>
<text text-anchor="start" x="1856" y="-86.9" font-family="Arial" font-size="14.00" fill="#000000">created_at </text>
<text text-anchor="start" x="1926.028" y="-86.9" font-family="Arial" font-size="14.00" fill="#666666">[timestamp with time zone]</text>
<polygon fill="none" stroke="#000000" points="1849,-45.5 1849,-75.5 2161,-75.5 2161,-45.5 1849,-45.5"/>
<text text-anchor="start" x="1856" y="-56.9" font-family="Arial" font-size="14.00" fill="#000000">updated_at </text>
<text text-anchor="start" x="1929.9326" y="-56.9" font-family="Arial" font-size="14.00" fill="#666666">[timestamp with time zone]</text>
<polygon fill="none" stroke="#000000" stroke-width="3" points="1847.5,-44.5 1847.5,-352.5 2162.5,-352.5 2162.5,-44.5 1847.5,-44.5"/>
</g>
<!-- public.m_users&#45;&gt;public.m_users -->
<g id="edge1" class="edge">
<title>public.m_users:created_by&#45;&gt;public.m_users:id</title>
<path fill="none" stroke="#000000" d="M2006.4472,-175.7051C2013.9709,-324.0745 2013.4886,-612 2005,-612 1996.3252,-612 1996.0118,-450.6567 2004.0597,-315.5714"/>
<polygon fill="#000000" stroke="#000000" points="2006.4464,-175.6899 2010.4095,-165.4653 2006.1811,-170.697 2005.9158,-165.704 2005.9158,-165.704 2005.9158,-165.704 2006.1811,-170.697 2001.4222,-165.9428 2006.4464,-175.6899 2006.4464,-175.6899"/>
<text text-anchor="start" x="1524.1263" y="-175.704" font-family="Arial" font-size="10.00" fill="#000000">FOREIGN KEY (created_by) REFERENCES m_users(id) ON UPDATE SET NULL ON DELETE SET NULL</text>
</g>
<!-- public.t_user_role -->
<g id="node2" class="node">
<title>public.t_user_role</title>
<polygon fill="#efefef" stroke="transparent" points="207,-685.5 207,-720.5 494,-720.5 494,-685.5 207,-685.5"/>
<polygon fill="none" stroke="#000000" points="207,-685.5 207,-720.5 494,-720.5 494,-685.5 207,-685.5"/>
<text text-anchor="start" x="215.7024" y="-698.3" font-family="Arial Bold" font-size="18.00" fill="#000000">public.t_user_role</text>
<text text-anchor="start" x="357.7296" y="-698.3" font-family="Arial" font-size="14.00" fill="#000000">    </text>
<text text-anchor="start" x="391.9344" y="-698.3" font-family="Arial" font-size="14.00" fill="#666666">[BASE TABLE]</text>
<polygon fill="none" stroke="#000000" points="207,-655.5 207,-685.5 494,-685.5 494,-655.5 207,-655.5"/>
<text text-anchor="start" x="214" y="-666.9" font-family="Arial" font-size="14.00" fill="#000000">user_id    </text>
<text text-anchor="start" x="294.1024" y="-666.9" font-family="Arial" font-size="14.00" fill="#666666">[uuid]</text>
<polygon fill="none" stroke="#000000" points="207,-625.5 207,-655.5 494,-655.5 494,-625.5 207,-625.5"/>
<text text-anchor="start" x="214" y="-636.9" font-family="Arial" font-size="14.00" fill="#000000">role_id    </text>
<text text-anchor="start" x="290.209" y="-636.9" font-family="Arial" font-size="14.00" fill="#666666">[uuid]</text>
<polygon fill="none" stroke="#000000" points="207,-595.5 207,-625.5 494,-625.5 494,-595.5 207,-595.5"/>
<text text-anchor="start" x="214" y="-606.9" font-family="Arial" font-size="14.00" fill="#000000">attached_by    </text>
<text text-anchor="start" x="324.4642" y="-606.9" font-family="Arial" font-size="14.00" fill="#666666">[uuid]</text>
<polygon fill="none" stroke="#000000" points="207,-565.5 207,-595.5 494,-595.5 494,-565.5 207,-565.5"/>
<text text-anchor="start" x="214" y="-576.9" font-family="Arial" font-size="14.00" fill="#000000">from_system    </text>
<text text-anchor="start" x="328.3156" y="-576.9" font-family="Arial" font-size="14.00" fill="#666666">[boolean]</text>
<polygon fill="none" stroke="#000000" points="207,-535.5 207,-565.5 494,-565.5 494,-535.5 207,-535.5"/>
<text text-anchor="start" x="213.9804" y="-546.9" font-family="Arial" font-size="14.00" fill="#000000">attached_at    </text>
<text text-anchor="start" x="321.3352" y="-546.9" font-family="Arial" font-size="14.00" fill="#666666">[timestamp with time zone]</text>
</g>
<!-- public.t_user_role&#45;&gt;public.m_users -->
<g id="edge2" class="edge">
<title>public.t_user_role:attached_by&#45;&gt;public.m_users:id</title>
<path fill="none" stroke="#000000" d="M504.0255,-609.7619C567.9466,-599.4274 484.8467,-483.2704 545,-433 656.7494,-339.6105 1703.3651,-300.5 1849,-300.5"/>
<polygon fill="#000000" stroke="#000000" points="503.973,-609.7657 493.6696,-606.0121 498.9865,-610.1329 494,-610.5 494,-610.5 494,-610.5 498.9865,-610.1329 494.3304,-614.9879 503.973,-609.7657 503.973,-609.7657"/>
<text text-anchor="start" x="6.706" y="-620.5" font-family="Arial" font-size="10.00" fill="#000000">FOREIGN KEY (attached_by) REFERENCES m_users(id) ON UPDATE SET NULL ON DELETE SET NULL</text>
</g>
<!-- public.t_user_role&#45;&gt;public.m_users -->
<g id="edge3" class="edge">
<title>public.t_user_role:user_id&#45;&gt;public.m_users:id</title>
<path fill="none" stroke="#000000" d="M504.2289,-669.9304C592.8242,-659.2969 467.318,-502.5564 545,-433 653.4975,-335.8515 1703.3651,-300.5 1849,-300.5"/>
<polygon fill="#000000" stroke="#000000" points="503.9845,-669.9439 493.7497,-666.007 498.9923,-670.2219 494,-670.5 494,-670.5 494,-670.5 498.9923,-670.2219 494.2503,-674.993 503.9845,-669.9439 503.9845,-669.9439"/>
<text text-anchor="start" x="26.9985" y="-680.5" font-family="Arial" font-size="10.00" fill="#000000">FOREIGN KEY (user_id) REFERENCES m_users(id) ON UPDATE CASCADE ON DELETE CASCADE</text>
</g>
<!-- public.m_groups -->
<g id="node3" class="node">
<title>public.m_groups</title>
<polygon fill="#efefef" stroke="transparent" points="598,-730.5 598,-765.5 881,-765.5 881,-730.5 598,-730.5"/>
<polygon fill="none" stroke="#000000" points="598,-730.5 598,-765.5 881,-765.5 881,-730.5 598,-730.5"/>
<text text-anchor="start" x="609.7037" y="-743.3" font-family="Arial Bold" font-size="18.00" fill="#000000">public.m_groups</text>
<text text-anchor="start" x="741.7283" y="-743.3" font-family="Arial" font-size="14.00" fill="#000000">    </text>
<text text-anchor="start" x="775.9331" y="-743.3" font-family="Arial" font-size="14.00" fill="#666666">[BASE TABLE]</text>
<polygon fill="none" stroke="#000000" points="598,-700.5 598,-730.5 881,-730.5 881,-700.5 598,-700.5"/>
<text text-anchor="start" x="605" y="-711.9" font-family="Arial" font-size="14.00" fill="#000000">id    </text>
<text text-anchor="start" x="650.094" y="-711.9" font-family="Arial" font-size="14.00" fill="#666666">[uuid]</text>
<polygon fill="none" stroke="#000000" points="598,-670.5 598,-700.5 881,-700.5 881,-670.5 598,-670.5"/>
<text text-anchor="start" x="605" y="-681.9" font-family="Arial" font-size="14.00" fill="#000000">name    </text>
<text text-anchor="start" x="674.2132" y="-681.9" font-family="Arial" font-size="14.00" fill="#666666">[varchar(255)]</text>
<polygon fill="none" stroke="#000000" points="598,-640.5 598,-670.5 881,-670.5 881,-640.5 598,-640.5"/>
<text text-anchor="start" x="605" y="-651.9" font-family="Arial" font-size="14.00" fill="#000000">is_open    </text>
<text text-anchor="start" x="688.2244" y="-651.9" font-family="Arial" font-size="14.00" fill="#666666">[boolean]</text>
<polygon fill="none" stroke="#000000" points="598,-610.5 598,-640.5 881,-640.5 881,-610.5 598,-610.5"/>
<text text-anchor="start" x="605" y="-621.9" font-family="Arial" font-size="14.00" fill="#000000">is_primitive    </text>
<text text-anchor="start" x="709.1908" y="-621.9" font-family="Arial" font-size="14.00" fill="#666666">[boolean]</text>
<polygon fill="none" stroke="#000000" points="598,-580.5 598,-610.5 881,-610.5 881,-580.5 598,-580.5"/>
<text text-anchor="start" x="605" y="-591.9" font-family="Arial" font-size="14.00" fill="#000000">is_personal    </text>
<text text-anchor="start" x="710.7742" y="-591.9" font-family="Arial" font-size="14.00" fill="#666666">[boolean]</text>
<polygon fill="none" stroke="#000000" points="598,-550.5 598,-580.5 881,-580.5 881,-550.5 598,-550.5"/>
<text text-anchor="start" x="605" y="-561.9" font-family="Arial" font-size="14.00" fill="#000000">created_by    </text>
<text text-anchor="start" x="708.4516" y="-561.9" font-family="Arial" font-size="14.00" fill="#666666">[uuid]</text>
<polygon fill="none" stroke="#000000" points="598,-520.5 598,-550.5 881,-550.5 881,-520.5 598,-520.5"/>
<text text-anchor="start" x="605" y="-531.9" font-family="Arial" font-size="14.00" fill="#000000">created_at    </text>
<text text-anchor="start" x="705.3422" y="-531.9" font-family="Arial" font-size="14.00" fill="#666666">[timestamp with time zone]</text>
<polygon fill="none" stroke="#000000" points="598,-490.5 598,-520.5 881,-520.5 881,-490.5 598,-490.5"/>
<text text-anchor="start" x="604.5344" y="-501.9" font-family="Arial" font-size="14.00" fill="#000000">updated_at    </text>
<text text-anchor="start" x="708.7812" y="-501.9" font-family="Arial" font-size="14.00" fill="#666666">[timestamp with time zone]</text>
</g>
<!-- public.m_groups&#45;&gt;public.m_users -->
<g id="edge4" class="edge">
<title>public.m_groups:created_by&#45;&gt;public.m_users:id</title>
<path fill="none" stroke="#000000" d="M891.1443,-564.5082C937.0683,-554.4178 885.6618,-469.9714 932,-433 1092.9441,-304.5891 1643.106,-300.5 1849,-300.5"/>
<polygon fill="#000000" stroke="#000000" points="890.9525,-564.5269 880.5621,-561.0214 885.9763,-565.0134 881,-565.5 881,-565.5 881,-565.5 885.9763,-565.0134 881.4379,-569.9786 890.9525,-564.5269 890.9525,-564.5269"/>
<text text-anchor="start" x="399.2105" y="-575.5" font-family="Arial" font-size="10.00" fill="#000000">FOREIGN KEY (created_by) REFERENCES m_users(id) ON UPDATE SET NULL ON DELETE SET NULL</text>
</g>
<!-- public.t_user_group -->
<g id="node4" class="node">
<title>public.t_user_group</title>
<polygon fill="#efefef" stroke="transparent" points="985,-685.5 985,-720.5 1284,-720.5 1284,-685.5 985,-685.5"/>
<polygon fill="none" stroke="#000000" points="985,-685.5 985,-720.5 1284,-720.5 1284,-685.5 985,-685.5"/>
<text text-anchor="start" x="991.6933" y="-698.3" font-family="Arial Bold" font-size="18.00" fill="#000000">public.t_user_group</text>
<text text-anchor="start" x="1149.7387" y="-698.3" font-family="Arial" font-size="14.00" fill="#000000">    </text>
<text text-anchor="start" x="1183.9435" y="-698.3" font-family="Arial" font-size="14.00" fill="#666666">[BASE TABLE]</text>
<polygon fill="none" stroke="#000000" points="985,-655.5 985,-685.5 1284,-685.5 1284,-655.5 985,-655.5"/>
<text text-anchor="start" x="992" y="-666.9" font-family="Arial" font-size="14.00" fill="#000000">id    </text>
<text text-anchor="start" x="1037.094" y="-666.9" font-family="Arial" font-size="14.00" fill="#666666">[integer]</text>
<polygon fill="none" stroke="#000000" points="985,-625.5 985,-655.5 1284,-655.5 1284,-625.5 985,-625.5"/>
<text text-anchor="start" x="992" y="-636.9" font-family="Arial" font-size="14.00" fill="#000000">user_id    </text>
<text text-anchor="start" x="1072.1024" y="-636.9" font-family="Arial" font-size="14.00" fill="#666666">[uuid]</text>
<polygon fill="none" stroke="#000000" points="985,-595.5 985,-625.5 1284,-625.5 1284,-595.5 985,-595.5"/>
<text text-anchor="start" x="992" y="-606.9" font-family="Arial" font-size="14.00" fill="#000000">group_id    </text>
<text text-anchor="start" x="1080.6676" y="-606.9" font-family="Arial" font-size="14.00" fill="#666666">[uuid]</text>
<polygon fill="none" stroke="#000000" points="985,-565.5 985,-595.5 1284,-595.5 1284,-565.5 985,-565.5"/>
<text text-anchor="start" x="992" y="-576.9" font-family="Arial" font-size="14.00" fill="#000000">is_valid    </text>
<text text-anchor="start" x="1072.8724" y="-576.9" font-family="Arial" font-size="14.00" fill="#666666">[boolean]</text>
<polygon fill="none" stroke="#000000" points="985,-535.5 985,-565.5 1284,-565.5 1284,-535.5 985,-535.5"/>
<text text-anchor="start" x="992" y="-546.9" font-family="Arial" font-size="14.00" fill="#000000">added_at    </text>
<text text-anchor="start" x="1084.5736" y="-546.9" font-family="Arial" font-size="14.00" fill="#666666">[timestamp with time zone]</text>
</g>
<!-- public.t_user_group&#45;&gt;public.m_users -->
<g id="edge5" class="edge">
<title>public.t_user_group:user_id&#45;&gt;public.m_users:id</title>
<path fill="none" stroke="#000000" d="M1294.2101,-639.8719C1370.5863,-629.6753 1270.8364,-497.8917 1335,-433 1417.9358,-349.1231 1731.0437,-300.5 1849,-300.5"/>
<polygon fill="#000000" stroke="#000000" points="1293.9811,-639.8859 1283.7237,-636.0085 1288.9906,-640.193 1284,-640.5 1284,-640.5 1284,-640.5 1288.9906,-640.193 1284.2763,-644.9915 1293.9811,-639.8859 1293.9811,-639.8859"/>
<text text-anchor="start" x="1053.9985" y="-624.5" font-family="Arial" font-size="10.00" fill="#000000">FOREIGN KEY (user_id) REFERENCES m_users(id) ON UPDATE CASCADE ON DELETE CASCADE</text>
</g>
<!-- public.t_group_invites -->
<g id="node5" class="node">
<title>public.t_group_invites</title>
<polygon fill="#efefef" stroke="transparent" points="1388,-715.5 1388,-750.5 1703,-750.5 1703,-715.5 1388,-715.5"/>
<polygon fill="none" stroke="#000000" points="1388,-715.5 1388,-750.5 1703,-750.5 1703,-715.5 1388,-715.5"/>
<text text-anchor="start" x="1394.6941" y="-728.3" font-family="Arial Bold" font-size="18.00" fill="#000000">public.t_group_invites</text>
<text text-anchor="start" x="1568.7379" y="-728.3" font-family="Arial" font-size="14.00" fill="#000000">    </text>
<text text-anchor="start" x="1602.9427" y="-728.3" font-family="Arial" font-size="14.00" fill="#666666">[BASE TABLE]</text>
<polygon fill="none" stroke="#000000" points="1388,-685.5 1388,-715.5 1703,-715.5 1703,-685.5 1388,-685.5"/>
<text text-anchor="start" x="1395" y="-696.9" font-family="Arial" font-size="14.00" fill="#000000">user_id    </text>
<text text-anchor="start" x="1475.1024" y="-696.9" font-family="Arial" font-size="14.00" fill="#666666">[uuid]</text>
<polygon fill="none" stroke="#000000" points="1388,-655.5 1388,-685.5 1703,-685.5 1703,-655.5 1388,-655.5"/>
<text text-anchor="start" x="1395" y="-666.9" font-family="Arial" font-size="14.00" fill="#000000">group_id    </text>
<text text-anchor="start" x="1483.6676" y="-666.9" font-family="Arial" font-size="14.00" fill="#666666">[uuid]</text>
<polygon fill="none" stroke="#000000" points="1388,-625.5 1388,-655.5 1703,-655.5 1703,-625.5 1388,-625.5"/>
<text text-anchor="start" x="1395" y="-636.9" font-family="Arial" font-size="14.00" fill="#000000">is_valid    </text>
<text text-anchor="start" x="1475.8724" y="-636.9" font-family="Arial" font-size="14.00" fill="#666666">[boolean]</text>
<polygon fill="none" stroke="#000000" points="1388,-595.5 1388,-625.5 1703,-625.5 1703,-595.5 1388,-595.5"/>
<text text-anchor="start" x="1395" y="-606.9" font-family="Arial" font-size="14.00" fill="#000000">invited_by    </text>
<text text-anchor="start" x="1492.2216" y="-606.9" font-family="Arial" font-size="14.00" fill="#666666">[uuid]</text>
<polygon fill="none" stroke="#000000" points="1388,-565.5 1388,-595.5 1703,-595.5 1703,-565.5 1388,-565.5"/>
<text text-anchor="start" x="1395" y="-576.9" font-family="Arial" font-size="14.00" fill="#000000">canceled_by    </text>
<text text-anchor="start" x="1507.7896" y="-576.9" font-family="Arial" font-size="14.00" fill="#666666">[uuid]</text>
<polygon fill="none" stroke="#000000" points="1388,-535.5 1388,-565.5 1703,-565.5 1703,-535.5 1388,-535.5"/>
<text text-anchor="start" x="1395" y="-546.9" font-family="Arial" font-size="14.00" fill="#000000">invited_at    </text>
<text text-anchor="start" x="1489.1122" y="-546.9" font-family="Arial" font-size="14.00" fill="#666666">[timestamp with time zone]</text>
<polygon fill="none" stroke="#000000" points="1388,-505.5 1388,-535.5 1703,-535.5 1703,-505.5 1388,-505.5"/>
<text text-anchor="start" x="1395" y="-516.9" font-family="Arial" font-size="14.00" fill="#000000">canceled_at    </text>
<text text-anchor="start" x="1504.6802" y="-516.9" font-family="Arial" font-size="14.00" fill="#666666">[timestamp with time zone]</text>
</g>
<!-- public.t_group_invites&#45;&gt;public.m_users -->
<g id="edge6" class="edge">
<title>public.t_group_invites:canceled_by&#45;&gt;public.m_users:id</title>
<path fill="none" stroke="#000000" d="M1713.0334,-579.8005C1767.5176,-571.5198 1724.7122,-491.465 1755,-433 1788.2127,-368.8891 1776.7969,-300.5 1849,-300.5"/>
<polygon fill="#000000" stroke="#000000" points="1712.9758,-579.8044 1702.687,-576.0109 1707.9879,-580.1522 1703,-580.5 1703,-580.5 1703,-580.5 1707.9879,-580.1522 1703.313,-584.9891 1712.9758,-579.8044 1712.9758,-579.8044"/>
<text text-anchor="start" x="1709.8755" y="-590.5" font-family="Arial" font-size="10.00" fill="#000000">FOREIGN KEY (canceled_by) REFERENCES m_users(id) ON UPDATE SET NULL ON DELETE SET NULL</text>
</g>
<!-- public.t_group_invites&#45;&gt;public.m_users -->
<g id="edge7" class="edge">
<title>public.t_group_invites:invited_by&#45;&gt;public.m_users:id</title>
<path fill="none" stroke="#000000" d="M1713.2036,-609.8854C1779.4772,-601.2594 1720.779,-503.6612 1755,-433 1786.4713,-368.0166 1776.7969,-300.5 1849,-300.5"/>
<polygon fill="#000000" stroke="#000000" points="1712.9819,-609.8986 1702.7294,-606.0081 1707.991,-610.1993 1703,-610.5 1703,-610.5 1703,-610.5 1707.991,-610.1993 1703.2706,-614.9919 1712.9819,-609.8986 1712.9819,-609.8986"/>
<text text-anchor="start" x="1710.4355" y="-620.5" font-family="Arial" font-size="10.00" fill="#000000">FOREIGN KEY (invited_by) REFERENCES m_users(id) ON UPDATE SET NULL ON DELETE SET NULL</text>
</g>
<!-- public.t_group_invites&#45;&gt;public.m_users -->
<g id="edge8" class="edge">
<title>public.t_group_invites:user_id&#45;&gt;public.m_users:id</title>
<path fill="none" stroke="#000000" d="M1713.0105,-698.252C1759.841,-675.4212 1732.6095,-485.2992 1755,-433 1783.4171,-366.6242 1776.7969,-300.5 1849,-300.5"/>
<polygon fill="#000000" stroke="#000000" points="1712.757,-698.3089 1702.014,-696.1093 1707.8785,-699.4044 1703,-700.5 1703,-700.5 1703,-700.5 1707.8785,-699.4044 1703.986,-704.8907 1712.757,-698.3089 1712.757,-698.3089"/>
<text text-anchor="start" x="1709.9985" y="-710.5" font-family="Arial" font-size="10.00" fill="#000000">FOREIGN KEY (user_id) REFERENCES m_users(id) ON UPDATE CASCADE ON DELETE CASCADE</text>
</g>
<!-- public.t_user_group_permission -->
<g id="node6" class="node">
<title>public.t_user_group_permission</title>
<polygon fill="#efefef" stroke="transparent" points="1807,-670.5 1807,-705.5 2203,-705.5 2203,-670.5 1807,-670.5"/>
<polygon fill="none" stroke="#000000" points="1807,-670.5 1807,-705.5 2203,-705.5 2203,-670.5 1807,-670.5"/>
<text text-anchor="start" x="1813.6914" y="-683.3" font-family="Arial Bold" font-size="18.00" fill="#000000">public.t_user_group_permission</text>
<text text-anchor="start" x="2068.7406" y="-683.3" font-family="Arial" font-size="14.00" fill="#000000">    </text>
<text text-anchor="start" x="2102.9454" y="-683.3" font-family="Arial" font-size="14.00" fill="#666666">[BASE TABLE]</text>
<polygon fill="none" stroke="#000000" points="1807,-640.5 1807,-670.5 2203,-670.5 2203,-640.5 1807,-640.5"/>
<text text-anchor="start" x="1814" y="-651.9" font-family="Arial" font-size="14.00" fill="#000000">user_group_id    </text>
<text text-anchor="start" x="1937.676" y="-651.9" font-family="Arial" font-size="14.00" fill="#666666">[integer]</text>
<polygon fill="none" stroke="#000000" points="1807,-610.5 1807,-640.5 2203,-640.5 2203,-610.5 1807,-610.5"/>
<text text-anchor="start" x="1814" y="-621.9" font-family="Arial" font-size="14.00" fill="#000000">permission_id    </text>
<text text-anchor="start" x="1934.5414" y="-621.9" font-family="Arial" font-size="14.00" fill="#666666">[uuid]</text>
<polygon fill="none" stroke="#000000" points="1807,-580.5 1807,-610.5 2203,-610.5 2203,-580.5 1807,-580.5"/>
<text text-anchor="start" x="1814" y="-591.9" font-family="Arial" font-size="14.00" fill="#000000">attached_by    </text>
<text text-anchor="start" x="1924.4642" y="-591.9" font-family="Arial" font-size="14.00" fill="#666666">[uuid]</text>
<polygon fill="none" stroke="#000000" points="1807,-550.5 1807,-580.5 2203,-580.5 2203,-550.5 1807,-550.5"/>
<text text-anchor="start" x="1814" y="-561.9" font-family="Arial" font-size="14.00" fill="#000000">attached_at    </text>
<text text-anchor="start" x="1921.3548" y="-561.9" font-family="Arial" font-size="14.00" fill="#666666">[timestamp with time zone]</text>
</g>
<!-- public.t_user_group_permission&#45;&gt;public.m_users -->
<g id="edge9" class="edge">
<title>public.t_user_group_permission:attached_by&#45;&gt;public.m_users:id</title>
<path fill="none" stroke="#000000" d="M2212.9065,-592.9497C2264.5505,-564.1166 2223.5954,-300.5 2161,-300.5"/>
<polygon fill="#000000" stroke="#000000" points="2212.6842,-593.0068 2201.8781,-591.1421 2207.8421,-594.2534 2203,-595.5 2203,-595.5 2203,-595.5 2207.8421,-594.2534 2204.1219,-599.8579 2212.6842,-593.0068 2212.6842,-593.0068"/>
<text text-anchor="start" x="1962.706" y="-579.5" font-family="Arial" font-size="10.00" fill="#000000">FOREIGN KEY (attached_by) REFERENCES m_users(id) ON UPDATE SET NULL ON DELETE SET NULL</text>
</g>
<!-- public.m_storages -->
<g id="node7" class="node">
<title>public.m_storages</title>
<polygon fill="#efefef" stroke="transparent" points="2308,-700.5 2308,-735.5 2595,-735.5 2595,-700.5 2308,-700.5"/>
<polygon fill="none" stroke="#000000" points="2308,-700.5 2308,-735.5 2595,-735.5 2595,-700.5 2308,-700.5"/>
<text text-anchor="start" x="2314.7026" y="-713.3" font-family="Arial Bold" font-size="18.00" fill="#000000">public.m_storages</text>
<text text-anchor="start" x="2460.7294" y="-713.3" font-family="Arial" font-size="14.00" fill="#000000">    </text>
<text text-anchor="start" x="2494.9342" y="-713.3" font-family="Arial" font-size="14.00" fill="#666666">[BASE TABLE]</text>
<polygon fill="none" stroke="#000000" points="2308,-670.5 2308,-700.5 2595,-700.5 2595,-670.5 2308,-670.5"/>
<text text-anchor="start" x="2315" y="-681.9" font-family="Arial" font-size="14.00" fill="#000000">id    </text>
<text text-anchor="start" x="2360.094" y="-681.9" font-family="Arial" font-size="14.00" fill="#666666">[uuid]</text>
<polygon fill="none" stroke="#000000" points="2308,-640.5 2308,-670.5 2595,-670.5 2595,-640.5 2308,-640.5"/>
<text text-anchor="start" x="2315" y="-651.9" font-family="Arial" font-size="14.00" fill="#000000">name    </text>
<text text-anchor="start" x="2384.2132" y="-651.9" font-family="Arial" font-size="14.00" fill="#666666">[varchar(255)]</text>
<polygon fill="none" stroke="#000000" points="2308,-610.5 2308,-640.5 2595,-640.5 2595,-610.5 2308,-610.5"/>
<text text-anchor="start" x="2315" y="-621.9" font-family="Arial" font-size="14.00" fill="#000000">prefix    </text>
<text text-anchor="start" x="2383.4278" y="-621.9" font-family="Arial" font-size="14.00" fill="#666666">[varchar(255)]</text>
<polygon fill="none" stroke="#000000" points="2308,-580.5 2308,-610.5 2595,-610.5 2595,-580.5 2308,-580.5"/>
<text text-anchor="start" x="2315" y="-591.9" font-family="Arial" font-size="14.00" fill="#000000">created_by    </text>
<text text-anchor="start" x="2418.4516" y="-591.9" font-family="Arial" font-size="14.00" fill="#666666">[uuid]</text>
<polygon fill="none" stroke="#000000" points="2308,-550.5 2308,-580.5 2595,-580.5 2595,-550.5 2308,-550.5"/>
<text text-anchor="start" x="2315" y="-561.9" font-family="Arial" font-size="14.00" fill="#000000">created_at    </text>
<text text-anchor="start" x="2415.3422" y="-561.9" font-family="Arial" font-size="14.00" fill="#666666">[timestamp with time zone]</text>
<polygon fill="none" stroke="#000000" points="2308,-520.5 2308,-550.5 2595,-550.5 2595,-520.5 2308,-520.5"/>
<text text-anchor="start" x="2315" y="-531.9" font-family="Arial" font-size="14.00" fill="#000000">updated_at    </text>
<text text-anchor="start" x="2419.2468" y="-531.9" font-family="Arial" font-size="14.00" fill="#666666">[timestamp with time zone]</text>
</g>
<!-- public.m_storages&#45;&gt;public.m_users -->
<g id="edge10" class="edge">
<title>public.m_storages:created_by&#45;&gt;public.m_users:id</title>
<path fill="none" stroke="#000000" d="M2297.7978,-594.8372C2237.393,-586.3218 2287.4762,-497.5477 2255,-433 2222.5482,-368.5007 2233.2031,-300.5 2161,-300.5"/>
<polygon fill="#000000" stroke="#000000" points="2298.021,-594.8516 2307.7082,-599.9905 2303.0105,-595.1758 2308,-595.5 2308,-595.5 2308,-595.5 2303.0105,-595.1758 2308.2918,-591.0095 2298.021,-594.8516 2298.021,-594.8516"/>
<text text-anchor="start" x="2315.2105" y="-605.5" font-family="Arial" font-size="10.00" fill="#000000">FOREIGN KEY (created_by) REFERENCES m_users(id) ON UPDATE SET NULL ON DELETE SET NULL</text>
</g>
<!-- public.t_group_storage_permission -->
<g id="node8" class="node">
<title>public.t_group_storage_permission</title>
<polygon fill="#efefef" stroke="transparent" points="2699,-715.5 2699,-750.5 3120,-750.5 3120,-715.5 2699,-715.5"/>
<polygon fill="none" stroke="#000000" points="2699,-715.5 2699,-750.5 3120,-750.5 3120,-715.5 2699,-715.5"/>
<text text-anchor="start" x="2705.6841" y="-728.3" font-family="Arial Bold" font-size="18.00" fill="#000000">public.t_group_storage_permission</text>
<text text-anchor="start" x="2985.7479" y="-728.3" font-family="Arial" font-size="14.00" fill="#000000">    </text>
<text text-anchor="start" x="3019.9527" y="-728.3" font-family="Arial" font-size="14.00" fill="#666666">[BASE TABLE]</text>
<polygon fill="none" stroke="#000000" points="2699,-685.5 2699,-715.5 3120,-715.5 3120,-685.5 2699,-685.5"/>
<text text-anchor="start" x="2706" y="-696.9" font-family="Arial" font-size="14.00" fill="#000000">storage_id    </text>
<text text-anchor="start" x="2805.5582" y="-696.9" font-family="Arial" font-size="14.00" fill="#666666">[uuid]</text>
<polygon fill="none" stroke="#000000" points="2699,-655.5 2699,-685.5 3120,-685.5 3120,-655.5 2699,-655.5"/>
<text text-anchor="start" x="2706" y="-666.9" font-family="Arial" font-size="14.00" fill="#000000">group_id    </text>
<text text-anchor="start" x="2794.6676" y="-666.9" font-family="Arial" font-size="14.00" fill="#666666">[uuid]</text>
<polygon fill="none" stroke="#000000" points="2699,-625.5 2699,-655.5 3120,-655.5 3120,-625.5 2699,-625.5"/>
<text text-anchor="start" x="2706" y="-636.9" font-family="Arial" font-size="14.00" fill="#000000">access_permission_id    </text>
<text text-anchor="start" x="2877.8892" y="-636.9" font-family="Arial" font-size="14.00" fill="#666666">[uuid]</text>
<polygon fill="none" stroke="#000000" points="2699,-595.5 2699,-625.5 3120,-625.5 3120,-595.5 2699,-595.5"/>
<text text-anchor="start" x="2706" y="-606.9" font-family="Arial" font-size="14.00" fill="#000000">attached_by    </text>
<text text-anchor="start" x="2816.4642" y="-606.9" font-family="Arial" font-size="14.00" fill="#666666">[uuid]</text>
<polygon fill="none" stroke="#000000" points="2699,-565.5 2699,-595.5 3120,-595.5 3120,-565.5 2699,-565.5"/>
<text text-anchor="start" x="2706" y="-576.9" font-family="Arial" font-size="14.00" fill="#000000">last_changed_by    </text>
<text text-anchor="start" x="2846.028" y="-576.9" font-family="Arial" font-size="14.00" fill="#666666">[uuid]</text>
<polygon fill="none" stroke="#000000" points="2699,-535.5 2699,-565.5 3120,-565.5 3120,-535.5 2699,-535.5"/>
<text text-anchor="start" x="2706" y="-546.9" font-family="Arial" font-size="14.00" fill="#000000">attached_at    </text>
<text text-anchor="start" x="2813.3548" y="-546.9" font-family="Arial" font-size="14.00" fill="#666666">[timestamp with time zone]</text>
<polygon fill="none" stroke="#000000" points="2699,-505.5 2699,-535.5 3120,-535.5 3120,-505.5 2699,-505.5"/>
<text text-anchor="start" x="2706" y="-516.9" font-family="Arial" font-size="14.00" fill="#000000">last_changed_at    </text>
<text text-anchor="start" x="2842.9186" y="-516.9" font-family="Arial" font-size="14.00" fill="#666666">[timestamp with time zone]</text>
</g>
<!-- public.t_group_storage_permission&#45;&gt;public.m_users -->
<g id="edge11" class="edge">
<title>public.t_group_storage_permission:attached_by&#45;&gt;public.m_users:id</title>
<path fill="none" stroke="#000000" d="M2688.9285,-609.7905C2624.4827,-599.8516 2703.0361,-487.9914 2647,-433 2567.1039,-354.5934 2272.9418,-300.5 2161,-300.5"/>
<polygon fill="#000000" stroke="#000000" points="2689.0247,-609.7972 2698.6837,-614.9889 2694.0124,-610.1486 2699,-610.5 2699,-610.5 2699,-610.5 2694.0124,-610.1486 2699.3163,-606.0111 2689.0247,-609.7972 2689.0247,-609.7972"/>
<text text-anchor="start" x="2458.706" y="-594.5" font-family="Arial" font-size="10.00" fill="#000000">FOREIGN KEY (attached_by) REFERENCES m_users(id) ON UPDATE SET NULL ON DELETE SET NULL</text>
</g>
<!-- public.t_group_storage_permission&#45;&gt;public.m_users -->
<g id="edge12" class="edge">
<title>public.t_group_storage_permission:last_changed_by&#45;&gt;public.m_users:id</title>
<path fill="none" stroke="#000000" d="M2688.7914,-579.6263C2636.6161,-569.702 2695.1226,-477.7421 2647,-433 2565.018,-356.7771 2272.9418,-300.5 2161,-300.5"/>
<polygon fill="#000000" stroke="#000000" points="2689.0364,-579.6472 2698.6162,-584.9836 2694.0182,-580.0736 2699,-580.5 2699,-580.5 2699,-580.5 2694.0182,-580.0736 2699.3838,-576.0164 2689.0364,-579.6472 2689.0364,-579.6472"/>
<text text-anchor="start" x="2319.8975" y="-564.5" font-family="Arial" font-size="10.00" fill="#000000">FOREIGN KEY (last_changed_by) REFERENCES m_users(id) ON UPDATE SET NULL ON DELETE SET NULL</text>
</g>
<!-- public.m_channels -->
<g id="node9" class="node">
<title>public.m_channels</title>
<polygon fill="#efefef" stroke="transparent" points="3224,-745.5 3224,-780.5 3549,-780.5 3549,-745.5 3224,-745.5"/>
<polygon fill="none" stroke="#000000" points="3224,-745.5 3224,-780.5 3549,-780.5 3549,-745.5 3224,-745.5"/>
<text text-anchor="start" x="3248.1996" y="-758.3" font-family="Arial Bold" font-size="18.00" fill="#000000">public.m_channels</text>
<text text-anchor="start" x="3397.2324" y="-758.3" font-family="Arial" font-size="14.00" fill="#000000">    </text>
<text text-anchor="start" x="3431.4372" y="-758.3" font-family="Arial" font-size="14.00" fill="#666666">[BASE TABLE]</text>
<polygon fill="none" stroke="#000000" points="3224,-715.5 3224,-745.5 3549,-745.5 3549,-715.5 3224,-715.5"/>
<text text-anchor="start" x="3231" y="-726.9" font-family="Arial" font-size="14.00" fill="#000000">id    </text>
<text text-anchor="start" x="3276.094" y="-726.9" font-family="Arial" font-size="14.00" fill="#666666">[uuid]</text>
<polygon fill="none" stroke="#000000" points="3224,-685.5 3224,-715.5 3549,-715.5 3549,-685.5 3224,-685.5"/>
<text text-anchor="start" x="3231" y="-696.9" font-family="Arial" font-size="14.00" fill="#000000">name    </text>
<text text-anchor="start" x="3300.2132" y="-696.9" font-family="Arial" font-size="14.00" fill="#666666">[varchar(255)]</text>
<polygon fill="none" stroke="#000000" points="3224,-655.5 3224,-685.5 3549,-685.5 3549,-655.5 3224,-655.5"/>
<text text-anchor="start" x="3231" y="-666.9" font-family="Arial" font-size="14.00" fill="#000000">admin_group_id    </text>
<text text-anchor="start" x="3365.5652" y="-666.9" font-family="Arial" font-size="14.00" fill="#666666">[uuid]</text>
<polygon fill="none" stroke="#000000" points="3224,-625.5 3224,-655.5 3549,-655.5 3549,-625.5 3224,-625.5"/>
<text text-anchor="start" x="3231" y="-636.9" font-family="Arial" font-size="14.00" fill="#000000">connectable_group_id    </text>
<text text-anchor="start" x="3402.9256" y="-636.9" font-family="Arial" font-size="14.00" fill="#666666">[uuid]</text>
<polygon fill="none" stroke="#000000" points="3224,-595.5 3224,-625.5 3549,-625.5 3549,-595.5 3224,-595.5"/>
<text text-anchor="start" x="3230.9299" y="-606.9" font-family="Arial" font-size="14.00" fill="#000000">last_activity_at    </text>
<text text-anchor="start" x="3356.9299" y="-606.9" font-family="Arial" font-size="14.00" fill="#666666">[timestamp without time zone]</text>
<polygon fill="none" stroke="#000000" points="3224,-565.5 3224,-595.5 3549,-595.5 3549,-565.5 3224,-565.5"/>
<text text-anchor="start" x="3231" y="-576.9" font-family="Arial" font-size="14.00" fill="#000000">created_by    </text>
<text text-anchor="start" x="3334.4516" y="-576.9" font-family="Arial" font-size="14.00" fill="#666666">[uuid]</text>
<polygon fill="none" stroke="#000000" points="3224,-535.5 3224,-565.5 3549,-565.5 3549,-535.5 3224,-535.5"/>
<text text-anchor="start" x="3231" y="-546.9" font-family="Arial" font-size="14.00" fill="#000000">updated_by    </text>
<text text-anchor="start" x="3338.3562" y="-546.9" font-family="Arial" font-size="14.00" fill="#666666">[uuid]</text>
<polygon fill="none" stroke="#000000" points="3224,-505.5 3224,-535.5 3549,-535.5 3549,-505.5 3224,-505.5"/>
<text text-anchor="start" x="3231" y="-516.9" font-family="Arial" font-size="14.00" fill="#000000">created_at    </text>
<text text-anchor="start" x="3331.3422" y="-516.9" font-family="Arial" font-size="14.00" fill="#666666">[timestamp with time zone]</text>
<polygon fill="none" stroke="#000000" points="3224,-475.5 3224,-505.5 3549,-505.5 3549,-475.5 3224,-475.5"/>
<text text-anchor="start" x="3231" y="-486.9" font-family="Arial" font-size="14.00" fill="#000000">updated_at    </text>
<text text-anchor="start" x="3335.2468" y="-486.9" font-family="Arial" font-size="14.00" fill="#666666">[timestamp with time zone]</text>
</g>
<!-- public.m_channels&#45;&gt;public.m_users -->
<g id="edge13" class="edge">
<title>public.m_channels:created_by&#45;&gt;public.m_users:id</title>
<path fill="none" stroke="#000000" d="M3213.8177,-579.5961C3161.9361,-569.3335 3223.0484,-474.3727 3172,-433 3083.9832,-361.6658 2274.294,-300.5 2161,-300.5"/>
<polygon fill="#000000" stroke="#000000" points="3214.0392,-579.6156 3223.602,-584.9824 3219.0196,-580.0578 3224,-580.5 3224,-580.5 3224,-580.5 3219.0196,-580.0578 3224.398,-576.0176 3214.0392,-579.6156 3214.0392,-579.6156"/>
<text text-anchor="start" x="2864.4605" y="-564.5" font-family="Arial" font-size="10.00" fill="#000000">FOREIGN KEY (created_by) REFERENCES m_users(id) ON UPDATE SET NULL ON DELETE SET NULL</text>
</g>
<!-- public.m_channels&#45;&gt;public.m_users -->
<g id="edge14" class="edge">
<title>public.m_channels:updated_by&#45;&gt;public.m_users:id</title>
<path fill="none" stroke="#000000" d="M3213.9912,-549.4368C3173.2183,-539.6541 3214.6928,-464.9351 3172,-433 3081.2788,-365.1385 2274.294,-300.5 2161,-300.5"/>
<polygon fill="#000000" stroke="#000000" points="3214.0559,-549.4436 3223.5246,-554.9748 3219.028,-549.9718 3224,-550.5 3224,-550.5 3224,-550.5 3219.028,-549.9718 3224.4754,-546.0252 3214.0559,-549.4436 3214.0559,-549.4436"/>
<text text-anchor="start" x="2861.816" y="-534.5" font-family="Arial" font-size="10.00" fill="#000000">FOREIGN KEY (updated_by) REFERENCES m_users(id) ON UPDATE SET NULL ON DELETE SET NULL</text>
</g>
<!-- public.t_user_channel -->
<g id="node10" class="node">
<title>public.t_user_channel</title>
<polygon fill="#efefef" stroke="transparent" points="3653,-670.5 3653,-705.5 3969,-705.5 3969,-670.5 3653,-670.5"/>
<polygon fill="none" stroke="#000000" points="3653,-670.5 3653,-705.5 3969,-705.5 3969,-670.5 3653,-670.5"/>
<text text-anchor="start" x="3659.6892" y="-683.3" font-family="Arial Bold" font-size="18.00" fill="#000000">public.t_user_channel</text>
<text text-anchor="start" x="3834.7428" y="-683.3" font-family="Arial" font-size="14.00" fill="#000000">    </text>
<text text-anchor="start" x="3868.9476" y="-683.3" font-family="Arial" font-size="14.00" fill="#666666">[BASE TABLE]</text>
<polygon fill="none" stroke="#000000" points="3653,-640.5 3653,-670.5 3969,-670.5 3969,-640.5 3653,-640.5"/>
<text text-anchor="start" x="3660" y="-651.9" font-family="Arial" font-size="14.00" fill="#000000">user_id    </text>
<text text-anchor="start" x="3740.1024" y="-651.9" font-family="Arial" font-size="14.00" fill="#666666">[uuid]</text>
<polygon fill="none" stroke="#000000" points="3653,-610.5 3653,-640.5 3969,-640.5 3969,-610.5 3653,-610.5"/>
<text text-anchor="start" x="3660" y="-621.9" font-family="Arial" font-size="14.00" fill="#000000">channel_id    </text>
<text text-anchor="start" x="3761.8962" y="-621.9" font-family="Arial" font-size="14.00" fill="#666666">[uuid]</text>
<polygon fill="none" stroke="#000000" points="3653,-580.5 3653,-610.5 3969,-610.5 3969,-580.5 3653,-580.5"/>
<text text-anchor="start" x="3660" y="-591.9" font-family="Arial" font-size="14.00" fill="#000000">connected_at    </text>
<text text-anchor="start" x="3778.2468" y="-591.9" font-family="Arial" font-size="14.00" fill="#666666">[timestamp with time zone]</text>
<polygon fill="none" stroke="#000000" points="3653,-550.5 3653,-580.5 3969,-580.5 3969,-550.5 3653,-550.5"/>
<text text-anchor="start" x="3660" y="-561.9" font-family="Arial" font-size="14.00" fill="#000000">disconnected_at    </text>
<text text-anchor="start" x="3796.136" y="-561.9" font-family="Arial" font-size="14.00" fill="#666666">[timestamp with time zone]</text>
</g>
<!-- public.t_user_channel&#45;&gt;public.m_users -->
<g id="edge15" class="edge">
<title>public.t_user_channel:user_id&#45;&gt;public.m_users:id</title>
<path fill="none" stroke="#000000" d="M3642.8632,-654.9013C3560.2971,-644.3569 3674.8165,-497.2841 3601,-433 3479.831,-327.4783 2321.6759,-300.5 2161,-300.5"/>
<polygon fill="#000000" stroke="#000000" points="3643.0174,-654.9103 3652.7346,-659.9922 3648.0087,-655.2052 3653,-655.5 3653,-655.5 3653,-655.5 3648.0087,-655.2052 3653.2654,-651.0078 3643.0174,-654.9103 3643.0174,-654.9103"/>
<text text-anchor="start" x="3659.9985" y="-665.5" font-family="Arial" font-size="10.00" fill="#000000">FOREIGN KEY (user_id) REFERENCES m_users(id) ON UPDATE CASCADE ON DELETE CASCADE</text>
</g>
<!-- public.t_chats -->
<g id="node11" class="node">
<title>public.t_chats</title>
<polygon fill="#efefef" stroke="transparent" points="4074,-685.5 4074,-720.5 4349,-720.5 4349,-685.5 4074,-685.5"/>
<polygon fill="none" stroke="#000000" points="4074,-685.5 4074,-720.5 4349,-720.5 4349,-685.5 4074,-685.5"/>
<text text-anchor="start" x="4092.6999" y="-698.3" font-family="Arial Bold" font-size="18.00" fill="#000000">public.t_chats</text>
<text text-anchor="start" x="4202.7321" y="-698.3" font-family="Arial" font-size="14.00" fill="#000000">    </text>
<text text-anchor="start" x="4236.9369" y="-698.3" font-family="Arial" font-size="14.00" fill="#666666">[BASE TABLE]</text>
<polygon fill="none" stroke="#000000" points="4074,-655.5 4074,-685.5 4349,-685.5 4349,-655.5 4074,-655.5"/>
<text text-anchor="start" x="4081" y="-666.9" font-family="Arial" font-size="14.00" fill="#000000">id    </text>
<text text-anchor="start" x="4126.094" y="-666.9" font-family="Arial" font-size="14.00" fill="#666666">[uuid]</text>
<polygon fill="none" stroke="#000000" points="4074,-625.5 4074,-655.5 4349,-655.5 4349,-625.5 4074,-625.5"/>
<text text-anchor="start" x="4081" y="-636.9" font-family="Arial" font-size="14.00" fill="#000000">content    </text>
<text text-anchor="start" x="4161.1164" y="-636.9" font-family="Arial" font-size="14.00" fill="#666666">[text]</text>
<polygon fill="none" stroke="#000000" points="4074,-595.5 4074,-625.5 4349,-625.5 4349,-595.5 4074,-595.5"/>
<text text-anchor="start" x="4081" y="-606.9" font-family="Arial" font-size="14.00" fill="#000000">channel_id    </text>
<text text-anchor="start" x="4182.8962" y="-606.9" font-family="Arial" font-size="14.00" fill="#666666">[uuid]</text>
<polygon fill="none" stroke="#000000" points="4074,-565.5 4074,-595.5 4349,-595.5 4349,-565.5 4074,-565.5"/>
<text text-anchor="start" x="4081" y="-576.9" font-family="Arial" font-size="14.00" fill="#000000">user_id    </text>
<text text-anchor="start" x="4161.1024" y="-576.9" font-family="Arial" font-size="14.00" fill="#666666">[uuid]</text>
<polygon fill="none" stroke="#000000" points="4074,-535.5 4074,-565.5 4349,-565.5 4349,-535.5 4074,-535.5"/>
<text text-anchor="start" x="4080.817" y="-546.9" font-family="Arial" font-size="14.00" fill="#000000">posted_at    </text>
<text text-anchor="start" x="4176.4986" y="-546.9" font-family="Arial" font-size="14.00" fill="#666666">[timestamp with time zone]</text>
</g>
<!-- public.t_chats&#45;&gt;public.m_users -->
<g id="edge16" class="edge">
<title>public.t_chats:user_id&#45;&gt;public.m_users:id</title>
<path fill="none" stroke="#000000" d="M4063.8,-579.5817C4011.8534,-569.1583 4073.4824,-472.7715 4021,-433 3855.8685,-307.8623 2368.1904,-300.5 2161,-300.5"/>
<polygon fill="#000000" stroke="#000000" points="4064.0403,-579.6032 4073.5965,-584.9819 4069.0201,-580.0516 4074,-580.5 4074,-580.5 4074,-580.5 4069.0201,-580.0516 4074.4035,-576.0181 4064.0403,-579.6032 4064.0403,-579.6032"/>
<text text-anchor="start" x="4080.5495" y="-590.5" font-family="Arial" font-size="10.00" fill="#000000">FOREIGN KEY (user_id) REFERENCES m_users(id) ON UPDATE SET NULL ON DELETE SET NULL</text>
</g>
</g>
</svg>
