<?xml version="1.0" encoding="UTF-8" standalone="no"?>
<!DOCTYPE svg PUBLIC "-//W3C//DTD SVG 1.1//EN"
 "http://www.w3.org/Graphics/SVG/1.1/DTD/svg11.dtd">
<!-- Generated by graphviz version 2.40.1 (20161225.0304)
 -->
<!-- Title: public.m_storage_access_permissions Pages: 1 -->
<svg width="1136pt" height="562pt"
 viewBox="0.00 0.00 1136.00 562.00" xmlns="http://www.w3.org/2000/svg" xmlns:xlink="http://www.w3.org/1999/xlink">
<g id="graph0" class="graph" transform="scale(1 1) rotate(0) translate(4 558)">
<title>public.m_storage_access_permissions</title>
<polygon fill="#ffffff" stroke="transparent" points="-4,4 -4,-558 1132,-558 1132,4 -4,4"/>
<!-- public.m_storage_access_permissions -->
<g id="node1" class="node">
<title>public.m_storage_access_permissions</title>
<polygon fill="#efefef" stroke="transparent" points="46,-105.5 46,-140.5 496,-140.5 496,-105.5 46,-105.5"/>
<polygon fill="none" stroke="#000000" points="46,-105.5 46,-140.5 496,-140.5 496,-105.5 46,-105.5"/>
<text text-anchor="start" x="52.6914" y="-118.3" font-family="Arial Bold" font-size="18.00" fill="#000000">public.m_storage_access_permissions</text>
<text text-anchor="start" x="361.7406" y="-118.3" font-family="Arial" font-size="14.00" fill="#000000">    </text>
<text text-anchor="start" x="395.9454" y="-118.3" font-family="Arial" font-size="14.00" fill="#666666">[BASE TABLE]</text>
<polygon fill="none" stroke="#000000" points="46,-75.5 46,-105.5 496,-105.5 496,-75.5 46,-75.5"/>
<text text-anchor="start" x="53" y="-86.9" font-family="Arial" font-size="14.00" fill="#000000">id </text>
<text text-anchor="start" x="67.7798" y="-86.9" font-family="Arial" font-size="14.00" fill="#666666">[uuid]</text>
<polygon fill="none" stroke="#000000" points="46,-45.5 46,-75.5 496,-75.5 496,-45.5 46,-45.5"/>
<text text-anchor="start" x="53" y="-56.9" font-family="Arial" font-size="14.00" fill="#000000">mode </text>
<text text-anchor="start" x="91.899" y="-56.9" font-family="Arial" font-size="14.00" fill="#666666">[character(3)]</text>
<polygon fill="none" stroke="#000000" stroke-width="3" points="44.5,-44.5 44.5,-142.5 497.5,-142.5 497.5,-44.5 44.5,-44.5"/>
</g>
<!-- public.t_group_storage_permission -->
<g id="node2" class="node">
<title>public.t_group_storage_permission</title>
<polygon fill="#efefef" stroke="transparent" points="60,-475.5 60,-510.5 481,-510.5 481,-475.5 60,-475.5"/>
<polygon fill="none" stroke="#000000" points="60,-475.5 60,-510.5 481,-510.5 481,-475.5 60,-475.5"/>
<text text-anchor="start" x="66.6841" y="-488.3" font-family="Arial Bold" font-size="18.00" fill="#000000">public.t_group_storage_permission</text>
<text text-anchor="start" x="346.7479" y="-488.3" font-family="Arial" font-size="14.00" fill="#000000">    </text>
<text text-anchor="start" x="380.9527" y="-488.3" font-family="Arial" font-size="14.00" fill="#666666">[BASE TABLE]</text>
<polygon fill="none" stroke="#000000" points="60,-445.5 60,-475.5 481,-475.5 481,-445.5 60,-445.5"/>
<text text-anchor="start" x="67" y="-456.9" font-family="Arial" font-size="14.00" fill="#000000">storage_id    </text>
<text text-anchor="start" x="166.5582" y="-456.9" font-family="Arial" font-size="14.00" fill="#666666">[uuid]</text>
<polygon fill="none" stroke="#000000" points="60,-415.5 60,-445.5 481,-445.5 481,-415.5 60,-415.5"/>
<text text-anchor="start" x="67" y="-426.9" font-family="Arial" font-size="14.00" fill="#000000">group_id    </text>
<text text-anchor="start" x="155.6676" y="-426.9" font-family="Arial" font-size="14.00" fill="#666666">[uuid]</text>
<polygon fill="none" stroke="#000000" points="60,-385.5 60,-415.5 481,-415.5 481,-385.5 60,-385.5"/>
<text text-anchor="start" x="67" y="-396.9" font-family="Arial" font-size="14.00" fill="#000000">access_permission_id    </text>
<text text-anchor="start" x="238.8892" y="-396.9" font-family="Arial" font-size="14.00" fill="#666666">[uuid]</text>
<polygon fill="none" stroke="#000000" points="60,-355.5 60,-385.5 481,-385.5 481,-355.5 60,-355.5"/>
<text text-anchor="start" x="67" y="-366.9" font-family="Arial" font-size="14.00" fill="#000000">attached_by    </text>
<text text-anchor="start" x="177.4642" y="-366.9" font-family="Arial" font-size="14.00" fill="#666666">[uuid]</text>
<polygon fill="none" stroke="#000000" points="60,-325.5 60,-355.5 481,-355.5 481,-325.5 60,-325.5"/>
<text text-anchor="start" x="67" y="-336.9" font-family="Arial" font-size="14.00" fill="#000000">last_changed_by    </text>
<text text-anchor="start" x="207.028" y="-336.9" font-family="Arial" font-size="14.00" fill="#666666">[uuid]</text>
<polygon fill="none" stroke="#000000" points="60,-295.5 60,-325.5 481,-325.5 481,-295.5 60,-295.5"/>
<text text-anchor="start" x="67" y="-306.9" font-family="Arial" font-size="14.00" fill="#000000">attached_at    </text>
<text text-anchor="start" x="174.3548" y="-306.9" font-family="Arial" font-size="14.00" fill="#666666">[timestamp with time zone]</text>
<polygon fill="none" stroke="#000000" points="60,-265.5 60,-295.5 481,-295.5 481,-265.5 60,-265.5"/>
<text text-anchor="start" x="67" y="-276.9" font-family="Arial" font-size="14.00" fill="#000000">last_changed_at    </text>
<text text-anchor="start" x="203.9186" y="-276.9" font-family="Arial" font-size="14.00" fill="#666666">[timestamp with time zone]</text>
</g>
<!-- public.t_group_storage_permission&#45;&gt;public.m_storage_access_permissions -->
<g id="edge1" class="edge">
<title>public.t_group_storage_permission:access_permission_id&#45;&gt;public.m_storage_access_permissions:id</title>
<path fill="none" stroke="#000000" d="M491.0067,-399.7932C557.5454,-389.891 532.0327,-278.4305 481,-223 415.302,-151.6403 111.698,-258.3597 46,-187 16.9505,-155.4471 3.1111,-90.5 46,-90.5"/>
<polygon fill="#000000" stroke="#000000" points="490.9751,-399.7953 480.6829,-396.0112 485.9876,-400.1477 481,-400.5 481,-400.5 481,-400.5 485.9876,-400.1477 481.3171,-404.9888 490.9751,-399.7953 490.9751,-399.7953"/>
<text text-anchor="start" x="488.326" y="-410.5" font-family="Arial" font-size="10.00" fill="#000000">FOREIGN KEY (access_permission_id) REFERENCES m_storage_access_permissions(id) ON UPDATE RESTRICT ON DELETE RESTRICT</text>
</g>
</g>
</svg>
