<?xml version="1.0" encoding="UTF-8" standalone="no"?>
<!DOCTYPE svg PUBLIC "-//W3C//DTD SVG 1.1//EN"
 "http://www.w3.org/Graphics/SVG/1.1/DTD/svg11.dtd">
<!-- Generated by graphviz version 2.40.1 (20161225.0304)
 -->
<!-- Title: public.m_roles Pages: 1 -->
<svg width="1160pt" height="809pt"
 viewBox="0.00 0.00 1160.00 809.00" xmlns="http://www.w3.org/2000/svg" xmlns:xlink="http://www.w3.org/1999/xlink">
<g id="graph0" class="graph" transform="scale(1 1) rotate(0) translate(4 805)">
<title>public.m_roles</title>
<polygon fill="#ffffff" stroke="transparent" points="-4,4 -4,-805 1156,-805 1156,4 -4,4"/>
<!-- public.m_roles -->
<g id="node1" class="node">
<title>public.m_roles</title>
<polygon fill="#efefef" stroke="transparent" points="483,-412.5 483,-447.5 740,-447.5 740,-412.5 483,-412.5"/>
<polygon fill="none" stroke="#000000" points="483,-412.5 483,-447.5 740,-447.5 740,-412.5 483,-412.5"/>
<text text-anchor="start" x="489.7128" y="-425.3" font-family="Arial Bold" font-size="18.00" fill="#000000">public.m_roles</text>
<text text-anchor="start" x="605.7192" y="-425.3" font-family="Arial" font-size="14.00" fill="#000000">    </text>
<text text-anchor="start" x="639.924" y="-425.3" font-family="Arial" font-size="14.00" fill="#666666">[BASE TABLE]</text>
<polygon fill="none" stroke="#000000" points="483,-382.5 483,-412.5 740,-412.5 740,-382.5 483,-382.5"/>
<text text-anchor="start" x="490" y="-393.9" font-family="Arial" font-size="14.00" fill="#000000">id </text>
<text text-anchor="start" x="504.7798" y="-393.9" font-family="Arial" font-size="14.00" fill="#666666">[uuid]</text>
<polygon fill="none" stroke="#000000" points="483,-352.5 483,-382.5 740,-382.5 740,-352.5 483,-352.5"/>
<text text-anchor="start" x="490" y="-363.9" font-family="Arial" font-size="14.00" fill="#000000">name </text>
<text text-anchor="start" x="528.899" y="-363.9" font-family="Arial" font-size="14.00" fill="#666666">[varchar(255)]</text>
<polygon fill="none" stroke="#000000" points="483,-322.5 483,-352.5 740,-352.5 740,-322.5 483,-322.5"/>
<text text-anchor="start" x="490" y="-333.9" font-family="Arial" font-size="14.00" fill="#000000">detail </text>
<text text-anchor="start" x="527.3422" y="-333.9" font-family="Arial" font-size="14.00" fill="#666666">[text]</text>
<polygon fill="none" stroke="#000000" points="483,-292.5 483,-322.5 740,-322.5 740,-292.5 483,-292.5"/>
<text text-anchor="start" x="490" y="-303.9" font-family="Arial" font-size="14.00" fill="#000000">category_id </text>
<text text-anchor="start" x="566.244" y="-303.9" font-family="Arial" font-size="14.00" fill="#666666">[uuid]</text>
<polygon fill="none" stroke="#000000" stroke-width="3" points="481,-291.5 481,-449.5 741,-449.5 741,-291.5 481,-291.5"/>
</g>
<!-- public.m_role_categories -->
<g id="node3" class="node">
<title>public.m_role_categories</title>
<polygon fill="#efefef" stroke="transparent" points="441,-132.5 441,-167.5 782,-167.5 782,-132.5 441,-132.5"/>
<polygon fill="none" stroke="#000000" points="441,-132.5 441,-167.5 782,-167.5 782,-132.5 441,-132.5"/>
<text text-anchor="start" x="447.6999" y="-145.3" font-family="Arial Bold" font-size="18.00" fill="#000000">public.m_role_categories</text>
<text text-anchor="start" x="647.7321" y="-145.3" font-family="Arial" font-size="14.00" fill="#000000">    </text>
<text text-anchor="start" x="681.9369" y="-145.3" font-family="Arial" font-size="14.00" fill="#666666">[BASE TABLE]</text>
<polygon fill="none" stroke="#000000" points="441,-102.5 441,-132.5 782,-132.5 782,-102.5 441,-102.5"/>
<text text-anchor="start" x="448" y="-113.9" font-family="Arial" font-size="14.00" fill="#000000">id    </text>
<text text-anchor="start" x="493.094" y="-113.9" font-family="Arial" font-size="14.00" fill="#666666">[uuid]</text>
<polygon fill="none" stroke="#000000" points="441,-72.5 441,-102.5 782,-102.5 782,-72.5 441,-72.5"/>
<text text-anchor="start" x="448" y="-83.9" font-family="Arial" font-size="14.00" fill="#000000">name    </text>
<text text-anchor="start" x="517.2132" y="-83.9" font-family="Arial" font-size="14.00" fill="#666666">[varchar(255)]</text>
<polygon fill="none" stroke="#000000" points="441,-42.5 441,-72.5 782,-72.5 782,-42.5 441,-42.5"/>
<text text-anchor="start" x="448" y="-53.9" font-family="Arial" font-size="14.00" fill="#000000">detail    </text>
<text text-anchor="start" x="515.6564" y="-53.9" font-family="Arial" font-size="14.00" fill="#666666">[text]</text>
</g>
<!-- public.m_roles&#45;&gt;public.m_role_categories -->
<g id="edge2" class="edge">
<title>public.m_roles:category_id&#45;&gt;public.m_role_categories:id</title>
<path fill="none" stroke="#000000" d="M611.3182,-282.4988C601.3162,-214.3912 484.0051,-279.1364 441,-211 418.8201,-175.8586 399.4444,-117.5 441,-117.5"/>
<polygon fill="#000000" stroke="#000000" points="611.3197,-282.5232 607.5104,-292.8061 611.6599,-287.5116 612,-292.5 612,-292.5 612,-292.5 611.6599,-287.5116 616.4896,-292.1939 611.3197,-282.5232 611.3197,-282.5232"/>
<text text-anchor="start" x="618.941" y="-302.5" font-family="Arial" font-size="10.00" fill="#000000">FOREIGN KEY (category_id) REFERENCES m_role_categories(id) ON UPDATE RESTRICT ON DELETE RESTRICT</text>
</g>
<!-- public.t_user_role -->
<g id="node2" class="node">
<title>public.t_user_role</title>
<polygon fill="#efefef" stroke="transparent" points="468,-722.5 468,-757.5 755,-757.5 755,-722.5 468,-722.5"/>
<polygon fill="none" stroke="#000000" points="468,-722.5 468,-757.5 755,-757.5 755,-722.5 468,-722.5"/>
<text text-anchor="start" x="476.7024" y="-735.3" font-family="Arial Bold" font-size="18.00" fill="#000000">public.t_user_role</text>
<text text-anchor="start" x="618.7296" y="-735.3" font-family="Arial" font-size="14.00" fill="#000000">    </text>
<text text-anchor="start" x="652.9344" y="-735.3" font-family="Arial" font-size="14.00" fill="#666666">[BASE TABLE]</text>
<polygon fill="none" stroke="#000000" points="468,-692.5 468,-722.5 755,-722.5 755,-692.5 468,-692.5"/>
<text text-anchor="start" x="475" y="-703.9" font-family="Arial" font-size="14.00" fill="#000000">user_id    </text>
<text text-anchor="start" x="555.1024" y="-703.9" font-family="Arial" font-size="14.00" fill="#666666">[uuid]</text>
<polygon fill="none" stroke="#000000" points="468,-662.5 468,-692.5 755,-692.5 755,-662.5 468,-662.5"/>
<text text-anchor="start" x="475" y="-673.9" font-family="Arial" font-size="14.00" fill="#000000">role_id    </text>
<text text-anchor="start" x="551.209" y="-673.9" font-family="Arial" font-size="14.00" fill="#666666">[uuid]</text>
<polygon fill="none" stroke="#000000" points="468,-632.5 468,-662.5 755,-662.5 755,-632.5 468,-632.5"/>
<text text-anchor="start" x="475" y="-643.9" font-family="Arial" font-size="14.00" fill="#000000">attached_by    </text>
<text text-anchor="start" x="585.4642" y="-643.9" font-family="Arial" font-size="14.00" fill="#666666">[uuid]</text>
<polygon fill="none" stroke="#000000" points="468,-602.5 468,-632.5 755,-632.5 755,-602.5 468,-602.5"/>
<text text-anchor="start" x="475" y="-613.9" font-family="Arial" font-size="14.00" fill="#000000">from_system    </text>
<text text-anchor="start" x="589.3156" y="-613.9" font-family="Arial" font-size="14.00" fill="#666666">[boolean]</text>
<polygon fill="none" stroke="#000000" points="468,-572.5 468,-602.5 755,-602.5 755,-572.5 468,-572.5"/>
<text text-anchor="start" x="474.9804" y="-583.9" font-family="Arial" font-size="14.00" fill="#000000">attached_at    </text>
<text text-anchor="start" x="582.3352" y="-583.9" font-family="Arial" font-size="14.00" fill="#666666">[timestamp with time zone]</text>
</g>
<!-- public.t_user_role&#45;&gt;public.m_roles -->
<g id="edge1" class="edge">
<title>public.t_user_role:role_id&#45;&gt;public.m_roles:id</title>
<path fill="none" stroke="#000000" d="M457.7472,-676.839C344.3146,-661.8652 361.9065,-397.5 483,-397.5"/>
<polygon fill="#000000" stroke="#000000" points="458.0207,-676.8565 467.7104,-681.9907 463.0104,-677.1783 468,-677.5 468,-677.5 468,-677.5 463.0104,-677.1783 468.2896,-673.0093 458.0207,-676.8565 458.0207,-676.8565"/>
<text text-anchor="start" x="6.7795" y="-687.5" font-family="Arial" font-size="10.00" fill="#000000">FOREIGN KEY (role_id) REFERENCES m_roles(id) ON UPDATE CASCADE ON DELETE CASCADE</text>
</g>
</g>
</svg>
