<?xml version="1.0" encoding="UTF-8" standalone="no"?>
<!DOCTYPE svg PUBLIC "-//W3C//DTD SVG 1.1//EN"
 "http://www.w3.org/Graphics/SVG/1.1/DTD/svg11.dtd">
<!-- Generated by graphviz version 2.40.1 (20161225.0304)
 -->
<!-- Title: public.t_group_invites Pages: 1 -->
<svg width="1305pt" height="772pt"
 viewBox="0.00 0.00 1305.00 772.00" xmlns="http://www.w3.org/2000/svg" xmlns:xlink="http://www.w3.org/1999/xlink">
<g id="graph0" class="graph" transform="scale(1 1) rotate(0) translate(4 768)">
<title>public.t_group_invites</title>
<polygon fill="#ffffff" stroke="transparent" points="-4,4 -4,-768 1301,-768 1301,4 -4,4"/>
<!-- public.t_group_invites -->
<g id="node1" class="node">
<title>public.t_group_invites</title>
<polygon fill="#efefef" stroke="transparent" points="496,-682.5 496,-717.5 811,-717.5 811,-682.5 496,-682.5"/>
<polygon fill="none" stroke="#000000" points="496,-682.5 496,-717.5 811,-717.5 811,-682.5 496,-682.5"/>
<text text-anchor="start" x="502.6941" y="-695.3" font-family="Arial Bold" font-size="18.00" fill="#000000">public.t_group_invites</text>
<text text-anchor="start" x="676.7379" y="-695.3" font-family="Arial" font-size="14.00" fill="#000000">    </text>
<text text-anchor="start" x="710.9427" y="-695.3" font-family="Arial" font-size="14.00" fill="#666666">[BASE TABLE]</text>
<polygon fill="none" stroke="#000000" points="496,-652.5 496,-682.5 811,-682.5 811,-652.5 496,-652.5"/>
<text text-anchor="start" x="503" y="-663.9" font-family="Arial" font-size="14.00" fill="#000000">user_id </text>
<text text-anchor="start" x="552.7882" y="-663.9" font-family="Arial" font-size="14.00" fill="#666666">[uuid]</text>
<polygon fill="none" stroke="#000000" points="496,-622.5 496,-652.5 811,-652.5 811,-622.5 496,-622.5"/>
<text text-anchor="start" x="503" y="-633.9" font-family="Arial" font-size="14.00" fill="#000000">group_id </text>
<text text-anchor="start" x="561.3534" y="-633.9" font-family="Arial" font-size="14.00" fill="#666666">[uuid]</text>
<polygon fill="none" stroke="#000000" points="496,-592.5 496,-622.5 811,-622.5 811,-592.5 496,-592.5"/>
<text text-anchor="start" x="503" y="-603.9" font-family="Arial" font-size="14.00" fill="#000000">is_valid </text>
<text text-anchor="start" x="553.5582" y="-603.9" font-family="Arial" font-size="14.00" fill="#666666">[boolean]</text>
<polygon fill="none" stroke="#000000" points="496,-562.5 496,-592.5 811,-592.5 811,-562.5 496,-562.5"/>
<text text-anchor="start" x="503" y="-573.9" font-family="Arial" font-size="14.00" fill="#000000">invited_by </text>
<text text-anchor="start" x="569.9074" y="-573.9" font-family="Arial" font-size="14.00" fill="#666666">[uuid]</text>
<polygon fill="none" stroke="#000000" points="496,-532.5 496,-562.5 811,-562.5 811,-532.5 496,-532.5"/>
<text text-anchor="start" x="503" y="-543.9" font-family="Arial" font-size="14.00" fill="#000000">canceled_by </text>
<text text-anchor="start" x="585.4754" y="-543.9" font-family="Arial" font-size="14.00" fill="#666666">[uuid]</text>
<polygon fill="none" stroke="#000000" points="496,-502.5 496,-532.5 811,-532.5 811,-502.5 496,-502.5"/>
<text text-anchor="start" x="503" y="-513.9" font-family="Arial" font-size="14.00" fill="#000000">invited_at </text>
<text text-anchor="start" x="566.798" y="-513.9" font-family="Arial" font-size="14.00" fill="#666666">[timestamp with time zone]</text>
<polygon fill="none" stroke="#000000" points="496,-472.5 496,-502.5 811,-502.5 811,-472.5 496,-472.5"/>
<text text-anchor="start" x="503" y="-483.9" font-family="Arial" font-size="14.00" fill="#000000">canceled_at </text>
<text text-anchor="start" x="582.366" y="-483.9" font-family="Arial" font-size="14.00" fill="#666666">[timestamp with time zone]</text>
<polygon fill="none" stroke="#000000" stroke-width="3" points="494,-471.5 494,-719.5 812,-719.5 812,-471.5 494,-471.5"/>
</g>
<!-- public.m_users -->
<g id="node2" class="node">
<title>public.m_users</title>
<polygon fill="#efefef" stroke="transparent" points="482,-312.5 482,-347.5 825,-347.5 825,-312.5 482,-312.5"/>
<polygon fill="none" stroke="#000000" points="482,-312.5 482,-347.5 825,-347.5 825,-312.5 482,-312.5"/>
<text text-anchor="start" x="529.2099" y="-325.3" font-family="Arial Bold" font-size="18.00" fill="#000000">public.m_users</text>
<text text-anchor="start" x="650.2221" y="-325.3" font-family="Arial" font-size="14.00" fill="#000000">    </text>
<text text-anchor="start" x="684.4269" y="-325.3" font-family="Arial" font-size="14.00" fill="#666666">[BASE TABLE]</text>
<polygon fill="none" stroke="#000000" points="482,-282.5 482,-312.5 825,-312.5 825,-282.5 482,-282.5"/>
<text text-anchor="start" x="489" y="-293.9" font-family="Arial" font-size="14.00" fill="#000000">id    </text>
<text text-anchor="start" x="534.094" y="-293.9" font-family="Arial" font-size="14.00" fill="#666666">[uuid]</text>
<polygon fill="none" stroke="#000000" points="482,-252.5 482,-282.5 825,-282.5 825,-252.5 482,-252.5"/>
<text text-anchor="start" x="489" y="-263.9" font-family="Arial" font-size="14.00" fill="#000000">login_id    </text>
<text text-anchor="start" x="571.4376" y="-263.9" font-family="Arial" font-size="14.00" fill="#666666">[varchar(255)]</text>
<polygon fill="none" stroke="#000000" points="482,-222.5 482,-252.5 825,-252.5 825,-222.5 482,-222.5"/>
<text text-anchor="start" x="489" y="-233.9" font-family="Arial" font-size="14.00" fill="#000000">password    </text>
<text text-anchor="start" x="583.1024" y="-233.9" font-family="Arial" font-size="14.00" fill="#666666">[varchar(255)]</text>
<polygon fill="none" stroke="#000000" points="482,-192.5 482,-222.5 825,-222.5 825,-192.5 482,-192.5"/>
<text text-anchor="start" x="489" y="-203.9" font-family="Arial" font-size="14.00" fill="#000000">name    </text>
<text text-anchor="start" x="558.2132" y="-203.9" font-family="Arial" font-size="14.00" fill="#666666">[varchar(255)]</text>
<polygon fill="none" stroke="#000000" points="482,-162.5 482,-192.5 825,-192.5 825,-162.5 482,-162.5"/>
<text text-anchor="start" x="488.9727" y="-173.9" font-family="Arial" font-size="14.00" fill="#000000">last_logged_in_at    </text>
<text text-anchor="start" x="632.8871" y="-173.9" font-family="Arial" font-size="14.00" fill="#666666">[timestamp without time zone]</text>
<polygon fill="none" stroke="#000000" points="482,-132.5 482,-162.5 825,-162.5 825,-132.5 482,-132.5"/>
<text text-anchor="start" x="489" y="-143.9" font-family="Arial" font-size="14.00" fill="#000000">created_by    </text>
<text text-anchor="start" x="592.4516" y="-143.9" font-family="Arial" font-size="14.00" fill="#666666">[uuid]</text>
<polygon fill="none" stroke="#000000" points="482,-102.5 482,-132.5 825,-132.5 825,-102.5 482,-102.5"/>
<text text-anchor="start" x="489" y="-113.9" font-family="Arial" font-size="14.00" fill="#000000">from_system    </text>
<text text-anchor="start" x="603.3156" y="-113.9" font-family="Arial" font-size="14.00" fill="#666666">[boolean]</text>
<polygon fill="none" stroke="#000000" points="482,-72.5 482,-102.5 825,-102.5 825,-72.5 482,-72.5"/>
<text text-anchor="start" x="489" y="-83.9" font-family="Arial" font-size="14.00" fill="#000000">created_at    </text>
<text text-anchor="start" x="589.3422" y="-83.9" font-family="Arial" font-size="14.00" fill="#666666">[timestamp with time zone]</text>
<polygon fill="none" stroke="#000000" points="482,-42.5 482,-72.5 825,-72.5 825,-42.5 482,-42.5"/>
<text text-anchor="start" x="489" y="-53.9" font-family="Arial" font-size="14.00" fill="#000000">updated_at    </text>
<text text-anchor="start" x="593.2468" y="-53.9" font-family="Arial" font-size="14.00" fill="#666666">[timestamp with time zone]</text>
</g>
<!-- public.t_group_invites&#45;&gt;public.m_users -->
<g id="edge1" class="edge">
<title>public.t_group_invites:user_id&#45;&gt;public.m_users:id</title>
<path fill="none" stroke="#000000" d="M485.7739,-665.5093C412.6936,-636.3863 403.2545,-297.5 482,-297.5"/>
<polygon fill="#000000" stroke="#000000" points="486.1843,-665.5891 495.1401,-671.9171 491.0921,-666.5446 496,-667.5 496,-667.5 496,-667.5 491.0921,-666.5446 496.8599,-663.0829 486.1843,-665.5891 486.1843,-665.5891"/>
<text text-anchor="start" x="28.9985" y="-677.5" font-family="Arial" font-size="10.00" fill="#000000">FOREIGN KEY (user_id) REFERENCES m_users(id) ON UPDATE CASCADE ON DELETE CASCADE</text>
</g>
<!-- public.t_group_invites&#45;&gt;public.m_users -->
<g id="edge3" class="edge">
<title>public.t_group_invites:invited_by&#45;&gt;public.m_users:id</title>
<path fill="none" stroke="#000000" d="M486.2168,-575.0794C432.397,-547.7124 423.1071,-297.5 482,-297.5"/>
<polygon fill="#000000" stroke="#000000" points="486.2927,-575.0981 494.9191,-581.8683 491.1464,-576.299 496,-577.5 496,-577.5 496,-577.5 491.1464,-576.299 497.0809,-573.1317 486.2927,-575.0981 486.2927,-575.0981"/>
<text text-anchor="start" x="18.4355" y="-587.5" font-family="Arial" font-size="10.00" fill="#000000">FOREIGN KEY (invited_by) REFERENCES m_users(id) ON UPDATE SET NULL ON DELETE SET NULL</text>
</g>
<!-- public.t_group_invites&#45;&gt;public.m_users -->
<g id="edge4" class="edge">
<title>public.t_group_invites:canceled_by&#45;&gt;public.m_users:id</title>
<path fill="none" stroke="#000000" d="M486.0618,-544.6924C438.8794,-517.2266 429.8351,-297.5 482,-297.5"/>
<polygon fill="#000000" stroke="#000000" points="486.3767,-544.7812 494.7766,-551.8305 491.1883,-546.1406 496,-547.5 496,-547.5 496,-547.5 491.1883,-546.1406 497.2234,-543.1695 486.3767,-544.7812 486.3767,-544.7812"/>
<text text-anchor="start" x="6.8755" y="-557.5" font-family="Arial" font-size="10.00" fill="#000000">FOREIGN KEY (canceled_by) REFERENCES m_users(id) ON UPDATE SET NULL ON DELETE SET NULL</text>
</g>
<!-- public.m_groups -->
<g id="node3" class="node">
<title>public.m_groups</title>
<polygon fill="#efefef" stroke="transparent" points="929,-297.5 929,-332.5 1212,-332.5 1212,-297.5 929,-297.5"/>
<polygon fill="none" stroke="#000000" points="929,-297.5 929,-332.5 1212,-332.5 1212,-297.5 929,-297.5"/>
<text text-anchor="start" x="940.7037" y="-310.3" font-family="Arial Bold" font-size="18.00" fill="#000000">public.m_groups</text>
<text text-anchor="start" x="1072.7283" y="-310.3" font-family="Arial" font-size="14.00" fill="#000000">    </text>
<text text-anchor="start" x="1106.9331" y="-310.3" font-family="Arial" font-size="14.00" fill="#666666">[BASE TABLE]</text>
<polygon fill="none" stroke="#000000" points="929,-267.5 929,-297.5 1212,-297.5 1212,-267.5 929,-267.5"/>
<text text-anchor="start" x="936" y="-278.9" font-family="Arial" font-size="14.00" fill="#000000">id    </text>
<text text-anchor="start" x="981.094" y="-278.9" font-family="Arial" font-size="14.00" fill="#666666">[uuid]</text>
<polygon fill="none" stroke="#000000" points="929,-237.5 929,-267.5 1212,-267.5 1212,-237.5 929,-237.5"/>
<text text-anchor="start" x="936" y="-248.9" font-family="Arial" font-size="14.00" fill="#000000">name    </text>
<text text-anchor="start" x="1005.2132" y="-248.9" font-family="Arial" font-size="14.00" fill="#666666">[varchar(255)]</text>
<polygon fill="none" stroke="#000000" points="929,-207.5 929,-237.5 1212,-237.5 1212,-207.5 929,-207.5"/>
<text text-anchor="start" x="936" y="-218.9" font-family="Arial" font-size="14.00" fill="#000000">is_open    </text>
<text text-anchor="start" x="1019.2244" y="-218.9" font-family="Arial" font-size="14.00" fill="#666666">[boolean]</text>
<polygon fill="none" stroke="#000000" points="929,-177.5 929,-207.5 1212,-207.5 1212,-177.5 929,-177.5"/>
<text text-anchor="start" x="936" y="-188.9" font-family="Arial" font-size="14.00" fill="#000000">is_primitive    </text>
<text text-anchor="start" x="1040.1908" y="-188.9" font-family="Arial" font-size="14.00" fill="#666666">[boolean]</text>
<polygon fill="none" stroke="#000000" points="929,-147.5 929,-177.5 1212,-177.5 1212,-147.5 929,-147.5"/>
<text text-anchor="start" x="936" y="-158.9" font-family="Arial" font-size="14.00" fill="#000000">is_personal    </text>
<text text-anchor="start" x="1041.7742" y="-158.9" font-family="Arial" font-size="14.00" fill="#666666">[boolean]</text>
<polygon fill="none" stroke="#000000" points="929,-117.5 929,-147.5 1212,-147.5 1212,-117.5 929,-117.5"/>
<text text-anchor="start" x="936" y="-128.9" font-family="Arial" font-size="14.00" fill="#000000">created_by    </text>
<text text-anchor="start" x="1039.4516" y="-128.9" font-family="Arial" font-size="14.00" fill="#666666">[uuid]</text>
<polygon fill="none" stroke="#000000" points="929,-87.5 929,-117.5 1212,-117.5 1212,-87.5 929,-87.5"/>
<text text-anchor="start" x="936" y="-98.9" font-family="Arial" font-size="14.00" fill="#000000">created_at    </text>
<text text-anchor="start" x="1036.3422" y="-98.9" font-family="Arial" font-size="14.00" fill="#666666">[timestamp with time zone]</text>
<polygon fill="none" stroke="#000000" points="929,-57.5 929,-87.5 1212,-87.5 1212,-57.5 929,-57.5"/>
<text text-anchor="start" x="935.5344" y="-68.9" font-family="Arial" font-size="14.00" fill="#000000">updated_at    </text>
<text text-anchor="start" x="1039.7812" y="-68.9" font-family="Arial" font-size="14.00" fill="#666666">[timestamp with time zone]</text>
</g>
<!-- public.t_group_invites&#45;&gt;public.m_groups -->
<g id="edge2" class="edge">
<title>public.t_group_invites:group_id&#45;&gt;public.m_groups:id</title>
<path fill="none" stroke="#000000" d="M821.0094,-635.59C890.2276,-607.6476 849.4393,-282.5 929,-282.5"/>
<polygon fill="#000000" stroke="#000000" points="820.8228,-635.6255 810.1565,-633.0798 815.9114,-636.5628 811,-637.5 811,-637.5 811,-637.5 815.9114,-636.5628 811.8435,-641.9202 820.8228,-635.6255 820.8228,-635.6255"/>
<text text-anchor="start" x="817.8805" y="-647.5" font-family="Arial" font-size="10.00" fill="#000000">FOREIGN KEY (group_id) REFERENCES m_groups(id) ON UPDATE CASCADE ON DELETE CASCADE</text>
</g>
</g>
</svg>
