<?xml version="1.0" encoding="UTF-8" standalone="no"?>
<!DOCTYPE svg PUBLIC "-//W3C//DTD SVG 1.1//EN"
 "http://www.w3.org/Graphics/SVG/1.1/DTD/svg11.dtd">
<!-- Generated by graphviz version 2.40.1 (20161225.0304)
 -->
<!-- Title: public.t_chats Pages: 1 -->
<svg width="1236pt" height="712pt"
 viewBox="0.00 0.00 1236.00 712.00" xmlns="http://www.w3.org/2000/svg" xmlns:xlink="http://www.w3.org/1999/xlink">
<g id="graph0" class="graph" transform="scale(1 1) rotate(0) translate(4 708)">
<title>public.t_chats</title>
<polygon fill="#ffffff" stroke="transparent" points="-4,4 -4,-708 1232,-708 1232,4 -4,4"/>
<!-- public.t_chats -->
<g id="node1" class="node">
<title>public.t_chats</title>
<polygon fill="#efefef" stroke="transparent" points="505,-622.5 505,-657.5 756,-657.5 756,-622.5 505,-622.5"/>
<polygon fill="none" stroke="#000000" points="505,-622.5 505,-657.5 756,-657.5 756,-622.5 505,-622.5"/>
<text text-anchor="start" x="511.6999" y="-635.3" font-family="Arial Bold" font-size="18.00" fill="#000000">public.t_chats</text>
<text text-anchor="start" x="621.7321" y="-635.3" font-family="Arial" font-size="14.00" fill="#000000">    </text>
<text text-anchor="start" x="655.9369" y="-635.3" font-family="Arial" font-size="14.00" fill="#666666">[BASE TABLE]</text>
<polygon fill="none" stroke="#000000" points="505,-592.5 505,-622.5 756,-622.5 756,-592.5 505,-592.5"/>
<text text-anchor="start" x="512" y="-603.9" font-family="Arial" font-size="14.00" fill="#000000">id </text>
<text text-anchor="start" x="526.7798" y="-603.9" font-family="Arial" font-size="14.00" fill="#666666">[uuid]</text>
<polygon fill="none" stroke="#000000" points="505,-562.5 505,-592.5 756,-592.5 756,-562.5 505,-562.5"/>
<text text-anchor="start" x="512" y="-573.9" font-family="Arial" font-size="14.00" fill="#000000">content </text>
<text text-anchor="start" x="561.8022" y="-573.9" font-family="Arial" font-size="14.00" fill="#666666">[text]</text>
<polygon fill="none" stroke="#000000" points="505,-532.5 505,-562.5 756,-562.5 756,-532.5 505,-532.5"/>
<text text-anchor="start" x="512" y="-543.9" font-family="Arial" font-size="14.00" fill="#000000">channel_id </text>
<text text-anchor="start" x="583.582" y="-543.9" font-family="Arial" font-size="14.00" fill="#666666">[uuid]</text>
<polygon fill="none" stroke="#000000" points="505,-502.5 505,-532.5 756,-532.5 756,-502.5 505,-502.5"/>
<text text-anchor="start" x="512" y="-513.9" font-family="Arial" font-size="14.00" fill="#000000">user_id </text>
<text text-anchor="start" x="561.7882" y="-513.9" font-family="Arial" font-size="14.00" fill="#666666">[uuid]</text>
<polygon fill="none" stroke="#000000" points="505,-472.5 505,-502.5 756,-502.5 756,-472.5 505,-472.5"/>
<text text-anchor="start" x="512" y="-483.9" font-family="Arial" font-size="14.00" fill="#000000">posted_at </text>
<text text-anchor="start" x="577.3674" y="-483.9" font-family="Arial" font-size="14.00" fill="#666666">[timestamp with time zone]</text>
<polygon fill="none" stroke="#000000" stroke-width="3" points="503,-471.5 503,-659.5 757,-659.5 757,-471.5 503,-471.5"/>
</g>
<!-- public.m_channels -->
<g id="node2" class="node">
<title>public.m_channels</title>
<polygon fill="#efefef" stroke="transparent" points="249,-312.5 249,-347.5 574,-347.5 574,-312.5 249,-312.5"/>
<polygon fill="none" stroke="#000000" points="249,-312.5 249,-347.5 574,-347.5 574,-312.5 249,-312.5"/>
<text text-anchor="start" x="273.1996" y="-325.3" font-family="Arial Bold" font-size="18.00" fill="#000000">public.m_channels</text>
<text text-anchor="start" x="422.2324" y="-325.3" font-family="Arial" font-size="14.00" fill="#000000">    </text>
<text text-anchor="start" x="456.4372" y="-325.3" font-family="Arial" font-size="14.00" fill="#666666">[BASE TABLE]</text>
<polygon fill="none" stroke="#000000" points="249,-282.5 249,-312.5 574,-312.5 574,-282.5 249,-282.5"/>
<text text-anchor="start" x="256" y="-293.9" font-family="Arial" font-size="14.00" fill="#000000">id    </text>
<text text-anchor="start" x="301.094" y="-293.9" font-family="Arial" font-size="14.00" fill="#666666">[uuid]</text>
<polygon fill="none" stroke="#000000" points="249,-252.5 249,-282.5 574,-282.5 574,-252.5 249,-252.5"/>
<text text-anchor="start" x="256" y="-263.9" font-family="Arial" font-size="14.00" fill="#000000">name    </text>
<text text-anchor="start" x="325.2132" y="-263.9" font-family="Arial" font-size="14.00" fill="#666666">[varchar(255)]</text>
<polygon fill="none" stroke="#000000" points="249,-222.5 249,-252.5 574,-252.5 574,-222.5 249,-222.5"/>
<text text-anchor="start" x="256" y="-233.9" font-family="Arial" font-size="14.00" fill="#000000">admin_group_id    </text>
<text text-anchor="start" x="390.5652" y="-233.9" font-family="Arial" font-size="14.00" fill="#666666">[uuid]</text>
<polygon fill="none" stroke="#000000" points="249,-192.5 249,-222.5 574,-222.5 574,-192.5 249,-192.5"/>
<text text-anchor="start" x="256" y="-203.9" font-family="Arial" font-size="14.00" fill="#000000">connectable_group_id    </text>
<text text-anchor="start" x="427.9256" y="-203.9" font-family="Arial" font-size="14.00" fill="#666666">[uuid]</text>
<polygon fill="none" stroke="#000000" points="249,-162.5 249,-192.5 574,-192.5 574,-162.5 249,-162.5"/>
<text text-anchor="start" x="255.9299" y="-173.9" font-family="Arial" font-size="14.00" fill="#000000">last_activity_at    </text>
<text text-anchor="start" x="381.9299" y="-173.9" font-family="Arial" font-size="14.00" fill="#666666">[timestamp without time zone]</text>
<polygon fill="none" stroke="#000000" points="249,-132.5 249,-162.5 574,-162.5 574,-132.5 249,-132.5"/>
<text text-anchor="start" x="256" y="-143.9" font-family="Arial" font-size="14.00" fill="#000000">created_by    </text>
<text text-anchor="start" x="359.4516" y="-143.9" font-family="Arial" font-size="14.00" fill="#666666">[uuid]</text>
<polygon fill="none" stroke="#000000" points="249,-102.5 249,-132.5 574,-132.5 574,-102.5 249,-102.5"/>
<text text-anchor="start" x="256" y="-113.9" font-family="Arial" font-size="14.00" fill="#000000">updated_by    </text>
<text text-anchor="start" x="363.3562" y="-113.9" font-family="Arial" font-size="14.00" fill="#666666">[uuid]</text>
<polygon fill="none" stroke="#000000" points="249,-72.5 249,-102.5 574,-102.5 574,-72.5 249,-72.5"/>
<text text-anchor="start" x="256" y="-83.9" font-family="Arial" font-size="14.00" fill="#000000">created_at    </text>
<text text-anchor="start" x="356.3422" y="-83.9" font-family="Arial" font-size="14.00" fill="#666666">[timestamp with time zone]</text>
<polygon fill="none" stroke="#000000" points="249,-42.5 249,-72.5 574,-72.5 574,-42.5 249,-42.5"/>
<text text-anchor="start" x="256" y="-53.9" font-family="Arial" font-size="14.00" fill="#000000">updated_at    </text>
<text text-anchor="start" x="360.2468" y="-53.9" font-family="Arial" font-size="14.00" fill="#666666">[timestamp with time zone]</text>
</g>
<!-- public.t_chats&#45;&gt;public.m_channels -->
<g id="edge1" class="edge">
<title>public.t_chats:channel_id&#45;&gt;public.m_channels:id</title>
<path fill="none" stroke="#000000" d="M494.8531,-546.4281C455.0814,-537.1379 479.1899,-469.5779 505,-427 522.9306,-397.4206 556.0694,-420.5794 574,-391 595.5415,-355.4637 615.5556,-297.5 574,-297.5"/>
<polygon fill="#000000" stroke="#000000" points="495.0553,-546.4493 504.5272,-551.9751 500.0277,-546.9747 505,-547.5 505,-547.5 505,-547.5 500.0277,-546.9747 505.4728,-543.0249 495.0553,-546.4493 495.0553,-546.4493"/>
<text text-anchor="start" x="7.4315" y="-557.5" font-family="Arial" font-size="10.00" fill="#000000">FOREIGN KEY (channel_id) REFERENCES m_channels(id) ON UPDATE CASCADE ON DELETE CASCADE</text>
</g>
<!-- public.m_users -->
<g id="node3" class="node">
<title>public.m_users</title>
<polygon fill="#efefef" stroke="transparent" points="678,-312.5 678,-347.5 1021,-347.5 1021,-312.5 678,-312.5"/>
<polygon fill="none" stroke="#000000" points="678,-312.5 678,-347.5 1021,-347.5 1021,-312.5 678,-312.5"/>
<text text-anchor="start" x="725.2099" y="-325.3" font-family="Arial Bold" font-size="18.00" fill="#000000">public.m_users</text>
<text text-anchor="start" x="846.2221" y="-325.3" font-family="Arial" font-size="14.00" fill="#000000">    </text>
<text text-anchor="start" x="880.4269" y="-325.3" font-family="Arial" font-size="14.00" fill="#666666">[BASE TABLE]</text>
<polygon fill="none" stroke="#000000" points="678,-282.5 678,-312.5 1021,-312.5 1021,-282.5 678,-282.5"/>
<text text-anchor="start" x="685" y="-293.9" font-family="Arial" font-size="14.00" fill="#000000">id    </text>
<text text-anchor="start" x="730.094" y="-293.9" font-family="Arial" font-size="14.00" fill="#666666">[uuid]</text>
<polygon fill="none" stroke="#000000" points="678,-252.5 678,-282.5 1021,-282.5 1021,-252.5 678,-252.5"/>
<text text-anchor="start" x="685" y="-263.9" font-family="Arial" font-size="14.00" fill="#000000">login_id    </text>
<text text-anchor="start" x="767.4376" y="-263.9" font-family="Arial" font-size="14.00" fill="#666666">[varchar(255)]</text>
<polygon fill="none" stroke="#000000" points="678,-222.5 678,-252.5 1021,-252.5 1021,-222.5 678,-222.5"/>
<text text-anchor="start" x="685" y="-233.9" font-family="Arial" font-size="14.00" fill="#000000">password    </text>
<text text-anchor="start" x="779.1024" y="-233.9" font-family="Arial" font-size="14.00" fill="#666666">[varchar(255)]</text>
<polygon fill="none" stroke="#000000" points="678,-192.5 678,-222.5 1021,-222.5 1021,-192.5 678,-192.5"/>
<text text-anchor="start" x="685" y="-203.9" font-family="Arial" font-size="14.00" fill="#000000">name    </text>
<text text-anchor="start" x="754.2132" y="-203.9" font-family="Arial" font-size="14.00" fill="#666666">[varchar(255)]</text>
<polygon fill="none" stroke="#000000" points="678,-162.5 678,-192.5 1021,-192.5 1021,-162.5 678,-162.5"/>
<text text-anchor="start" x="684.9727" y="-173.9" font-family="Arial" font-size="14.00" fill="#000000">last_logged_in_at    </text>
<text text-anchor="start" x="828.8871" y="-173.9" font-family="Arial" font-size="14.00" fill="#666666">[timestamp without time zone]</text>
<polygon fill="none" stroke="#000000" points="678,-132.5 678,-162.5 1021,-162.5 1021,-132.5 678,-132.5"/>
<text text-anchor="start" x="685" y="-143.9" font-family="Arial" font-size="14.00" fill="#000000">created_by    </text>
<text text-anchor="start" x="788.4516" y="-143.9" font-family="Arial" font-size="14.00" fill="#666666">[uuid]</text>
<polygon fill="none" stroke="#000000" points="678,-102.5 678,-132.5 1021,-132.5 1021,-102.5 678,-102.5"/>
<text text-anchor="start" x="685" y="-113.9" font-family="Arial" font-size="14.00" fill="#000000">from_system    </text>
<text text-anchor="start" x="799.3156" y="-113.9" font-family="Arial" font-size="14.00" fill="#666666">[boolean]</text>
<polygon fill="none" stroke="#000000" points="678,-72.5 678,-102.5 1021,-102.5 1021,-72.5 678,-72.5"/>
<text text-anchor="start" x="685" y="-83.9" font-family="Arial" font-size="14.00" fill="#000000">created_at    </text>
<text text-anchor="start" x="785.3422" y="-83.9" font-family="Arial" font-size="14.00" fill="#666666">[timestamp with time zone]</text>
<polygon fill="none" stroke="#000000" points="678,-42.5 678,-72.5 1021,-72.5 1021,-42.5 678,-42.5"/>
<text text-anchor="start" x="685" y="-53.9" font-family="Arial" font-size="14.00" fill="#000000">updated_at    </text>
<text text-anchor="start" x="789.2468" y="-53.9" font-family="Arial" font-size="14.00" fill="#666666">[timestamp with time zone]</text>
</g>
<!-- public.t_chats&#45;&gt;public.m_users -->
<g id="edge2" class="edge">
<title>public.t_chats:user_id&#45;&gt;public.m_users:id</title>
<path fill="none" stroke="#000000" d="M766.1543,-515.954C792.5704,-506.6584 775.5609,-457.572 756,-427 735.4223,-394.8389 698.5777,-423.1611 678,-391 655.6035,-355.9963 636.4444,-297.5 678,-297.5"/>
<polygon fill="#000000" stroke="#000000" points="765.8861,-515.9948 755.3226,-513.0513 760.943,-516.7474 756,-517.5 756,-517.5 756,-517.5 760.943,-516.7474 756.6774,-521.9487 765.8861,-515.9948 765.8861,-515.9948"/>
<text text-anchor="start" x="762.5495" y="-527.5" font-family="Arial" font-size="10.00" fill="#000000">FOREIGN KEY (user_id) REFERENCES m_users(id) ON UPDATE SET NULL ON DELETE SET NULL</text>
</g>
</g>
</svg>
