<?xml version="1.0" encoding="UTF-8" standalone="no"?>
<!DOCTYPE svg PUBLIC "-//W3C//DTD SVG 1.1//EN"
 "http://www.w3.org/Graphics/SVG/1.1/DTD/svg11.dtd">
<!-- Generated by graphviz version 2.40.1 (20161225.0304)
 -->
<!-- Title: public.t_group_storage_permission Pages: 1 -->
<svg width="1912pt" height="772pt"
 viewBox="0.00 0.00 1911.50 772.00" xmlns="http://www.w3.org/2000/svg" xmlns:xlink="http://www.w3.org/1999/xlink">
<g id="graph0" class="graph" transform="scale(1 1) rotate(0) translate(4 768)">
<title>public.t_group_storage_permission</title>
<polygon fill="#ffffff" stroke="transparent" points="-4,4 -4,-768 1907.5,-768 1907.5,4 -4,4"/>
<!-- public.t_group_storage_permission -->
<g id="node1" class="node">
<title>public.t_group_storage_permission</title>
<polygon fill="#efefef" stroke="transparent" points="835.5,-682.5 835.5,-717.5 1256.5,-717.5 1256.5,-682.5 835.5,-682.5"/>
<polygon fill="none" stroke="#000000" points="835.5,-682.5 835.5,-717.5 1256.5,-717.5 1256.5,-682.5 835.5,-682.5"/>
<text text-anchor="start" x="842.1841" y="-695.3" font-family="Arial Bold" font-size="18.00" fill="#000000">public.t_group_storage_permission</text>
<text text-anchor="start" x="1122.2479" y="-695.3" font-family="Arial" font-size="14.00" fill="#000000">    </text>
<text text-anchor="start" x="1156.4527" y="-695.3" font-family="Arial" font-size="14.00" fill="#666666">[BASE TABLE]</text>
<polygon fill="none" stroke="#000000" points="835.5,-652.5 835.5,-682.5 1256.5,-682.5 1256.5,-652.5 835.5,-652.5"/>
<text text-anchor="start" x="842.5" y="-663.9" font-family="Arial" font-size="14.00" fill="#000000">storage_id </text>
<text text-anchor="start" x="911.744" y="-663.9" font-family="Arial" font-size="14.00" fill="#666666">[uuid]</text>
<polygon fill="none" stroke="#000000" points="835.5,-622.5 835.5,-652.5 1256.5,-652.5 1256.5,-622.5 835.5,-622.5"/>
<text text-anchor="start" x="842.5" y="-633.9" font-family="Arial" font-size="14.00" fill="#000000">group_id </text>
<text text-anchor="start" x="900.8534" y="-633.9" font-family="Arial" font-size="14.00" fill="#666666">[uuid]</text>
<polygon fill="none" stroke="#000000" points="835.5,-592.5 835.5,-622.5 1256.5,-622.5 1256.5,-592.5 835.5,-592.5"/>
<text text-anchor="start" x="842.5" y="-603.9" font-family="Arial" font-size="14.00" fill="#000000">access_permission_id </text>
<text text-anchor="start" x="984.075" y="-603.9" font-family="Arial" font-size="14.00" fill="#666666">[uuid]</text>
<polygon fill="none" stroke="#000000" points="835.5,-562.5 835.5,-592.5 1256.5,-592.5 1256.5,-562.5 835.5,-562.5"/>
<text text-anchor="start" x="842.5" y="-573.9" font-family="Arial" font-size="14.00" fill="#000000">attached_by </text>
<text text-anchor="start" x="922.65" y="-573.9" font-family="Arial" font-size="14.00" fill="#666666">[uuid]</text>
<polygon fill="none" stroke="#000000" points="835.5,-532.5 835.5,-562.5 1256.5,-562.5 1256.5,-532.5 835.5,-532.5"/>
<text text-anchor="start" x="842.5" y="-543.9" font-family="Arial" font-size="14.00" fill="#000000">last_changed_by </text>
<text text-anchor="start" x="952.2138" y="-543.9" font-family="Arial" font-size="14.00" fill="#666666">[uuid]</text>
<polygon fill="none" stroke="#000000" points="835.5,-502.5 835.5,-532.5 1256.5,-532.5 1256.5,-502.5 835.5,-502.5"/>
<text text-anchor="start" x="842.5" y="-513.9" font-family="Arial" font-size="14.00" fill="#000000">attached_at </text>
<text text-anchor="start" x="919.5406" y="-513.9" font-family="Arial" font-size="14.00" fill="#666666">[timestamp with time zone]</text>
<polygon fill="none" stroke="#000000" points="835.5,-472.5 835.5,-502.5 1256.5,-502.5 1256.5,-472.5 835.5,-472.5"/>
<text text-anchor="start" x="842.5" y="-483.9" font-family="Arial" font-size="14.00" fill="#000000">last_changed_at </text>
<text text-anchor="start" x="949.1044" y="-483.9" font-family="Arial" font-size="14.00" fill="#666666">[timestamp with time zone]</text>
<polygon fill="none" stroke="#000000" stroke-width="3" points="833.5,-471.5 833.5,-719.5 1257.5,-719.5 1257.5,-471.5 833.5,-471.5"/>
</g>
<!-- public.m_storages -->
<g id="node2" class="node">
<title>public.m_storages</title>
<polygon fill="#efefef" stroke="transparent" points="43.5,-267.5 43.5,-302.5 330.5,-302.5 330.5,-267.5 43.5,-267.5"/>
<polygon fill="none" stroke="#000000" points="43.5,-267.5 43.5,-302.5 330.5,-302.5 330.5,-267.5 43.5,-267.5"/>
<text text-anchor="start" x="50.2026" y="-280.3" font-family="Arial Bold" font-size="18.00" fill="#000000">public.m_storages</text>
<text text-anchor="start" x="196.2294" y="-280.3" font-family="Arial" font-size="14.00" fill="#000000">    </text>
<text text-anchor="start" x="230.4342" y="-280.3" font-family="Arial" font-size="14.00" fill="#666666">[BASE TABLE]</text>
<polygon fill="none" stroke="#000000" points="43.5,-237.5 43.5,-267.5 330.5,-267.5 330.5,-237.5 43.5,-237.5"/>
<text text-anchor="start" x="50.5" y="-248.9" font-family="Arial" font-size="14.00" fill="#000000">id    </text>
<text text-anchor="start" x="95.594" y="-248.9" font-family="Arial" font-size="14.00" fill="#666666">[uuid]</text>
<polygon fill="none" stroke="#000000" points="43.5,-207.5 43.5,-237.5 330.5,-237.5 330.5,-207.5 43.5,-207.5"/>
<text text-anchor="start" x="50.5" y="-218.9" font-family="Arial" font-size="14.00" fill="#000000">name    </text>
<text text-anchor="start" x="119.7132" y="-218.9" font-family="Arial" font-size="14.00" fill="#666666">[varchar(255)]</text>
<polygon fill="none" stroke="#000000" points="43.5,-177.5 43.5,-207.5 330.5,-207.5 330.5,-177.5 43.5,-177.5"/>
<text text-anchor="start" x="50.5" y="-188.9" font-family="Arial" font-size="14.00" fill="#000000">prefix    </text>
<text text-anchor="start" x="118.9278" y="-188.9" font-family="Arial" font-size="14.00" fill="#666666">[varchar(255)]</text>
<polygon fill="none" stroke="#000000" points="43.5,-147.5 43.5,-177.5 330.5,-177.5 330.5,-147.5 43.5,-147.5"/>
<text text-anchor="start" x="50.5" y="-158.9" font-family="Arial" font-size="14.00" fill="#000000">created_by    </text>
<text text-anchor="start" x="153.9516" y="-158.9" font-family="Arial" font-size="14.00" fill="#666666">[uuid]</text>
<polygon fill="none" stroke="#000000" points="43.5,-117.5 43.5,-147.5 330.5,-147.5 330.5,-117.5 43.5,-117.5"/>
<text text-anchor="start" x="50.5" y="-128.9" font-family="Arial" font-size="14.00" fill="#000000">created_at    </text>
<text text-anchor="start" x="150.8422" y="-128.9" font-family="Arial" font-size="14.00" fill="#666666">[timestamp with time zone]</text>
<polygon fill="none" stroke="#000000" points="43.5,-87.5 43.5,-117.5 330.5,-117.5 330.5,-87.5 43.5,-87.5"/>
<text text-anchor="start" x="50.5" y="-98.9" font-family="Arial" font-size="14.00" fill="#000000">updated_at    </text>
<text text-anchor="start" x="154.7468" y="-98.9" font-family="Arial" font-size="14.00" fill="#666666">[timestamp with time zone]</text>
</g>
<!-- public.t_group_storage_permission&#45;&gt;public.m_storages -->
<g id="edge1" class="edge">
<title>public.t_group_storage_permission:storage_id&#45;&gt;public.m_storages:id</title>
<path fill="none" stroke="#000000" d="M825.2255,-667.4395C597.2457,-664.7261 529.3749,-570.7935 381.5,-391 339.832,-340.338 396.0962,-252.5 330.5,-252.5"/>
<polygon fill="#000000" stroke="#000000" points="825.5002,-667.441 835.4735,-671.9999 830.5001,-667.4705 835.5,-667.5 835.5,-667.5 835.5,-667.5 830.5001,-667.4705 835.5265,-663.0001 825.5002,-667.441 825.5002,-667.441"/>
<text text-anchor="start" x="341.6015" y="-677.5" font-family="Arial" font-size="10.00" fill="#000000">FOREIGN KEY (storage_id) REFERENCES m_storages(id) ON UPDATE CASCADE ON DELETE CASCADE</text>
</g>
<!-- public.m_groups -->
<g id="node3" class="node">
<title>public.m_groups</title>
<polygon fill="#efefef" stroke="transparent" points="434.5,-297.5 434.5,-332.5 717.5,-332.5 717.5,-297.5 434.5,-297.5"/>
<polygon fill="none" stroke="#000000" points="434.5,-297.5 434.5,-332.5 717.5,-332.5 717.5,-297.5 434.5,-297.5"/>
<text text-anchor="start" x="446.2037" y="-310.3" font-family="Arial Bold" font-size="18.00" fill="#000000">public.m_groups</text>
<text text-anchor="start" x="578.2283" y="-310.3" font-family="Arial" font-size="14.00" fill="#000000">    </text>
<text text-anchor="start" x="612.4331" y="-310.3" font-family="Arial" font-size="14.00" fill="#666666">[BASE TABLE]</text>
<polygon fill="none" stroke="#000000" points="434.5,-267.5 434.5,-297.5 717.5,-297.5 717.5,-267.5 434.5,-267.5"/>
<text text-anchor="start" x="441.5" y="-278.9" font-family="Arial" font-size="14.00" fill="#000000">id    </text>
<text text-anchor="start" x="486.594" y="-278.9" font-family="Arial" font-size="14.00" fill="#666666">[uuid]</text>
<polygon fill="none" stroke="#000000" points="434.5,-237.5 434.5,-267.5 717.5,-267.5 717.5,-237.5 434.5,-237.5"/>
<text text-anchor="start" x="441.5" y="-248.9" font-family="Arial" font-size="14.00" fill="#000000">name    </text>
<text text-anchor="start" x="510.7132" y="-248.9" font-family="Arial" font-size="14.00" fill="#666666">[varchar(255)]</text>
<polygon fill="none" stroke="#000000" points="434.5,-207.5 434.5,-237.5 717.5,-237.5 717.5,-207.5 434.5,-207.5"/>
<text text-anchor="start" x="441.5" y="-218.9" font-family="Arial" font-size="14.00" fill="#000000">is_open    </text>
<text text-anchor="start" x="524.7244" y="-218.9" font-family="Arial" font-size="14.00" fill="#666666">[boolean]</text>
<polygon fill="none" stroke="#000000" points="434.5,-177.5 434.5,-207.5 717.5,-207.5 717.5,-177.5 434.5,-177.5"/>
<text text-anchor="start" x="441.5" y="-188.9" font-family="Arial" font-size="14.00" fill="#000000">is_primitive    </text>
<text text-anchor="start" x="545.6908" y="-188.9" font-family="Arial" font-size="14.00" fill="#666666">[boolean]</text>
<polygon fill="none" stroke="#000000" points="434.5,-147.5 434.5,-177.5 717.5,-177.5 717.5,-147.5 434.5,-147.5"/>
<text text-anchor="start" x="441.5" y="-158.9" font-family="Arial" font-size="14.00" fill="#000000">is_personal    </text>
<text text-anchor="start" x="547.2742" y="-158.9" font-family="Arial" font-size="14.00" fill="#666666">[boolean]</text>
<polygon fill="none" stroke="#000000" points="434.5,-117.5 434.5,-147.5 717.5,-147.5 717.5,-117.5 434.5,-117.5"/>
<text text-anchor="start" x="441.5" y="-128.9" font-family="Arial" font-size="14.00" fill="#000000">created_by    </text>
<text text-anchor="start" x="544.9516" y="-128.9" font-family="Arial" font-size="14.00" fill="#666666">[uuid]</text>
<polygon fill="none" stroke="#000000" points="434.5,-87.5 434.5,-117.5 717.5,-117.5 717.5,-87.5 434.5,-87.5"/>
<text text-anchor="start" x="441.5" y="-98.9" font-family="Arial" font-size="14.00" fill="#000000">created_at    </text>
<text text-anchor="start" x="541.8422" y="-98.9" font-family="Arial" font-size="14.00" fill="#666666">[timestamp with time zone]</text>
<polygon fill="none" stroke="#000000" points="434.5,-57.5 434.5,-87.5 717.5,-87.5 717.5,-57.5 434.5,-57.5"/>
<text text-anchor="start" x="441.0344" y="-68.9" font-family="Arial" font-size="14.00" fill="#000000">updated_at    </text>
<text text-anchor="start" x="545.2812" y="-68.9" font-family="Arial" font-size="14.00" fill="#666666">[timestamp with time zone]</text>
</g>
<!-- public.t_group_storage_permission&#45;&gt;public.m_groups -->
<g id="edge2" class="edge">
<title>public.t_group_storage_permission:group_id&#45;&gt;public.m_groups:id</title>
<path fill="none" stroke="#000000" d="M825.4906,-635.59C756.2724,-607.6476 797.0607,-282.5 717.5,-282.5"/>
<polygon fill="#000000" stroke="#000000" points="825.6772,-635.6255 834.6565,-641.9202 830.5886,-636.5628 835.5,-637.5 835.5,-637.5 835.5,-637.5 830.5886,-636.5628 836.3435,-633.0798 825.6772,-635.6255 825.6772,-635.6255"/>
<text text-anchor="start" x="356.3805" y="-647.5" font-family="Arial" font-size="10.00" fill="#000000">FOREIGN KEY (group_id) REFERENCES m_groups(id) ON UPDATE CASCADE ON DELETE CASCADE</text>
</g>
<!-- public.m_storage_access_permissions -->
<g id="node4" class="node">
<title>public.m_storage_access_permissions</title>
<polygon fill="#efefef" stroke="transparent" points="821.5,-207.5 821.5,-242.5 1271.5,-242.5 1271.5,-207.5 821.5,-207.5"/>
<polygon fill="none" stroke="#000000" points="821.5,-207.5 821.5,-242.5 1271.5,-242.5 1271.5,-207.5 821.5,-207.5"/>
<text text-anchor="start" x="828.1914" y="-220.3" font-family="Arial Bold" font-size="18.00" fill="#000000">public.m_storage_access_permissions</text>
<text text-anchor="start" x="1137.2406" y="-220.3" font-family="Arial" font-size="14.00" fill="#000000">    </text>
<text text-anchor="start" x="1171.4454" y="-220.3" font-family="Arial" font-size="14.00" fill="#666666">[BASE TABLE]</text>
<polygon fill="none" stroke="#000000" points="821.5,-177.5 821.5,-207.5 1271.5,-207.5 1271.5,-177.5 821.5,-177.5"/>
<text text-anchor="start" x="828.5" y="-188.9" font-family="Arial" font-size="14.00" fill="#000000">id    </text>
<text text-anchor="start" x="873.594" y="-188.9" font-family="Arial" font-size="14.00" fill="#666666">[uuid]</text>
<polygon fill="none" stroke="#000000" points="821.5,-147.5 821.5,-177.5 1271.5,-177.5 1271.5,-147.5 821.5,-147.5"/>
<text text-anchor="start" x="828.5" y="-158.9" font-family="Arial" font-size="14.00" fill="#000000">mode    </text>
<text text-anchor="start" x="897.7132" y="-158.9" font-family="Arial" font-size="14.00" fill="#666666">[character(3)]</text>
</g>
<!-- public.t_group_storage_permission&#45;&gt;public.m_storage_access_permissions -->
<g id="edge3" class="edge">
<title>public.t_group_storage_permission:access_permission_id&#45;&gt;public.m_storage_access_permissions:id</title>
<path fill="none" stroke="#000000" d="M1266.6345,-606.8152C1333.7247,-597.215 1301.5571,-488.9697 1256.5,-427 1136.9827,-262.6208 941.0173,-450.3792 821.5,-286 797.0624,-252.3895 779.9444,-192.5 821.5,-192.5"/>
<polygon fill="#000000" stroke="#000000" points="1266.4772,-606.8257 1256.1966,-603.0102 1261.4886,-607.1628 1256.5,-607.5 1256.5,-607.5 1256.5,-607.5 1261.4886,-607.1628 1256.8034,-611.9898 1266.4772,-606.8257 1266.4772,-606.8257"/>
<text text-anchor="start" x="1263.826" y="-617.5" font-family="Arial" font-size="10.00" fill="#000000">FOREIGN KEY (access_permission_id) REFERENCES m_storage_access_permissions(id) ON UPDATE RESTRICT ON DELETE RESTRICT</text>
</g>
<!-- public.m_users -->
<g id="node5" class="node">
<title>public.m_users</title>
<polygon fill="#efefef" stroke="transparent" points="1376.5,-312.5 1376.5,-347.5 1719.5,-347.5 1719.5,-312.5 1376.5,-312.5"/>
<polygon fill="none" stroke="#000000" points="1376.5,-312.5 1376.5,-347.5 1719.5,-347.5 1719.5,-312.5 1376.5,-312.5"/>
<text text-anchor="start" x="1423.7099" y="-325.3" font-family="Arial Bold" font-size="18.00" fill="#000000">public.m_users</text>
<text text-anchor="start" x="1544.7221" y="-325.3" font-family="Arial" font-size="14.00" fill="#000000">    </text>
<text text-anchor="start" x="1578.9269" y="-325.3" font-family="Arial" font-size="14.00" fill="#666666">[BASE TABLE]</text>
<polygon fill="none" stroke="#000000" points="1376.5,-282.5 1376.5,-312.5 1719.5,-312.5 1719.5,-282.5 1376.5,-282.5"/>
<text text-anchor="start" x="1383.5" y="-293.9" font-family="Arial" font-size="14.00" fill="#000000">id    </text>
<text text-anchor="start" x="1428.594" y="-293.9" font-family="Arial" font-size="14.00" fill="#666666">[uuid]</text>
<polygon fill="none" stroke="#000000" points="1376.5,-252.5 1376.5,-282.5 1719.5,-282.5 1719.5,-252.5 1376.5,-252.5"/>
<text text-anchor="start" x="1383.5" y="-263.9" font-family="Arial" font-size="14.00" fill="#000000">login_id    </text>
<text text-anchor="start" x="1465.9376" y="-263.9" font-family="Arial" font-size="14.00" fill="#666666">[varchar(255)]</text>
<polygon fill="none" stroke="#000000" points="1376.5,-222.5 1376.5,-252.5 1719.5,-252.5 1719.5,-222.5 1376.5,-222.5"/>
<text text-anchor="start" x="1383.5" y="-233.9" font-family="Arial" font-size="14.00" fill="#000000">password    </text>
<text text-anchor="start" x="1477.6024" y="-233.9" font-family="Arial" font-size="14.00" fill="#666666">[varchar(255)]</text>
<polygon fill="none" stroke="#000000" points="1376.5,-192.5 1376.5,-222.5 1719.5,-222.5 1719.5,-192.5 1376.5,-192.5"/>
<text text-anchor="start" x="1383.5" y="-203.9" font-family="Arial" font-size="14.00" fill="#000000">name    </text>
<text text-anchor="start" x="1452.7132" y="-203.9" font-family="Arial" font-size="14.00" fill="#666666">[varchar(255)]</text>
<polygon fill="none" stroke="#000000" points="1376.5,-162.5 1376.5,-192.5 1719.5,-192.5 1719.5,-162.5 1376.5,-162.5"/>
<text text-anchor="start" x="1383.4727" y="-173.9" font-family="Arial" font-size="14.00" fill="#000000">last_logged_in_at    </text>
<text text-anchor="start" x="1527.3871" y="-173.9" font-family="Arial" font-size="14.00" fill="#666666">[timestamp without time zone]</text>
<polygon fill="none" stroke="#000000" points="1376.5,-132.5 1376.5,-162.5 1719.5,-162.5 1719.5,-132.5 1376.5,-132.5"/>
<text text-anchor="start" x="1383.5" y="-143.9" font-family="Arial" font-size="14.00" fill="#000000">created_by    </text>
<text text-anchor="start" x="1486.9516" y="-143.9" font-family="Arial" font-size="14.00" fill="#666666">[uuid]</text>
<polygon fill="none" stroke="#000000" points="1376.5,-102.5 1376.5,-132.5 1719.5,-132.5 1719.5,-102.5 1376.5,-102.5"/>
<text text-anchor="start" x="1383.5" y="-113.9" font-family="Arial" font-size="14.00" fill="#000000">from_system    </text>
<text text-anchor="start" x="1497.8156" y="-113.9" font-family="Arial" font-size="14.00" fill="#666666">[boolean]</text>
<polygon fill="none" stroke="#000000" points="1376.5,-72.5 1376.5,-102.5 1719.5,-102.5 1719.5,-72.5 1376.5,-72.5"/>
<text text-anchor="start" x="1383.5" y="-83.9" font-family="Arial" font-size="14.00" fill="#000000">created_at    </text>
<text text-anchor="start" x="1483.8422" y="-83.9" font-family="Arial" font-size="14.00" fill="#666666">[timestamp with time zone]</text>
<polygon fill="none" stroke="#000000" points="1376.5,-42.5 1376.5,-72.5 1719.5,-72.5 1719.5,-42.5 1376.5,-42.5"/>
<text text-anchor="start" x="1383.5" y="-53.9" font-family="Arial" font-size="14.00" fill="#000000">updated_at    </text>
<text text-anchor="start" x="1487.7468" y="-53.9" font-family="Arial" font-size="14.00" fill="#666666">[timestamp with time zone]</text>
</g>
<!-- public.t_group_storage_permission&#45;&gt;public.m_users -->
<g id="edge4" class="edge">
<title>public.t_group_storage_permission:attached_by&#45;&gt;public.m_users:id</title>
<path fill="none" stroke="#000000" d="M1266.5409,-575.2462C1322.8035,-548.7474 1312.3741,-297.5 1376.5,-297.5"/>
<polygon fill="#000000" stroke="#000000" points="1266.2572,-575.3098 1255.5144,-573.1093 1261.3786,-576.4049 1256.5,-577.5 1256.5,-577.5 1256.5,-577.5 1261.3786,-576.4049 1257.4856,-581.8907 1266.2572,-575.3098 1266.2572,-575.3098"/>
<text text-anchor="start" x="1263.206" y="-587.5" font-family="Arial" font-size="10.00" fill="#000000">FOREIGN KEY (attached_by) REFERENCES m_users(id) ON UPDATE SET NULL ON DELETE SET NULL</text>
</g>
<!-- public.t_group_storage_permission&#45;&gt;public.m_users -->
<g id="edge5" class="edge">
<title>public.t_group_storage_permission:last_changed_by&#45;&gt;public.m_users:id</title>
<path fill="none" stroke="#000000" d="M1266.3705,-545.1847C1317.9643,-519.9817 1318.3663,-297.5 1376.5,-297.5"/>
<polygon fill="#000000" stroke="#000000" points="1266.2358,-545.2163 1255.4723,-543.1189 1261.3679,-546.3581 1256.5,-547.5 1256.5,-547.5 1256.5,-547.5 1261.3679,-546.3581 1257.5277,-551.8811 1266.2358,-545.2163 1266.2358,-545.2163"/>
<text text-anchor="start" x="1263.6475" y="-557.5" font-family="Arial" font-size="10.00" fill="#000000">FOREIGN KEY (last_changed_by) REFERENCES m_users(id) ON UPDATE SET NULL ON DELETE SET NULL</text>
</g>
</g>
</svg>
