<?xml version="1.0" encoding="UTF-8" standalone="no"?>
<!DOCTYPE svg PUBLIC "-//W3C//DTD SVG 1.1//EN"
 "http://www.w3.org/Graphics/SVG/1.1/DTD/svg11.dtd">
<!-- Generated by graphviz version 2.40.1 (20161225.0304)
 -->
<!-- Title: public.m_user_permission_categories Pages: 1 -->
<svg width="873pt" height="502pt"
 viewBox="0.00 0.00 872.50 502.00" xmlns="http://www.w3.org/2000/svg" xmlns:xlink="http://www.w3.org/1999/xlink">
<g id="graph0" class="graph" transform="scale(1 1) rotate(0) translate(4 498)">
<title>public.m_user_permission_categories</title>
<polygon fill="#ffffff" stroke="transparent" points="-4,4 -4,-498 868.5,-498 868.5,4 -4,4"/>
<!-- public.m_user_permission_categories -->
<g id="node1" class="node">
<title>public.m_user_permission_categories</title>
<polygon fill="#efefef" stroke="transparent" points="46.5,-135.5 46.5,-170.5 489.5,-170.5 489.5,-135.5 46.5,-135.5"/>
<polygon fill="none" stroke="#000000" points="46.5,-135.5 46.5,-170.5 489.5,-170.5 489.5,-135.5 46.5,-135.5"/>
<text text-anchor="start" x="53.1951" y="-148.3" font-family="Arial Bold" font-size="18.00" fill="#000000">public.m_user_permission_categories</text>
<text text-anchor="start" x="355.2369" y="-148.3" font-family="Arial" font-size="14.00" fill="#000000">    </text>
<text text-anchor="start" x="389.4417" y="-148.3" font-family="Arial" font-size="14.00" fill="#666666">[BASE TABLE]</text>
<polygon fill="none" stroke="#000000" points="46.5,-105.5 46.5,-135.5 489.5,-135.5 489.5,-105.5 46.5,-105.5"/>
<text text-anchor="start" x="53.5" y="-116.9" font-family="Arial" font-size="14.00" fill="#000000">id </text>
<text text-anchor="start" x="68.2798" y="-116.9" font-family="Arial" font-size="14.00" fill="#666666">[uuid]</text>
<polygon fill="none" stroke="#000000" points="46.5,-75.5 46.5,-105.5 489.5,-105.5 489.5,-75.5 46.5,-75.5"/>
<text text-anchor="start" x="53.5" y="-86.9" font-family="Arial" font-size="14.00" fill="#000000">name </text>
<text text-anchor="start" x="92.399" y="-86.9" font-family="Arial" font-size="14.00" fill="#666666">[varchar(255)]</text>
<polygon fill="none" stroke="#000000" points="46.5,-45.5 46.5,-75.5 489.5,-75.5 489.5,-45.5 46.5,-45.5"/>
<text text-anchor="start" x="53.5" y="-56.9" font-family="Arial" font-size="14.00" fill="#000000">detail </text>
<text text-anchor="start" x="90.8422" y="-56.9" font-family="Arial" font-size="14.00" fill="#666666">[text]</text>
<polygon fill="none" stroke="#000000" stroke-width="3" points="44.5,-44.5 44.5,-172.5 490.5,-172.5 490.5,-44.5 44.5,-44.5"/>
</g>
<!-- public.m_user_permissions -->
<g id="node2" class="node">
<title>public.m_user_permissions</title>
<polygon fill="#efefef" stroke="transparent" points="88.5,-415.5 88.5,-450.5 447.5,-450.5 447.5,-415.5 88.5,-415.5"/>
<polygon fill="none" stroke="#000000" points="88.5,-415.5 88.5,-450.5 447.5,-450.5 447.5,-415.5 88.5,-415.5"/>
<text text-anchor="start" x="95.208" y="-428.3" font-family="Arial Bold" font-size="18.00" fill="#000000">public.m_user_permissions</text>
<text text-anchor="start" x="313.224" y="-428.3" font-family="Arial" font-size="14.00" fill="#000000">    </text>
<text text-anchor="start" x="347.4288" y="-428.3" font-family="Arial" font-size="14.00" fill="#666666">[BASE TABLE]</text>
<polygon fill="none" stroke="#000000" points="88.5,-385.5 88.5,-415.5 447.5,-415.5 447.5,-385.5 88.5,-385.5"/>
<text text-anchor="start" x="95.5" y="-396.9" font-family="Arial" font-size="14.00" fill="#000000">id    </text>
<text text-anchor="start" x="140.594" y="-396.9" font-family="Arial" font-size="14.00" fill="#666666">[uuid]</text>
<polygon fill="none" stroke="#000000" points="88.5,-355.5 88.5,-385.5 447.5,-385.5 447.5,-355.5 88.5,-355.5"/>
<text text-anchor="start" x="95.5" y="-366.9" font-family="Arial" font-size="14.00" fill="#000000">name    </text>
<text text-anchor="start" x="164.7132" y="-366.9" font-family="Arial" font-size="14.00" fill="#666666">[varchar(255)]</text>
<polygon fill="none" stroke="#000000" points="88.5,-325.5 88.5,-355.5 447.5,-355.5 447.5,-325.5 88.5,-325.5"/>
<text text-anchor="start" x="95.5" y="-336.9" font-family="Arial" font-size="14.00" fill="#000000">detail    </text>
<text text-anchor="start" x="163.1564" y="-336.9" font-family="Arial" font-size="14.00" fill="#666666">[text]</text>
<polygon fill="none" stroke="#000000" points="88.5,-295.5 88.5,-325.5 447.5,-325.5 447.5,-295.5 88.5,-295.5"/>
<text text-anchor="start" x="95.5" y="-306.9" font-family="Arial" font-size="14.00" fill="#000000">category_id    </text>
<text text-anchor="start" x="202.0582" y="-306.9" font-family="Arial" font-size="14.00" fill="#666666">[uuid]</text>
</g>
<!-- public.m_user_permissions&#45;&gt;public.m_user_permission_categories -->
<g id="edge1" class="edge">
<title>public.m_user_permissions:category_id&#45;&gt;public.m_user_permission_categories:id</title>
<path fill="none" stroke="#000000" d="M267.9442,-285.5104C257.5727,-198.2455 104.8547,-299.5299 46.5,-217 21.7389,-181.9808 3.6111,-120.5 46.5,-120.5"/>
<polygon fill="#000000" stroke="#000000" points="267.9444,-285.5154 264.0069,-295.75 268.2222,-290.5077 268.5,-295.5 268.5,-295.5 268.5,-295.5 268.2222,-290.5077 272.9931,-295.25 267.9444,-285.5154 267.9444,-285.5154"/>
<text text-anchor="start" x="275.105" y="-305.5" font-family="Arial" font-size="10.00" fill="#000000">FOREIGN KEY (category_id) REFERENCES m_user_permission_categories(id) ON UPDATE RESTRICT ON DELETE RESTRICT</text>
</g>
</g>
</svg>
