<?xml version="1.0" encoding="UTF-8" standalone="no"?>
<!DOCTYPE svg PUBLIC "-//W3C//DTD SVG 1.1//EN"
 "http://www.w3.org/Graphics/SVG/1.1/DTD/svg11.dtd">
<!-- Generated by graphviz version 2.40.1 (20161225.0304)
 -->
<!-- Title: public.t_user_channel Pages: 1 -->
<svg width="1303pt" height="682pt"
 viewBox="0.00 0.00 1303.00 682.00" xmlns="http://www.w3.org/2000/svg" xmlns:xlink="http://www.w3.org/1999/xlink">
<g id="graph0" class="graph" transform="scale(1 1) rotate(0) translate(4 678)">
<title>public.t_user_channel</title>
<polygon fill="#ffffff" stroke="transparent" points="-4,4 -4,-678 1299,-678 1299,4 -4,4"/>
<!-- public.t_user_channel -->
<g id="node1" class="node">
<title>public.t_user_channel</title>
<polygon fill="#efefef" stroke="transparent" points="474,-592.5 474,-627.5 790,-627.5 790,-592.5 474,-592.5"/>
<polygon fill="none" stroke="#000000" points="474,-592.5 474,-627.5 790,-627.5 790,-592.5 474,-592.5"/>
<text text-anchor="start" x="480.6892" y="-605.3" font-family="Arial Bold" font-size="18.00" fill="#000000">public.t_user_channel</text>
<text text-anchor="start" x="655.7428" y="-605.3" font-family="Arial" font-size="14.00" fill="#000000">    </text>
<text text-anchor="start" x="689.9476" y="-605.3" font-family="Arial" font-size="14.00" fill="#666666">[BASE TABLE]</text>
<polygon fill="none" stroke="#000000" points="474,-562.5 474,-592.5 790,-592.5 790,-562.5 474,-562.5"/>
<text text-anchor="start" x="481" y="-573.9" font-family="Arial" font-size="14.00" fill="#000000">user_id </text>
<text text-anchor="start" x="530.7882" y="-573.9" font-family="Arial" font-size="14.00" fill="#666666">[uuid]</text>
<polygon fill="none" stroke="#000000" points="474,-532.5 474,-562.5 790,-562.5 790,-532.5 474,-532.5"/>
<text text-anchor="start" x="481" y="-543.9" font-family="Arial" font-size="14.00" fill="#000000">channel_id </text>
<text text-anchor="start" x="552.582" y="-543.9" font-family="Arial" font-size="14.00" fill="#666666">[uuid]</text>
<polygon fill="none" stroke="#000000" points="474,-502.5 474,-532.5 790,-532.5 790,-502.5 474,-502.5"/>
<text text-anchor="start" x="481" y="-513.9" font-family="Arial" font-size="14.00" fill="#000000">connected_at </text>
<text text-anchor="start" x="568.9326" y="-513.9" font-family="Arial" font-size="14.00" fill="#666666">[timestamp with time zone]</text>
<polygon fill="none" stroke="#000000" points="474,-472.5 474,-502.5 790,-502.5 790,-472.5 474,-472.5"/>
<text text-anchor="start" x="481" y="-483.9" font-family="Arial" font-size="14.00" fill="#000000">disconnected_at </text>
<text text-anchor="start" x="586.8218" y="-483.9" font-family="Arial" font-size="14.00" fill="#666666">[timestamp with time zone]</text>
<polygon fill="none" stroke="#000000" stroke-width="3" points="472.5,-471.5 472.5,-629.5 791.5,-629.5 791.5,-471.5 472.5,-471.5"/>
</g>
<!-- public.m_users -->
<g id="node2" class="node">
<title>public.m_users</title>
<polygon fill="#efefef" stroke="transparent" points="241,-312.5 241,-347.5 584,-347.5 584,-312.5 241,-312.5"/>
<polygon fill="none" stroke="#000000" points="241,-312.5 241,-347.5 584,-347.5 584,-312.5 241,-312.5"/>
<text text-anchor="start" x="288.2099" y="-325.3" font-family="Arial Bold" font-size="18.00" fill="#000000">public.m_users</text>
<text text-anchor="start" x="409.2221" y="-325.3" font-family="Arial" font-size="14.00" fill="#000000">    </text>
<text text-anchor="start" x="443.4269" y="-325.3" font-family="Arial" font-size="14.00" fill="#666666">[BASE TABLE]</text>
<polygon fill="none" stroke="#000000" points="241,-282.5 241,-312.5 584,-312.5 584,-282.5 241,-282.5"/>
<text text-anchor="start" x="248" y="-293.9" font-family="Arial" font-size="14.00" fill="#000000">id    </text>
<text text-anchor="start" x="293.094" y="-293.9" font-family="Arial" font-size="14.00" fill="#666666">[uuid]</text>
<polygon fill="none" stroke="#000000" points="241,-252.5 241,-282.5 584,-282.5 584,-252.5 241,-252.5"/>
<text text-anchor="start" x="248" y="-263.9" font-family="Arial" font-size="14.00" fill="#000000">login_id    </text>
<text text-anchor="start" x="330.4376" y="-263.9" font-family="Arial" font-size="14.00" fill="#666666">[varchar(255)]</text>
<polygon fill="none" stroke="#000000" points="241,-222.5 241,-252.5 584,-252.5 584,-222.5 241,-222.5"/>
<text text-anchor="start" x="248" y="-233.9" font-family="Arial" font-size="14.00" fill="#000000">password    </text>
<text text-anchor="start" x="342.1024" y="-233.9" font-family="Arial" font-size="14.00" fill="#666666">[varchar(255)]</text>
<polygon fill="none" stroke="#000000" points="241,-192.5 241,-222.5 584,-222.5 584,-192.5 241,-192.5"/>
<text text-anchor="start" x="248" y="-203.9" font-family="Arial" font-size="14.00" fill="#000000">name    </text>
<text text-anchor="start" x="317.2132" y="-203.9" font-family="Arial" font-size="14.00" fill="#666666">[varchar(255)]</text>
<polygon fill="none" stroke="#000000" points="241,-162.5 241,-192.5 584,-192.5 584,-162.5 241,-162.5"/>
<text text-anchor="start" x="247.9727" y="-173.9" font-family="Arial" font-size="14.00" fill="#000000">last_logged_in_at    </text>
<text text-anchor="start" x="391.8871" y="-173.9" font-family="Arial" font-size="14.00" fill="#666666">[timestamp without time zone]</text>
<polygon fill="none" stroke="#000000" points="241,-132.5 241,-162.5 584,-162.5 584,-132.5 241,-132.5"/>
<text text-anchor="start" x="248" y="-143.9" font-family="Arial" font-size="14.00" fill="#000000">created_by    </text>
<text text-anchor="start" x="351.4516" y="-143.9" font-family="Arial" font-size="14.00" fill="#666666">[uuid]</text>
<polygon fill="none" stroke="#000000" points="241,-102.5 241,-132.5 584,-132.5 584,-102.5 241,-102.5"/>
<text text-anchor="start" x="248" y="-113.9" font-family="Arial" font-size="14.00" fill="#000000">from_system    </text>
<text text-anchor="start" x="362.3156" y="-113.9" font-family="Arial" font-size="14.00" fill="#666666">[boolean]</text>
<polygon fill="none" stroke="#000000" points="241,-72.5 241,-102.5 584,-102.5 584,-72.5 241,-72.5"/>
<text text-anchor="start" x="248" y="-83.9" font-family="Arial" font-size="14.00" fill="#000000">created_at    </text>
<text text-anchor="start" x="348.3422" y="-83.9" font-family="Arial" font-size="14.00" fill="#666666">[timestamp with time zone]</text>
<polygon fill="none" stroke="#000000" points="241,-42.5 241,-72.5 584,-72.5 584,-42.5 241,-42.5"/>
<text text-anchor="start" x="248" y="-53.9" font-family="Arial" font-size="14.00" fill="#000000">updated_at    </text>
<text text-anchor="start" x="352.2468" y="-53.9" font-family="Arial" font-size="14.00" fill="#666666">[timestamp with time zone]</text>
</g>
<!-- public.t_user_channel&#45;&gt;public.m_users -->
<g id="edge1" class="edge">
<title>public.t_user_channel:user_id&#45;&gt;public.m_users:id</title>
<path fill="none" stroke="#000000" d="M463.8605,-576.6582C410.1679,-567.0886 436.8882,-478.1944 474,-427 504.1917,-385.3516 553.8083,-432.6484 584,-391 608.39,-357.3549 625.5556,-297.5 584,-297.5"/>
<polygon fill="#000000" stroke="#000000" points="464.0343,-576.6726 473.6277,-581.9846 469.0171,-577.0863 474,-577.5 474,-577.5 474,-577.5 469.0171,-577.0863 474.3723,-573.0154 464.0343,-576.6726 464.0343,-576.6726"/>
<text text-anchor="start" x="6.9985" y="-587.5" font-family="Arial" font-size="10.00" fill="#000000">FOREIGN KEY (user_id) REFERENCES m_users(id) ON UPDATE CASCADE ON DELETE CASCADE</text>
</g>
<!-- public.m_channels -->
<g id="node3" class="node">
<title>public.m_channels</title>
<polygon fill="#efefef" stroke="transparent" points="688,-312.5 688,-347.5 1013,-347.5 1013,-312.5 688,-312.5"/>
<polygon fill="none" stroke="#000000" points="688,-312.5 688,-347.5 1013,-347.5 1013,-312.5 688,-312.5"/>
<text text-anchor="start" x="712.1996" y="-325.3" font-family="Arial Bold" font-size="18.00" fill="#000000">public.m_channels</text>
<text text-anchor="start" x="861.2324" y="-325.3" font-family="Arial" font-size="14.00" fill="#000000">    </text>
<text text-anchor="start" x="895.4372" y="-325.3" font-family="Arial" font-size="14.00" fill="#666666">[BASE TABLE]</text>
<polygon fill="none" stroke="#000000" points="688,-282.5 688,-312.5 1013,-312.5 1013,-282.5 688,-282.5"/>
<text text-anchor="start" x="695" y="-293.9" font-family="Arial" font-size="14.00" fill="#000000">id    </text>
<text text-anchor="start" x="740.094" y="-293.9" font-family="Arial" font-size="14.00" fill="#666666">[uuid]</text>
<polygon fill="none" stroke="#000000" points="688,-252.5 688,-282.5 1013,-282.5 1013,-252.5 688,-252.5"/>
<text text-anchor="start" x="695" y="-263.9" font-family="Arial" font-size="14.00" fill="#000000">name    </text>
<text text-anchor="start" x="764.2132" y="-263.9" font-family="Arial" font-size="14.00" fill="#666666">[varchar(255)]</text>
<polygon fill="none" stroke="#000000" points="688,-222.5 688,-252.5 1013,-252.5 1013,-222.5 688,-222.5"/>
<text text-anchor="start" x="695" y="-233.9" font-family="Arial" font-size="14.00" fill="#000000">admin_group_id    </text>
<text text-anchor="start" x="829.5652" y="-233.9" font-family="Arial" font-size="14.00" fill="#666666">[uuid]</text>
<polygon fill="none" stroke="#000000" points="688,-192.5 688,-222.5 1013,-222.5 1013,-192.5 688,-192.5"/>
<text text-anchor="start" x="695" y="-203.9" font-family="Arial" font-size="14.00" fill="#000000">connectable_group_id    </text>
<text text-anchor="start" x="866.9256" y="-203.9" font-family="Arial" font-size="14.00" fill="#666666">[uuid]</text>
<polygon fill="none" stroke="#000000" points="688,-162.5 688,-192.5 1013,-192.5 1013,-162.5 688,-162.5"/>
<text text-anchor="start" x="694.9299" y="-173.9" font-family="Arial" font-size="14.00" fill="#000000">last_activity_at    </text>
<text text-anchor="start" x="820.9299" y="-173.9" font-family="Arial" font-size="14.00" fill="#666666">[timestamp without time zone]</text>
<polygon fill="none" stroke="#000000" points="688,-132.5 688,-162.5 1013,-162.5 1013,-132.5 688,-132.5"/>
<text text-anchor="start" x="695" y="-143.9" font-family="Arial" font-size="14.00" fill="#000000">created_by    </text>
<text text-anchor="start" x="798.4516" y="-143.9" font-family="Arial" font-size="14.00" fill="#666666">[uuid]</text>
<polygon fill="none" stroke="#000000" points="688,-102.5 688,-132.5 1013,-132.5 1013,-102.5 688,-102.5"/>
<text text-anchor="start" x="695" y="-113.9" font-family="Arial" font-size="14.00" fill="#000000">updated_by    </text>
<text text-anchor="start" x="802.3562" y="-113.9" font-family="Arial" font-size="14.00" fill="#666666">[uuid]</text>
<polygon fill="none" stroke="#000000" points="688,-72.5 688,-102.5 1013,-102.5 1013,-72.5 688,-72.5"/>
<text text-anchor="start" x="695" y="-83.9" font-family="Arial" font-size="14.00" fill="#000000">created_at    </text>
<text text-anchor="start" x="795.3422" y="-83.9" font-family="Arial" font-size="14.00" fill="#666666">[timestamp with time zone]</text>
<polygon fill="none" stroke="#000000" points="688,-42.5 688,-72.5 1013,-72.5 1013,-42.5 688,-42.5"/>
<text text-anchor="start" x="695" y="-53.9" font-family="Arial" font-size="14.00" fill="#000000">updated_at    </text>
<text text-anchor="start" x="799.2468" y="-53.9" font-family="Arial" font-size="14.00" fill="#666666">[timestamp with time zone]</text>
</g>
<!-- public.t_user_channel&#45;&gt;public.m_channels -->
<g id="edge2" class="edge">
<title>public.t_user_channel:channel_id&#45;&gt;public.m_channels:id</title>
<path fill="none" stroke="#000000" d="M800.1906,-546.3994C840.3331,-536.8662 818.7573,-467.6455 790,-427 762.2338,-387.7553 715.7662,-430.2447 688,-391 663.9987,-357.0766 646.4444,-297.5 688,-297.5"/>
<polygon fill="#000000" stroke="#000000" points="799.9422,-546.4262 789.5168,-543.026 794.9711,-546.9631 790,-547.5 790,-547.5 790,-547.5 794.9711,-546.9631 790.4832,-551.974 799.9422,-546.4262 799.9422,-546.4262"/>
<text text-anchor="start" x="797.4315" y="-557.5" font-family="Arial" font-size="10.00" fill="#000000">FOREIGN KEY (channel_id) REFERENCES m_channels(id) ON UPDATE CASCADE ON DELETE CASCADE</text>
</g>
</g>
</svg>
